<svg width="28" height="28" viewBox="0 0 28 28" fill="none" xmlns="http://www.w3.org/2000/svg">
<path d="M12.9294 19.632H15.1893V15.1121H19.7091V12.8522H15.1893V8.3324H12.9294V12.8522H8.40954V15.1121H12.9294V19.632ZM14.0593 25.2817C12.4962 25.2817 11.0273 24.9849 9.6525 24.3913C8.27772 23.7977 7.08185 22.9928 6.06489 21.9766C5.04793 20.9597 4.24302 19.7638 3.65017 18.389C3.05732 17.0142 2.76052 15.5453 2.75977 13.9822C2.75977 12.4191 3.05657 10.9501 3.65017 9.57535C4.24377 8.20057 5.04868 7.0047 6.06489 5.98774C7.08185 4.97078 8.27772 4.16587 9.6525 3.57302C11.0273 2.98017 12.4962 2.68337 14.0593 2.68262C15.6224 2.68262 17.0914 2.97942 18.4662 3.57302C19.8409 4.16663 21.0368 4.97153 22.0538 5.98774C23.0707 7.0047 23.876 8.20057 24.4696 9.57535C25.0632 10.9501 25.3596 12.4191 25.3589 13.9822C25.3589 15.5453 25.0621 17.0142 24.4685 18.389C23.8749 19.7638 23.07 20.9597 22.0538 21.9766C21.0368 22.9936 19.8409 23.7989 18.4662 24.3925C17.0914 24.9861 15.6224 25.2825 14.0593 25.2817ZM14.0593 23.0218C16.5829 23.0218 18.7204 22.1461 20.4718 20.3947C22.2233 18.6432 23.099 16.5057 23.099 13.9822C23.099 11.4586 22.2233 9.32111 20.4718 7.56968C18.7204 5.81824 16.5829 4.94253 14.0593 4.94253C11.5358 4.94253 9.39826 5.81824 7.64682 7.56968C5.89539 9.32111 5.01968 11.4586 5.01968 13.9822C5.01968 16.5057 5.89539 18.6432 7.64682 20.3947C9.39826 22.1461 11.5358 23.0218 14.0593 23.0218Z" fill="#00556A"/>
</svg>
