<svg width="141" height="127" viewBox="0 0 141 127" fill="none" xmlns="http://www.w3.org/2000/svg">
<g clip-path="url(#clip0_259_146)">
<g clip-path="url(#clip1_259_146)">
<path d="M69.7058 46.6799H96.5131C98.3572 46.6799 99.8626 45.1697 99.8626 43.3192C99.8626 41.4687 98.3572 39.9585 96.5131 39.9585H69.7058C67.8616 39.9585 66.3564 41.4687 66.3564 43.3192C66.3564 45.1697 67.8616 46.6799 69.7058 46.6799Z" fill="#FAFAFA"/>
<path d="M77.1126 33.5838H89.9868C91.8309 33.5838 93.3363 32.0735 93.3363 30.223C93.3363 28.3725 91.8251 26.8623 89.9868 26.8623H77.1126C75.2683 26.8623 73.7632 28.3725 73.7632 30.223C73.7632 32.0735 75.2683 33.5838 77.1126 33.5838Z" fill="#FAFAFA"/>
<path d="M51.0135 33.5838H63.8876C65.7318 33.5838 67.237 32.0735 67.237 30.223C67.237 28.3725 65.7259 26.8623 63.8876 26.8623H51.0135C49.1692 26.8623 47.6641 28.3725 47.6641 30.223C47.6641 32.0735 49.1692 33.5838 51.0135 33.5838Z" fill="#FAFAFA"/>
<path d="M56.118 46.4954H59.0985C60.9428 46.4954 62.448 44.9852 62.448 43.1346C62.448 41.2842 60.9428 39.7739 59.0985 39.7739H56.118C54.2737 39.7739 52.7686 41.2842 52.7686 43.1346C52.7686 44.9852 54.2737 46.4954 56.118 46.4954Z" fill="#FAFAFA"/>
<path d="M103.033 53.0498H76.2322C74.3879 53.0498 72.8828 54.56 72.8828 56.4105C72.8828 58.261 74.3879 59.7712 76.2322 59.7712H103.04C104.884 59.7712 106.389 58.261 106.389 56.4105C106.383 54.56 104.878 53.0498 103.033 53.0498Z" fill="#FAFAFA"/>
<path d="M68.9679 56.2255C68.9679 54.375 67.4628 52.8647 65.6185 52.8647H57.5335C55.6893 52.8647 54.1841 54.375 54.1841 56.2255C54.1841 58.0759 55.6893 59.5862 57.5335 59.5862H65.6185C67.4628 59.5862 68.9679 58.0759 68.9679 56.2255Z" fill="#FAFAFA"/>
<path d="M49.3951 56.2255C49.3951 54.375 47.89 52.8647 46.0458 52.8647H37.9607C36.1165 52.8647 34.6113 54.375 34.6113 56.2255C34.6113 58.0759 36.1165 59.5862 37.9607 59.5862H46.0458C47.89 59.5862 49.3951 58.0759 49.3951 56.2255Z" fill="#FAFAFA"/>
<path d="M96.507 66.1465H69.7058C67.8616 66.1465 66.3564 67.6567 66.3564 69.5072C66.3564 71.3579 67.8616 72.8679 69.7058 72.8679H96.5131C98.3572 72.8679 99.8626 71.3579 99.8626 69.5072C99.8626 67.6567 98.3515 66.1465 96.507 66.1465Z" fill="#FAFAFA"/>
<path d="M89.9868 79.2368H77.1126C75.2683 79.2368 73.7632 80.7469 73.7632 82.5974C73.7632 84.4479 75.2683 85.9583 77.1126 85.9583H89.9868C91.8309 85.9583 93.3363 84.4479 93.3363 82.5974C93.3363 80.7469 91.8251 79.2368 89.9868 79.2368Z" fill="#FAFAFA"/>
<path d="M63.8876 79.2368H51.0135C49.1692 79.2368 47.6641 80.7469 47.6641 82.5974C47.6641 84.4479 49.1692 85.9583 51.0135 85.9583H63.8876C65.7318 85.9583 67.237 84.4479 67.237 82.5974C67.237 80.7469 65.7259 79.2368 63.8876 79.2368Z" fill="#FAFAFA"/>
<path d="M56.118 73.053H59.0985C60.9428 73.053 62.448 71.5426 62.448 69.6923C62.448 67.8418 60.9428 66.3315 59.0985 66.3315H56.118C54.2737 66.3315 52.7686 67.8418 52.7686 69.6923C52.7686 71.5426 54.2737 73.053 56.118 73.053Z" fill="#FAFAFA"/>
</g>
</g>
<path d="M30.5253 124.244C28.835 124.244 27.3137 123.873 25.9614 123.131C24.6091 122.381 23.5372 121.313 22.7456 119.928C21.9623 118.542 21.5706 116.897 21.5706 114.993C21.5706 113.607 21.7974 112.346 22.2509 111.208C22.7044 110.062 23.3352 109.072 24.1432 108.239C24.9596 107.407 25.9078 106.768 26.988 106.322C28.0764 105.869 29.2555 105.642 30.5253 105.642C31.218 105.642 31.9312 105.712 32.6651 105.852C33.4072 105.984 34.1534 106.194 34.9038 106.483L34.2606 108.091C33.5432 107.852 32.8836 107.687 32.2817 107.596C31.6797 107.497 31.0943 107.448 30.5253 107.448C29.676 107.448 28.8638 107.604 28.0888 107.918C27.3137 108.231 26.6252 108.701 26.0232 109.328C25.4296 109.954 24.9596 110.742 24.6132 111.69C24.2669 112.63 24.0938 113.731 24.0938 114.993C24.0938 116.114 24.2669 117.132 24.6132 118.048C24.9596 118.963 25.4296 119.75 26.0232 120.41C26.6252 121.07 27.3137 121.577 28.0888 121.931C28.8638 122.286 29.676 122.463 30.5253 122.463C31.0943 122.463 31.688 122.389 32.3064 122.24C32.9331 122.092 33.5845 121.845 34.2606 121.498L34.9038 123.106C34.1369 123.51 33.3866 123.799 32.6527 123.972C31.9271 124.153 31.218 124.244 30.5253 124.244ZM41.2202 124.195C40.3626 124.195 39.6205 124.042 38.9938 123.737C38.3754 123.424 37.8972 123.003 37.5591 122.475C37.2293 121.948 37.0644 121.35 37.0644 120.682C37.0644 119.849 37.2829 119.161 37.7199 118.616C38.1569 118.064 38.8743 117.619 39.872 117.281C40.878 116.943 42.2261 116.675 43.9165 116.477C43.8835 116.675 43.8093 116.91 43.6938 117.182C43.5866 117.454 43.4094 117.705 43.162 117.936C42.9146 118.167 42.5724 118.316 42.1354 118.381C41.4098 118.497 40.8574 118.666 40.4781 118.889C40.107 119.111 39.8514 119.367 39.7112 119.655C39.5793 119.936 39.5133 120.228 39.5133 120.534C39.5133 121.037 39.6947 121.478 40.0575 121.857C40.4203 122.228 40.9151 122.414 41.5417 122.414C42.1024 122.414 42.6673 122.273 43.2362 121.993C43.8052 121.713 44.3288 121.259 44.807 120.633V116.007C44.807 115.026 44.5679 114.23 44.0896 113.62C43.6196 113.001 42.8198 112.692 41.6902 112.692C41.2449 112.692 40.8038 112.737 40.3667 112.828C39.9297 112.919 39.4144 113.071 38.8207 113.286L38.2517 111.752C39.0598 111.406 39.7731 111.179 40.3915 111.072C41.0099 110.965 41.5912 110.911 42.1354 110.911C43.7186 110.911 44.9472 111.373 45.8212 112.296C46.6952 113.211 47.1323 114.506 47.1323 116.18V119.717C47.1323 120.707 47.1694 121.552 47.2436 122.253C47.326 122.945 47.4209 123.51 47.5281 123.947H45.8459C45.6151 123.807 45.4337 123.626 45.3017 123.403C45.1698 123.18 45.0544 122.941 44.9554 122.686L44.9307 122.24L44.6586 122.686C44.0319 123.312 43.4506 123.721 42.9146 123.91C42.3787 124.1 41.8138 124.195 41.2202 124.195ZM54.3887 124.195C53.762 124.195 53.09 124.137 52.3726 124.021C51.6635 123.914 50.8266 123.626 49.8618 123.156L50.4555 121.523C51.0904 121.828 51.7253 122.055 52.3602 122.203C52.9952 122.343 53.5723 122.414 54.0918 122.414C54.8339 122.414 55.3864 122.24 55.7492 121.894C56.112 121.548 56.2934 121.103 56.2934 120.558C56.2934 120.105 56.1491 119.73 55.8605 119.433C55.5719 119.136 55.2009 118.872 54.7473 118.641C54.2938 118.41 53.8115 118.179 53.3002 117.949C52.789 117.709 52.3066 117.437 51.8531 117.132C51.3996 116.819 51.0286 116.431 50.74 115.97C50.4514 115.508 50.3071 114.935 50.3071 114.25C50.3071 113.723 50.4555 113.207 50.7523 112.704C51.0574 112.193 51.5027 111.773 52.0881 111.443C52.6818 111.105 53.4074 110.936 54.265 110.936C54.735 110.936 55.2503 110.981 55.811 111.072C56.38 111.162 57.0108 111.331 57.7034 111.579L57.1345 113.187C56.615 113.014 56.1326 112.89 55.6873 112.816C55.2503 112.733 54.8587 112.692 54.5123 112.692C53.9434 112.692 53.4693 112.824 53.09 113.088C52.7189 113.352 52.5334 113.739 52.5334 114.25C52.5334 114.687 52.6777 115.054 52.9663 115.351C53.2549 115.648 53.6259 115.912 54.0795 116.143C54.533 116.374 55.0153 116.613 55.5266 116.86C56.0378 117.099 56.5202 117.38 56.9737 117.701C57.4272 118.023 57.7982 118.423 58.0868 118.901C58.3754 119.371 58.5197 119.965 58.5197 120.682C58.5197 121.309 58.3259 121.89 57.9384 122.426C57.5509 122.954 57.0437 123.382 56.4171 123.712C55.7904 124.034 55.1143 124.195 54.3887 124.195ZM61.3154 123.947V105.197H63.6159V123.947H61.3154ZM69.3054 123.947V114.646C69.3054 114.077 69.194 113.611 68.9714 113.249C68.757 112.878 68.4066 112.692 67.9201 112.692C67.7222 112.692 67.5573 112.713 67.4254 112.754C67.3017 112.795 67.1285 112.84 66.9059 112.89C66.4276 112.997 65.9906 113.001 65.5948 112.902C65.199 112.803 64.828 112.577 64.4817 112.222C65.364 111.703 66.0937 111.356 66.6709 111.183C67.2481 111.002 67.7634 110.911 68.2169 110.911C68.8519 110.911 69.429 111.031 69.9485 111.27C70.4762 111.509 70.8968 111.917 71.2101 112.494C71.5234 113.071 71.6801 113.871 71.6801 114.894V123.947H69.3054Z" fill="#00FFF0"/>
<path d="M79.1514 123.947V107.745H73.9072V105.964H86.7951V107.745H81.5261V123.947H79.1514ZM94.4869 124.195C93.5799 124.195 92.7553 124.026 92.0132 123.688C91.2793 123.349 90.6486 122.879 90.1208 122.278C89.6014 121.667 89.2015 120.954 88.9211 120.138C88.6407 119.313 88.5006 118.414 88.5006 117.441C88.5006 116.106 88.7438 114.951 89.2303 113.978C89.725 112.997 90.4259 112.243 91.3329 111.715C92.24 111.179 93.316 110.911 94.5611 110.911C95.4104 110.911 96.1607 111.101 96.8122 111.48C97.4636 111.851 97.9872 112.362 98.3829 113.014C98.787 113.657 99.0343 114.391 99.125 115.215C99.224 116.031 99.1374 116.881 98.8653 117.763H91.6916C91.8648 117.293 92.108 116.901 92.4214 116.588C92.7429 116.266 93.2006 116.106 93.7943 116.106H96.9358C97.01 115.471 96.9358 114.898 96.7132 114.386C96.4988 113.867 96.1772 113.455 95.7485 113.15C95.3279 112.845 94.8497 112.692 94.3137 112.692C93.6211 112.692 93.0109 112.878 92.4832 113.249C91.9555 113.62 91.5432 114.164 91.2464 114.881C90.9495 115.59 90.8011 116.452 90.8011 117.466C90.8011 118.447 90.9701 119.309 91.3082 120.051C91.6545 120.793 92.1245 121.375 92.7182 121.795C93.3119 122.207 93.9839 122.414 94.7343 122.414C95.3032 122.414 95.8433 122.356 96.3545 122.24C96.8657 122.117 97.4718 121.878 98.1727 121.523L98.7911 123.156C97.9995 123.56 97.2327 123.832 96.4906 123.972C95.7485 124.12 95.0806 124.195 94.4869 124.195ZM107.571 124.195C106.466 124.195 105.46 123.939 104.553 123.428C103.655 122.917 102.937 122.166 102.401 121.177C101.874 120.187 101.61 118.975 101.61 117.54C101.61 116.114 101.882 114.91 102.426 113.929C102.979 112.939 103.708 112.189 104.615 111.678C105.522 111.167 106.508 110.911 107.571 110.911C108.017 110.911 108.507 110.952 109.043 111.035C109.579 111.109 110.094 111.241 110.589 111.43L110.02 113.038C109.55 112.915 109.117 112.828 108.722 112.779C108.326 112.721 107.942 112.692 107.571 112.692C106.945 112.692 106.363 112.865 105.827 113.211C105.3 113.558 104.871 114.09 104.541 114.807C104.219 115.524 104.059 116.436 104.059 117.54C104.059 118.654 104.219 119.569 104.541 120.286C104.863 121.004 105.287 121.54 105.815 121.894C106.351 122.24 106.936 122.414 107.571 122.414C107.934 122.414 108.334 122.36 108.771 122.253C109.216 122.137 109.723 121.952 110.292 121.696L110.911 123.329C110.243 123.659 109.616 123.885 109.031 124.009C108.445 124.133 107.959 124.195 107.571 124.195ZM113.181 123.947V105.197H115.481V123.947H113.181ZM121.171 123.947V114.646C121.171 114.077 121.059 113.611 120.837 113.249C120.622 112.878 120.272 112.692 119.785 112.692C119.587 112.692 119.423 112.713 119.291 112.754C119.167 112.795 118.994 112.84 118.771 112.89C118.293 112.997 117.856 113.001 117.46 112.902C117.064 112.803 116.693 112.577 116.347 112.222C117.229 111.703 117.959 111.356 118.536 111.183C119.113 111.002 119.629 110.911 120.082 110.911C120.717 110.911 121.294 111.031 121.814 111.27C122.341 111.509 122.762 111.917 123.075 112.494C123.389 113.071 123.545 113.871 123.545 114.894V123.947H121.171Z" fill="#FAFAFA"/>
<defs>
<clipPath id="clip0_259_146">
<rect width="71.7772" height="71.8914" fill="white" transform="translate(34.6113 21.5674)"/>
</clipPath>
<clipPath id="clip1_259_146">
<rect width="71.7714" height="59.0962" fill="white" transform="translate(34.6113 26.8623)"/>
</clipPath>
</defs>
</svg>
