<svg width="219" height="271" viewBox="0 0 219 271" fill="none" xmlns="http://www.w3.org/2000/svg">
<g clip-path="url(#clip0_259_1524)">
<g clip-path="url(#clip1_259_1524)">
<path d="M106.984 82.4404H188.509C194.117 82.4404 198.695 77.5005 198.695 71.4475C198.695 65.3945 194.117 60.4546 188.509 60.4546H106.984C101.376 60.4546 96.7983 65.3945 96.7983 71.4475C96.7983 77.5005 101.376 82.4404 106.984 82.4404Z" fill="#FAFAFA"/>
<path d="M129.508 39.602H168.661C174.269 39.602 178.847 34.6621 178.847 28.6091C178.847 22.5562 174.251 17.6162 168.661 17.6162H129.508C123.9 17.6162 119.323 22.5562 119.323 28.6091C119.323 34.6621 123.9 39.602 129.508 39.602Z" fill="#FAFAFA"/>
<path d="M50.1381 39.602H89.29C94.8986 39.602 99.476 34.6621 99.476 28.6091C99.476 22.5562 94.8805 17.6162 89.29 17.6162H50.1381C44.5296 17.6162 39.9521 22.5562 39.9521 28.6091C39.9521 34.6621 44.5296 39.602 50.1381 39.602Z" fill="#FAFAFA"/>
<path d="M65.6614 81.836H74.7256C80.3343 81.836 84.9117 76.896 84.9117 70.843C84.9117 64.7902 80.3343 59.8501 74.7256 59.8501H65.6614C60.0528 59.8501 55.4753 64.7902 55.4753 70.843C55.4753 76.896 60.0528 81.836 65.6614 81.836Z" fill="#FAFAFA"/>
<path d="M208.338 103.275H126.832C121.223 103.275 116.646 108.215 116.646 114.268C116.646 120.321 121.223 125.261 126.832 125.261H208.356C213.964 125.261 218.541 120.321 218.541 114.268C218.524 108.215 213.947 103.275 208.338 103.275Z" fill="#FAFAFA"/>
<path d="M104.741 113.663C104.741 107.61 100.163 102.67 94.5548 102.67H69.9673C64.3587 102.67 59.7812 107.61 59.7812 113.663C59.7812 119.716 64.3587 124.656 69.9673 124.656H94.5548C100.163 124.656 104.741 119.716 104.741 113.663Z" fill="#FAFAFA"/>
<path d="M45.2168 113.663C45.2168 107.61 40.6395 102.67 35.0309 102.67H10.4433C4.83469 102.67 0.257324 107.61 0.257324 113.663C0.257324 119.716 4.83469 124.656 10.4433 124.656H35.0309C40.6395 124.656 45.2168 119.716 45.2168 113.663Z" fill="#FAFAFA"/>
<path d="M188.49 146.115H106.984C101.376 146.115 96.7983 151.055 96.7983 157.108C96.7983 163.161 101.376 168.101 106.984 168.101H188.509C194.117 168.101 198.695 163.161 198.695 157.108C198.695 151.055 194.099 146.115 188.49 146.115Z" fill="#FAFAFA"/>
<path d="M168.661 188.933H129.508C123.9 188.933 119.323 193.872 119.323 199.925C119.323 205.978 123.9 210.919 129.508 210.919H168.661C174.269 210.919 178.847 205.978 178.847 199.925C178.847 193.872 174.251 188.933 168.661 188.933Z" fill="#FAFAFA"/>
<path d="M89.29 188.933H50.1381C44.5296 188.933 39.9521 193.872 39.9521 199.925C39.9521 205.978 44.5296 210.919 50.1381 210.919H89.29C94.8986 210.919 99.476 205.978 99.476 199.925C99.476 193.872 94.8805 188.933 89.29 188.933Z" fill="#FAFAFA"/>
<path d="M65.6614 168.706H74.7256C80.3343 168.706 84.9117 163.765 84.9117 157.713C84.9117 151.66 80.3343 146.72 74.7256 146.72H65.6614C60.0528 146.72 55.4753 151.66 55.4753 157.713C55.4753 163.765 60.0528 168.706 65.6614 168.706Z" fill="#FAFAFA"/>
</g>
</g>
<path d="M52.8878 270.384C50.7011 270.384 48.7331 269.904 46.9838 268.944C45.2344 267.973 43.8478 266.592 42.8238 264.8C41.8104 263.008 41.3038 260.88 41.3038 258.416C41.3038 256.624 41.5971 254.992 42.1838 253.52C42.7704 252.037 43.5864 250.757 44.6318 249.68C45.6878 248.603 46.9144 247.776 48.3118 247.2C49.7198 246.613 51.2451 246.32 52.8878 246.32C53.7838 246.32 54.7064 246.411 55.6558 246.592C56.6158 246.763 57.5811 247.035 58.5518 247.408L57.7198 249.488C56.7918 249.179 55.9384 248.965 55.1598 248.848C54.3811 248.72 53.6238 248.656 52.8878 248.656C51.7891 248.656 50.7384 248.859 49.7358 249.264C48.7331 249.669 47.8424 250.277 47.0638 251.088C46.2958 251.899 45.6878 252.917 45.2398 254.144C44.7918 255.36 44.5678 256.784 44.5678 258.416C44.5678 259.867 44.7918 261.184 45.2398 262.368C45.6878 263.552 46.2958 264.571 47.0638 265.424C47.8424 266.277 48.7331 266.933 49.7358 267.392C50.7384 267.851 51.7891 268.08 52.8878 268.08C53.6238 268.08 54.3918 267.984 55.1918 267.792C56.0024 267.6 56.8451 267.28 57.7198 266.832L58.5518 268.912C57.5598 269.435 56.5891 269.808 55.6398 270.032C54.7011 270.267 53.7838 270.384 52.8878 270.384ZM66.7228 270.32C65.6134 270.32 64.6534 270.123 63.8428 269.728C63.0428 269.323 62.4241 268.779 61.9868 268.096C61.5601 267.413 61.3468 266.64 61.3468 265.776C61.3468 264.699 61.6294 263.808 62.1948 263.104C62.7601 262.389 63.6881 261.813 64.9788 261.376C66.2801 260.939 68.0241 260.592 70.2108 260.336C70.1681 260.592 70.0721 260.896 69.9228 261.248C69.7841 261.6 69.5548 261.925 69.2348 262.224C68.9148 262.523 68.4721 262.715 67.9068 262.8C66.9681 262.949 66.2534 263.168 65.7628 263.456C65.2828 263.744 64.9521 264.075 64.7708 264.448C64.6001 264.811 64.5148 265.189 64.5148 265.584C64.5148 266.235 64.7494 266.805 65.2188 267.296C65.6881 267.776 66.3281 268.016 67.1388 268.016C67.8641 268.016 68.5948 267.835 69.3308 267.472C70.0668 267.109 70.7441 266.523 71.3628 265.712V259.728C71.3628 258.459 71.0534 257.429 70.4348 256.64C69.8268 255.84 68.7921 255.44 67.3308 255.44C66.7548 255.44 66.1841 255.499 65.6188 255.616C65.0534 255.733 64.3868 255.931 63.6188 256.208L62.8828 254.224C63.9281 253.776 64.8508 253.483 65.6508 253.344C66.4508 253.205 67.2028 253.136 67.9068 253.136C69.9548 253.136 71.5441 253.733 72.6748 254.928C73.8054 256.112 74.3708 257.787 74.3708 259.952V264.528C74.3708 265.808 74.4188 266.901 74.5148 267.808C74.6214 268.704 74.7441 269.435 74.8828 270H72.7068C72.4081 269.819 72.1734 269.584 72.0028 269.296C71.8321 269.008 71.6828 268.699 71.5548 268.368L71.5228 267.792L71.1708 268.368C70.3601 269.179 69.6081 269.707 68.9148 269.952C68.2214 270.197 67.4908 270.32 66.7228 270.32ZM83.7578 270.32C82.9471 270.32 82.0778 270.245 81.1498 270.096C80.2324 269.957 79.1498 269.584 77.9018 268.976L78.6698 266.864C79.4911 267.259 80.3124 267.552 81.1338 267.744C81.9551 267.925 82.7018 268.016 83.3738 268.016C84.3338 268.016 85.0484 267.792 85.5178 267.344C85.9871 266.896 86.2218 266.32 86.2218 265.616C86.2218 265.029 86.0351 264.544 85.6618 264.16C85.2884 263.776 84.8084 263.435 84.2218 263.136C83.6351 262.837 83.0111 262.539 82.3498 262.24C81.6884 261.931 81.0644 261.579 80.4778 261.184C79.8911 260.779 79.4111 260.277 79.0378 259.68C78.6644 259.083 78.4778 258.341 78.4778 257.456C78.4778 256.773 78.6698 256.107 79.0538 255.456C79.4484 254.795 80.0244 254.251 80.7818 253.824C81.5498 253.387 82.4884 253.168 83.5978 253.168C84.2058 253.168 84.8724 253.227 85.5978 253.344C86.3338 253.461 87.1498 253.68 88.0458 254L87.3098 256.08C86.6378 255.856 86.0138 255.696 85.4378 255.6C84.8724 255.493 84.3658 255.44 83.9178 255.44C83.1818 255.44 82.5684 255.611 82.0778 255.952C81.5978 256.293 81.3578 256.795 81.3578 257.456C81.3578 258.021 81.5444 258.496 81.9178 258.88C82.2911 259.264 82.7711 259.605 83.3578 259.904C83.9444 260.203 84.5684 260.512 85.2298 260.832C85.8911 261.141 86.5151 261.504 87.1018 261.92C87.6884 262.336 88.1684 262.853 88.5418 263.472C88.9151 264.08 89.1018 264.848 89.1018 265.776C89.1018 266.587 88.8511 267.339 88.3498 268.032C87.8484 268.715 87.1924 269.269 86.3818 269.696C85.5711 270.112 84.6964 270.32 83.7578 270.32ZM92.7183 270V245.744H95.6943V270H92.7183ZM103.054 270V257.968C103.054 257.232 102.91 256.629 102.622 256.16C102.345 255.68 101.892 255.44 101.262 255.44C101.006 255.44 100.793 255.467 100.622 255.52C100.462 255.573 100.238 255.632 99.9503 255.696C99.3316 255.835 98.7663 255.84 98.2543 255.712C97.7423 255.584 97.2623 255.291 96.8143 254.832C97.9556 254.16 98.8996 253.712 99.6463 253.488C100.393 253.253 101.06 253.136 101.646 253.136C102.468 253.136 103.214 253.291 103.886 253.6C104.569 253.909 105.113 254.437 105.518 255.184C105.924 255.931 106.126 256.965 106.126 258.288V270H103.054Z" fill="#00FFF0"/>
<path d="M115.791 270V249.04H109.007V246.736H125.679V249.04H118.863V270H115.791ZM135.63 270.32C134.456 270.32 133.39 270.101 132.43 269.664C131.48 269.227 130.664 268.619 129.982 267.84C129.31 267.051 128.792 266.128 128.43 265.072C128.067 264.005 127.886 262.843 127.886 261.584C127.886 259.856 128.2 258.363 128.83 257.104C129.47 255.835 130.376 254.859 131.55 254.176C132.723 253.483 134.115 253.136 135.726 253.136C136.824 253.136 137.795 253.381 138.638 253.872C139.48 254.352 140.158 255.013 140.67 255.856C141.192 256.688 141.512 257.637 141.63 258.704C141.758 259.76 141.646 260.859 141.294 262H132.014C132.238 261.392 132.552 260.885 132.958 260.48C133.374 260.064 133.966 259.856 134.734 259.856H138.798C138.894 259.035 138.798 258.293 138.51 257.632C138.232 256.96 137.816 256.427 137.262 256.032C136.718 255.637 136.099 255.44 135.406 255.44C134.51 255.44 133.72 255.68 133.038 256.16C132.355 256.64 131.822 257.344 131.438 258.272C131.054 259.189 130.862 260.304 130.862 261.616C130.862 262.885 131.08 264 131.518 264.96C131.966 265.92 132.574 266.672 133.342 267.216C134.11 267.749 134.979 268.016 135.95 268.016C136.686 268.016 137.384 267.941 138.046 267.792C138.707 267.632 139.491 267.323 140.398 266.864L141.198 268.976C140.174 269.499 139.182 269.851 138.222 270.032C137.262 270.224 136.398 270.32 135.63 270.32ZM152.556 270.32C151.126 270.32 149.825 269.989 148.652 269.328C147.489 268.667 146.561 267.696 145.868 266.416C145.185 265.136 144.844 263.568 144.844 261.712C144.844 259.867 145.196 258.309 145.9 257.04C146.614 255.76 147.558 254.789 148.732 254.128C149.905 253.467 151.18 253.136 152.556 253.136C153.132 253.136 153.766 253.189 154.46 253.296C155.153 253.392 155.82 253.563 156.46 253.808L155.724 255.888C155.116 255.728 154.556 255.616 154.044 255.552C153.532 255.477 153.036 255.44 152.556 255.44C151.745 255.44 150.993 255.664 150.3 256.112C149.617 256.56 149.062 257.248 148.636 258.176C148.22 259.104 148.012 260.283 148.012 261.712C148.012 263.152 148.22 264.336 148.636 265.264C149.052 266.192 149.601 266.885 150.284 267.344C150.977 267.792 151.734 268.016 152.556 268.016C153.025 268.016 153.542 267.947 154.108 267.808C154.684 267.659 155.34 267.419 156.076 267.088L156.876 269.2C156.012 269.627 155.201 269.92 154.444 270.08C153.686 270.24 153.057 270.32 152.556 270.32ZM159.812 270V245.744H162.788V270H159.812ZM170.148 270V257.968C170.148 257.232 170.004 256.629 169.716 256.16C169.439 255.68 168.985 255.44 168.356 255.44C168.1 255.44 167.887 255.467 167.716 255.52C167.556 255.573 167.332 255.632 167.044 255.696C166.425 255.835 165.86 255.84 165.348 255.712C164.836 255.584 164.356 255.291 163.908 254.832C165.049 254.16 165.993 253.712 166.74 253.488C167.487 253.253 168.153 253.136 168.74 253.136C169.561 253.136 170.308 253.291 170.98 253.6C171.663 253.909 172.207 254.437 172.612 255.184C173.017 255.931 173.22 256.965 173.22 258.288V270H170.148Z" fill="#FAFAFA"/>
<defs>
<clipPath id="clip0_259_1524">
<rect width="218.284" height="235.156" fill="white" transform="translate(0.257324 0.296875)"/>
</clipPath>
<clipPath id="clip1_259_1524">
<rect width="218.266" height="193.303" fill="white" transform="translate(0.257324 17.6167)"/>
</clipPath>
</defs>
</svg>
