<svg width="29" height="29" viewBox="0 0 29 29" fill="none" xmlns="http://www.w3.org/2000/svg">
<path d="M18.6833 16.7804H17.731L17.3935 16.4639C18.6156 15.0856 19.2873 13.326 19.286 11.5062C19.286 9.99944 18.8265 8.52653 17.9656 7.27372C17.1046 6.0209 15.881 5.04445 14.4494 4.46785C13.0177 3.89124 11.4424 3.74037 9.92258 4.03433C8.40276 4.32828 7.00672 5.05384 5.911 6.11927C4.81527 7.18471 4.06907 8.54215 3.76676 10.0199C3.46445 11.4977 3.61961 13.0295 4.21261 14.4216C4.80561 15.8136 5.80983 17.0034 7.09827 17.8405C8.38671 18.6776 9.9015 19.1244 11.4511 19.1244C13.3917 19.1244 15.1757 18.4329 16.5498 17.2843L16.8752 17.6125V18.5384L22.9021 24.3869L24.6981 22.6405L18.6833 16.7804ZM11.4511 16.7804C8.44973 16.7804 6.02695 14.4246 6.02695 11.5062C6.02695 8.58781 8.44973 6.23202 11.4511 6.23202C14.4525 6.23202 16.8752 8.58781 16.8752 11.5062C16.8752 14.4246 14.4525 16.7804 11.4511 16.7804Z" fill="#0E4354"/>
</svg>
