<svg width="27" height="28" viewBox="0 0 27 28" fill="none" xmlns="http://www.w3.org/2000/svg">
<path d="M13.5 0C15.2902 0 17.0071 0.737498 18.273 2.05025C19.5388 3.36301 20.25 5.14348 20.25 7C20.25 8.85652 19.5388 10.637 18.273 11.9497C17.0071 13.2625 15.2902 14 13.5 14C11.7098 14 9.9929 13.2625 8.72703 11.9497C7.46116 10.637 6.75 8.85652 6.75 7C6.75 5.14348 7.46116 3.36301 8.72703 2.05025C9.9929 0.737498 11.7098 0 13.5 0ZM13.5 17.5C20.9588 17.5 27 20.6325 27 24.5V28H0V24.5C0 20.6325 6.04125 17.5 13.5 17.5Z" fill="#FCFCFC"/>
</svg>
