<svg width="77" height="118" viewBox="0 0 77 118" fill="none" xmlns="http://www.w3.org/2000/svg">
<path d="M50.9667 1.25901C33.1892 -2.70213 15.489 8.54754 11.5394 26.3178L0.549559 75.551C0.478074 75.8718 0.542897 76.2032 0.718903 76.4801C0.894908 76.7571 1.16743 76.9565 1.48826 77.0279L8.45208 78.5796C8.76985 78.6497 9.10244 78.591 9.37707 78.4165C9.6517 78.2419 9.84601 77.9657 9.91748 77.6482L20.9073 28.415C22.2697 22.3004 25.9375 17.0858 31.2222 13.727C36.5068 10.3683 42.7854 9.26137 48.8884 10.6311C55.003 11.9936 60.2176 15.6613 63.569 20.9345C66.9278 26.2191 68.0274 32.4861 66.6649 38.6007L55.4722 88.7891L53.6598 96.923C51.9652 104.528 44.4074 109.332 36.8019 107.637C33.1219 106.817 29.9878 104.613 27.9638 101.429C25.9397 98.2442 25.275 94.471 26.0949 90.7909L37.1994 40.9989C37.4884 39.746 38.2325 38.6737 39.3171 37.9843L39.3287 37.977C40.4133 37.2877 41.6885 37.0766 42.934 37.3541C44.1985 37.6358 45.2592 38.3872 45.9486 39.4718C46.6306 40.5449 46.849 41.8317 46.5715 43.0772L37.4866 83.7614C37.4151 84.0822 37.4799 84.4136 37.6559 84.6905C37.8319 84.9675 38.1044 85.1668 38.4253 85.2383L45.3891 86.79C45.7069 86.8601 46.0394 86.8014 46.3141 86.6269C46.5887 86.4523 46.783 86.1761 46.8545 85.8586L55.9205 45.1703C56.7573 41.4147 56.079 37.5692 54.0183 34.3268C51.9575 31.0845 48.7449 28.8334 45.0082 28.0008C37.2518 26.2726 29.5513 31.1829 27.8157 38.9278L26.7466 43.7707L16.7228 88.7126C16.036 91.7527 15.9596 94.8989 16.4981 97.9687C17.0365 101.039 18.1791 103.971 19.8595 106.596C23.2549 111.938 28.5335 115.63 34.7047 117.005C41.095 118.419 47.4575 117.113 52.5807 113.857C57.7038 110.601 61.5876 105.395 63.0089 99.016L76.0255 40.6864C77.9315 32.088 76.3877 23.236 71.6576 15.7936C66.9316 8.33238 59.5724 3.17651 50.9667 1.25901Z" fill="#FF9A62"/>
</svg>
