<svg width="9" height="11" viewBox="0 0 9 11" fill="none" xmlns="http://www.w3.org/2000/svg">
<path d="M1.29167 10.0837C1.03958 10.0837 0.823709 9.99383 0.644042 9.81416C0.464376 9.63449 0.374695 9.41877 0.375001 9.16699V2.75033H1.29167V9.16699H6.33333V10.0837H1.29167ZM3.125 8.25033C2.87292 8.25033 2.65704 8.16049 2.47738 7.98083C2.29771 7.80116 2.20803 7.58544 2.20833 7.33366V1.83366C2.20833 1.58158 2.29817 1.3657 2.47783 1.18603C2.6575 1.00637 2.87322 0.916687 3.125 0.916993H7.25C7.50208 0.916993 7.71796 1.00683 7.89763 1.18649C8.07729 1.36616 8.16697 1.58188 8.16667 1.83366V7.33366C8.16667 7.58574 8.07683 7.80162 7.89717 7.98129C7.7175 8.16095 7.50178 8.25063 7.25 8.25033H3.125ZM3.125 7.33366H7.25V1.83366H3.125V7.33366Z" fill="#F8F8F8"/>
</svg>
