<svg width="347" height="465" viewBox="0 0 347 465" fill="none" xmlns="http://www.w3.org/2000/svg">
<path d="M126.078 207.133C138.64 218.913 155.614 225.479 173.25 225.479C181.989 225.479 190.649 223.865 198.739 220.723C206.829 217.581 214.199 212.968 220.422 207.133C226.646 201.297 231.601 194.351 234.989 186.682C238.376 179.013 240.125 170.781 240.125 162.458C240.125 145.637 232.996 129.574 220.422 117.784C207.86 106.004 190.886 99.4375 173.25 99.4375C155.614 99.4375 138.64 106.004 126.078 117.784C113.504 129.574 106.375 145.637 106.375 162.458C106.375 179.28 113.504 195.342 126.078 207.133ZM173.25 456.882C172.203 455.76 170.942 454.4 169.488 452.817C164.78 447.693 158.045 440.228 149.96 430.887C133.786 412.199 112.229 386.028 90.6836 356.084C69.1272 326.124 47.6513 292.483 31.5819 258.848C15.4778 225.14 5 191.841 5 162.458C5 120.805 22.6428 80.7879 54.1639 51.2302C85.6958 21.6624 128.527 5 173.25 5C217.973 5 260.804 21.6624 292.336 51.2302C323.857 80.7879 341.5 120.805 341.5 162.458C341.5 191.841 331.022 225.14 314.918 258.848C298.849 292.483 277.373 326.124 255.816 356.084C234.271 386.028 212.714 412.199 196.54 430.887C188.455 440.228 181.72 447.693 177.012 452.817C175.558 454.4 174.297 455.76 173.25 456.882Z" fill="#FF0000" stroke="black" stroke-width="10"/>
</svg>
