<svg width="177" height="171" viewBox="0 0 177 171" fill="none" xmlns="http://www.w3.org/2000/svg">
<path d="M5.15192 1.01654H171.398C172.587 1.01652 173.727 1.51074 174.569 2.39118C175.412 3.27162 175.889 4.46667 175.895 5.71512V169.964H0.655396V5.71512C0.655396 4.46229 1.12913 3.26078 1.9724 2.3749C2.81566 1.48902 3.95936 0.991333 5.15192 0.991333V1.01654Z" fill="white" stroke="#263238" stroke-miterlimit="10"/>
<path d="M172.123 1.01624H4.43209C3.93635 1.01558 3.44535 1.11758 2.98717 1.31642C2.52899 1.51526 2.11261 1.80703 1.76185 2.17505C1.41109 2.54308 1.13283 2.98013 0.942972 3.46121C0.753117 3.9423 0.655395 4.45798 0.655396 4.97877V8.50775H175.895V4.97877C175.895 4.45841 175.797 3.94313 175.608 3.46238C175.418 2.98162 175.14 2.54479 174.79 2.17684C174.44 1.80888 174.024 1.517 173.566 1.31787C173.109 1.11873 172.618 1.01624 172.123 1.01624Z" fill="#263238" stroke="#263238" stroke-miterlimit="10"/>
<path d="M161.676 4.5555C161.676 4.86781 161.588 5.17309 161.422 5.43269C161.257 5.69229 161.022 5.89454 160.748 6.01382C160.473 6.1331 160.171 6.16405 159.879 6.10276C159.588 6.04146 159.32 5.89068 159.11 5.66949C158.9 5.44831 158.758 5.16667 158.7 4.86025C158.643 4.55382 158.673 4.23639 158.788 3.94814C158.902 3.6599 159.095 3.41381 159.343 3.24103C159.591 3.06825 159.881 2.97655 160.179 2.97755C160.376 2.97755 160.571 3.0184 160.753 3.09776C160.935 3.17712 161.1 3.29343 161.239 3.44002C161.378 3.58662 161.488 3.76061 161.563 3.95203C161.638 4.14344 161.677 4.34852 161.676 4.5555Z" fill="#245FB7" stroke="#263238" stroke-miterlimit="10" stroke-linecap="round"/>
<path d="M166.734 4.55549C166.734 4.86758 166.646 5.17267 166.481 5.43216C166.316 5.69165 166.081 5.89391 165.807 6.01334C165.532 6.13277 165.23 6.16402 164.939 6.10313C164.648 6.04225 164.38 5.89196 164.17 5.67128C163.96 5.4506 163.817 5.16943 163.759 4.86334C163.701 4.55724 163.731 4.23997 163.844 3.95164C163.958 3.6633 164.15 3.41686 164.397 3.24347C164.644 3.07008 164.935 2.97754 165.232 2.97754C165.63 2.97754 166.012 3.14379 166.294 3.43971C166.576 3.73564 166.734 4.13699 166.734 4.55549Z" fill="white" stroke="#263238" stroke-miterlimit="10" stroke-linecap="round"/>
<path d="M171.816 4.55549C171.816 4.86758 171.728 5.17267 171.563 5.43216C171.398 5.69165 171.163 5.89391 170.889 6.01334C170.614 6.13277 170.312 6.16402 170.021 6.10313C169.729 6.04225 169.462 5.89196 169.252 5.67128C169.042 5.4506 168.899 5.16943 168.841 4.86334C168.783 4.55724 168.812 4.23997 168.926 3.95164C169.04 3.6633 169.232 3.41686 169.479 3.24347C169.726 3.07008 170.017 2.97754 170.314 2.97754C170.712 2.97754 171.094 3.14379 171.376 3.43971C171.658 3.73564 171.816 4.13699 171.816 4.55549Z" fill="white" stroke="#263238" stroke-miterlimit="10" stroke-linecap="round"/>
<path d="M34.0986 123.215H169.776" stroke="#263238" stroke-miterlimit="10"/>
<path d="M168.126 69.4332H169.776" stroke="#263238" stroke-miterlimit="10"/>
<path d="M34.0986 69.4335H166.168" stroke="#263238" stroke-miterlimit="10"/>
<path d="M101.412 120.15V72.4984" stroke="#263238" stroke-miterlimit="10"/>
<path d="M45.4287 141.414H55.5494C55.5494 143.517 54.9559 145.572 53.8438 147.321C52.7317 149.069 51.151 150.432 49.3017 151.237C47.4524 152.042 45.4174 152.252 43.4542 151.842C41.491 151.432 39.6876 150.419 38.2722 148.932C36.8568 147.445 35.8929 145.551 35.5024 143.488C35.1119 141.426 35.3123 139.288 36.0783 137.345C36.8443 135.402 38.1415 133.742 39.8059 132.573C41.4702 131.405 43.427 130.782 45.4287 130.782V141.414Z" fill="white" stroke="#263238" stroke-miterlimit="10"/>
<path d="M45.4287 141.414V130.782C48.1129 130.782 50.6871 131.902 52.5851 133.896C54.4832 135.89 55.5495 138.594 55.5495 141.414H45.4287Z" fill="#0E2DD0" stroke="#263238" stroke-miterlimit="10"/>
<path d="M45.4287 148.538C49.1736 148.538 52.2094 145.348 52.2094 141.414C52.2094 137.48 49.1736 134.291 45.4287 134.291C41.6837 134.291 38.6479 137.48 38.6479 141.414C38.6479 145.348 41.6837 148.538 45.4287 148.538Z" fill="white" stroke="#263238" stroke-miterlimit="10" stroke-linecap="round"/>
<path d="M43.8162 140.048C43.8162 141.404 42.3766 141.893 42.3766 142.932V143.002H43.7826V143.456H41.9063V143.073C41.9063 141.621 43.3459 141.333 43.3459 140.048C43.3459 139.584 43.1972 139.342 42.8661 139.342C42.5349 139.342 42.3862 139.604 42.3862 140.003V140.401H41.9399V140.038C41.9399 139.347 42.2374 138.893 42.8996 138.893C43.5619 138.893 43.8162 139.362 43.8162 140.048Z" fill="#263238"/>
<path d="M44.7376 140.789C44.7994 140.671 44.8915 140.573 45.0035 140.507C45.1155 140.441 45.2428 140.41 45.371 140.416C45.9229 140.416 46.1676 140.839 46.1676 141.485V142.362C46.1676 143.052 45.8557 143.501 45.2079 143.501C44.56 143.501 44.2481 143.052 44.2481 142.362V142.064H44.6992V142.397C44.6992 142.8 44.8576 143.047 45.1791 143.047C45.5006 143.047 45.683 142.8 45.683 142.397V141.52C45.683 141.117 45.5246 140.875 45.1791 140.875C45.0559 140.874 44.9373 140.924 44.848 141.013C44.7586 141.102 44.7054 141.224 44.6992 141.354V141.459H44.2529L44.3729 138.939H46.0861V139.387H44.824L44.7376 140.789Z" fill="#263238"/>
<path d="M47.8281 139.66V141.076C47.8281 141.515 47.6313 141.807 47.2138 141.807C46.7963 141.807 46.6044 141.515 46.6044 141.076V139.66C46.6044 139.226 46.8011 138.929 47.2138 138.929C47.6265 138.929 47.8281 139.226 47.8281 139.66ZM46.9115 139.66V141.127C46.9115 141.369 46.9931 141.53 47.2138 141.53C47.4346 141.53 47.521 141.369 47.521 141.127V139.66C47.521 139.413 47.4298 139.246 47.2138 139.246C46.9979 139.246 46.9115 139.393 46.9115 139.64V139.66ZM49.2437 138.979L47.5545 143.476H47.2666L48.9654 138.959L49.2437 138.979ZM49.9252 141.329V142.745C49.9252 143.184 49.7332 143.471 49.3109 143.471C48.8886 143.471 48.7015 143.184 48.7015 142.745V141.329C48.7015 140.9 48.8934 140.613 49.3109 140.613C49.7284 140.613 49.9252 140.905 49.9252 141.329ZM49.0038 141.329V142.786C49.0038 143.033 49.095 143.199 49.3109 143.199C49.5269 143.199 49.618 143.033 49.618 142.786V141.329C49.618 141.082 49.5269 140.92 49.3109 140.92C49.095 140.92 49.0134 141.071 49.0134 141.329H49.0038Z" fill="#263238"/>
<path d="M39.4973 155.011H52.0798" stroke="#263238" stroke-miterlimit="10"/>
<path d="M47.2666 156.806H52.0799" stroke="#263238" stroke-miterlimit="10"/>
<path d="M39.4973 156.806H45.7118" stroke="#263238" stroke-miterlimit="10"/>
<path d="M39.4973 158.6H52.0798" stroke="#263238" stroke-miterlimit="10"/>
<path d="M43.6915 160.395H52.0799" stroke="#263238" stroke-miterlimit="10"/>
<path d="M39.4973 160.395H42.295" stroke="#263238" stroke-miterlimit="10"/>
<path d="M83.0372 141.414L88.983 150.015C86.8111 151.672 84.1014 152.355 81.4501 151.913C78.7989 151.472 76.4231 149.942 74.8456 147.66C73.268 145.379 72.6179 142.532 73.0382 139.747C73.4584 136.961 74.9147 134.466 77.0866 132.808C78.8037 131.464 80.8961 130.755 83.0372 130.792V141.414Z" fill="white" stroke="#263238" stroke-miterlimit="10"/>
<path d="M83.0372 141.414V130.782C85.7214 130.782 88.2957 131.902 90.1937 133.896C92.0917 135.89 93.158 138.594 93.158 141.414C93.1831 143.097 92.8158 144.76 92.088 146.26C91.3603 147.759 90.2942 149.048 88.983 150.015L83.0372 141.414Z" fill="#263238" stroke="#263238" stroke-miterlimit="10"/>
<path d="M83.0372 148.538C86.7822 148.538 89.818 145.348 89.818 141.414C89.818 137.48 86.7822 134.291 83.0372 134.291C79.2923 134.291 76.2565 137.48 76.2565 141.414C76.2565 145.348 79.2923 148.538 83.0372 148.538Z" fill="white" stroke="#263238" stroke-miterlimit="10" stroke-linecap="round"/>
<path d="M81.0841 142.554V143.456H80.6042V142.554H79.2221V142.095L80.5466 138.959H81.0697V142.095H81.4104V142.554H81.0841ZM79.6732 142.095H80.633V139.897L79.6732 142.095Z" fill="#263238"/>
<path d="M81.7559 140.043C81.7559 139.357 82.0822 138.913 82.7157 138.913C82.8544 138.908 82.9926 138.934 83.1208 138.99C83.2489 139.046 83.364 139.131 83.4579 139.238C83.5519 139.346 83.6226 139.473 83.6651 139.612C83.7077 139.751 83.721 139.898 83.7043 140.043V142.362C83.7043 143.052 83.3779 143.501 82.7157 143.501C82.0534 143.501 81.7559 143.052 81.7559 142.362V140.043ZM82.2358 142.397C82.2358 142.8 82.4038 143.047 82.7445 143.047C83.0852 143.047 83.2532 142.8 83.2532 142.397V140.017C83.2532 139.604 83.0948 139.362 82.7445 139.362C82.3942 139.362 82.2358 139.604 82.2358 140.017V142.397Z" fill="#263238"/>
<path d="M85.3742 139.66V141.076C85.3742 141.515 85.1775 141.807 84.76 141.807C84.3425 141.807 84.1505 141.515 84.1505 141.076V139.66C84.1505 139.226 84.3473 138.929 84.76 138.929C85.1727 138.929 85.3742 139.226 85.3742 139.66ZM84.4577 139.66V141.127C84.4577 141.369 84.5392 141.53 84.76 141.53C84.9807 141.53 85.0671 141.369 85.0671 141.127V139.66C85.0671 139.413 84.9759 139.246 84.76 139.246C84.544 139.246 84.4769 139.393 84.4769 139.64L84.4577 139.66ZM86.7899 138.979L85.1007 143.476H84.8128L86.502 138.979H86.7899ZM87.4809 141.354V142.77C87.4809 143.209 87.289 143.496 86.8667 143.496C86.4444 143.496 86.2572 143.209 86.2572 142.77V141.329C86.2572 140.9 86.4492 140.613 86.8667 140.613C87.2842 140.613 87.4809 140.905 87.4809 141.329V141.354ZM86.5596 141.354V142.811C86.5596 143.058 86.6507 143.224 86.8667 143.224C87.0826 143.224 87.1738 143.058 87.1738 142.811V141.329C87.1738 141.082 87.0826 140.92 86.8667 140.92C86.6507 140.92 86.5596 141.071 86.5596 141.329V141.354Z" fill="#263238"/>
<path d="M76.8419 155.011H89.4245" stroke="#263238" stroke-miterlimit="10"/>
<path d="M84.6064 156.806H89.4245" stroke="#263238" stroke-miterlimit="10"/>
<path d="M76.8419 156.806H83.0564" stroke="#263238" stroke-miterlimit="10"/>
<path d="M76.8419 158.6H89.4245" stroke="#263238" stroke-miterlimit="10"/>
<path d="M81.0361 160.395H89.4245" stroke="#263238" stroke-miterlimit="10"/>
<path d="M76.8419 160.395H79.6396" stroke="#263238" stroke-miterlimit="10"/>
<path d="M120.655 141.414L111.029 144.696C110.618 143.368 110.46 141.968 110.564 140.576C110.668 139.185 111.032 137.828 111.636 136.584C112.239 135.34 113.07 134.233 114.081 133.327C115.092 132.42 116.262 131.732 117.527 131.301C118.536 130.952 119.593 130.782 120.655 130.797V141.414Z" fill="white" stroke="#263238" stroke-miterlimit="10"/>
<path d="M120.655 141.414V130.782C121.984 130.782 123.301 131.057 124.528 131.591C125.756 132.126 126.872 132.909 127.812 133.896C128.752 134.883 129.497 136.055 130.006 137.345C130.514 138.635 130.776 140.018 130.776 141.414C130.776 142.81 130.514 144.193 130.006 145.483C129.497 146.773 128.752 147.945 127.812 148.932C126.872 149.92 125.756 150.703 124.528 151.237C123.301 151.771 121.984 152.046 120.655 152.046C118.512 152.072 116.417 151.37 114.683 150.046C112.949 148.722 111.668 146.846 111.029 144.696L120.655 141.414Z" fill="#0E2DD0" stroke="#263238" stroke-miterlimit="10"/>
<path d="M120.651 148.538C124.395 148.538 127.431 145.348 127.431 141.414C127.431 137.48 124.395 134.291 120.651 134.291C116.906 134.291 113.87 137.48 113.87 141.414C113.87 145.348 116.906 148.538 120.651 148.538Z" fill="white" stroke="#263238" stroke-miterlimit="10" stroke-linecap="round"/>
<path d="M118.227 139.408H116.787V138.959H118.707V139.393L117.589 143.456H117.109L118.227 139.408Z" fill="#263238"/>
<path d="M119.134 140.043C119.134 139.357 119.456 138.914 120.094 138.914C120.732 138.914 121.078 139.357 121.078 140.043V142.362C121.078 143.053 120.751 143.501 120.094 143.501C119.436 143.501 119.134 143.053 119.134 142.362V140.043ZM119.614 142.397C119.614 142.801 119.777 143.048 120.123 143.048C120.468 143.048 120.631 142.801 120.631 142.397V140.018C120.631 139.604 120.468 139.363 120.123 139.363C119.777 139.363 119.614 139.604 119.614 140.018V142.397Z" fill="#263238"/>
<path d="M122.748 139.66V141.076C122.748 141.515 122.556 141.807 122.138 141.807C121.721 141.807 121.524 141.515 121.524 141.076V139.66C121.524 139.226 121.721 138.929 122.138 138.929C122.556 138.929 122.748 139.226 122.748 139.66ZM121.831 139.66V141.127C121.831 141.369 121.917 141.53 122.138 141.53C122.359 141.53 122.445 141.369 122.445 141.127V139.66C122.445 139.413 122.349 139.246 122.138 139.246C121.927 139.246 121.831 139.393 121.831 139.64V139.66ZM124.163 138.979L122.474 143.476H122.186L123.875 138.979H124.163ZM124.854 141.354V142.77C124.854 143.209 124.667 143.496 124.245 143.496C123.823 143.496 123.631 143.209 123.631 142.77V141.329C123.631 140.9 123.827 140.613 124.245 140.613C124.662 140.613 124.854 140.905 124.854 141.329V141.354ZM123.938 141.354V142.811C123.938 143.058 124.029 143.224 124.245 143.224C124.461 143.224 124.547 143.058 124.547 142.811V141.329C124.547 141.082 124.456 140.92 124.245 140.92C124.034 140.92 123.938 141.071 123.938 141.329V141.354Z" fill="#263238"/>
<path d="M114.191 155.011H126.774" stroke="#263238" stroke-miterlimit="10"/>
<path d="M121.961 156.806H126.774" stroke="#263238" stroke-miterlimit="10"/>
<path d="M114.191 156.806H120.406" stroke="#263238" stroke-miterlimit="10"/>
<path d="M114.191 158.6H126.774" stroke="#263238" stroke-miterlimit="10"/>
<path d="M118.385 160.395H126.774" stroke="#263238" stroke-miterlimit="10"/>
<path d="M114.191 160.395H116.989" stroke="#263238" stroke-miterlimit="10"/>
<path d="M158.264 141.414L150.077 135.163C150.998 133.787 152.226 132.668 153.653 131.904C155.08 131.141 156.663 130.755 158.264 130.782V141.414Z" fill="white" stroke="#263238" stroke-miterlimit="10"/>
<path d="M158.264 141.414V130.782C160.266 130.782 162.222 131.405 163.887 132.574C165.551 133.742 166.848 135.403 167.614 137.345C168.38 139.288 168.581 141.426 168.19 143.488C167.8 145.551 166.836 147.445 165.42 148.932C164.005 150.419 162.202 151.432 160.238 151.842C158.275 152.252 156.24 152.042 154.391 151.237C152.542 150.432 150.961 149.07 149.849 147.321C148.737 145.573 148.143 143.517 148.143 141.414C148.109 139.165 148.784 136.967 150.063 135.163L158.264 141.414Z" fill="#263238" stroke="#263238" stroke-miterlimit="10"/>
<path d="M158.264 148.538C162.009 148.538 165.045 145.348 165.045 141.414C165.045 137.48 162.009 134.291 158.264 134.291C154.519 134.291 151.483 137.48 151.483 141.414C151.483 145.348 154.519 148.538 158.264 148.538Z" fill="white" stroke="#263238" stroke-miterlimit="10" stroke-linecap="round"/>
<path d="M157.011 140.023V140.164C157.037 140.352 157.003 140.544 156.917 140.711C156.831 140.878 156.696 141.011 156.532 141.092C156.698 141.176 156.834 141.314 156.921 141.485C157.007 141.657 157.039 141.853 157.011 142.045V142.377C157.021 142.523 157.002 142.669 156.956 142.806C156.909 142.944 156.836 143.07 156.741 143.176C156.647 143.283 156.532 143.368 156.405 143.426C156.277 143.484 156.14 143.514 156.001 143.514C155.862 143.514 155.725 143.484 155.598 143.426C155.47 143.368 155.356 143.283 155.261 143.176C155.166 143.07 155.093 142.944 155.047 142.806C155.001 142.669 154.982 142.523 154.991 142.377V142.045C154.964 141.853 154.997 141.657 155.083 141.486C155.169 141.314 155.305 141.176 155.471 141.092C155.306 141.013 155.17 140.88 155.083 140.712C154.997 140.545 154.964 140.352 154.991 140.164V140.023C154.982 139.877 155.001 139.731 155.047 139.594C155.093 139.456 155.166 139.331 155.261 139.224C155.356 139.117 155.47 139.032 155.598 138.974C155.725 138.916 155.862 138.886 156.001 138.886C156.14 138.886 156.277 138.916 156.405 138.974C156.532 139.032 156.647 139.117 156.741 139.224C156.836 139.331 156.909 139.456 156.956 139.594C157.002 139.731 157.021 139.877 157.011 140.023ZM155.461 140.023V140.24C155.461 140.678 155.663 140.87 155.999 140.87C156.335 140.87 156.541 140.678 156.541 140.24V140.023C156.541 139.559 156.335 139.347 155.999 139.347C155.663 139.347 155.461 139.574 155.461 140.038V140.023ZM155.461 141.969V142.347C155.461 142.811 155.658 143.033 155.999 143.033C156.34 143.033 156.532 142.811 156.541 142.347V141.969C156.541 141.535 156.354 141.319 155.999 141.319C155.644 141.319 155.461 141.55 155.461 141.984V141.969Z" fill="#263238"/>
<path d="M157.923 140.789C157.986 140.671 158.078 140.575 158.19 140.509C158.302 140.443 158.429 140.411 158.557 140.416C159.109 140.416 159.353 140.839 159.353 141.485V142.362C159.353 143.052 159.041 143.501 158.394 143.501C157.746 143.501 157.434 143.052 157.434 142.362V142.064H157.899V142.397C157.899 142.8 158.058 143.047 158.379 143.047C158.701 143.047 158.883 142.8 158.883 142.397V141.52C158.883 141.117 158.725 140.875 158.379 140.875C158.256 140.874 158.137 140.924 158.048 141.013C157.959 141.102 157.905 141.224 157.899 141.354V141.459H157.453L157.573 138.939H159.262V139.387H158L157.923 140.789Z" fill="#263238"/>
<path d="M161.014 139.66V141.076C161.014 141.515 160.817 141.807 160.399 141.807C159.982 141.807 159.79 141.515 159.79 141.076V139.66C159.79 139.226 159.987 138.929 160.399 138.929C160.812 138.929 161.014 139.226 161.014 139.66ZM160.097 139.66V141.127C160.097 141.369 160.179 141.53 160.399 141.53C160.62 141.53 160.707 141.369 160.707 141.127V139.66C160.707 139.413 160.615 139.246 160.399 139.246C160.184 139.246 160.097 139.393 160.097 139.64V139.66ZM162.429 138.979L160.74 143.476H160.452L162.141 138.979H162.429ZM163.12 141.354V142.77C163.12 143.209 162.928 143.496 162.506 143.496C162.084 143.496 161.897 143.209 161.897 142.77V141.329C161.897 140.9 162.089 140.613 162.506 140.613C162.924 140.613 163.12 140.905 163.12 141.329V141.354ZM162.218 141.329V142.786C162.218 143.033 162.309 143.199 162.525 143.199C162.741 143.199 162.832 143.033 162.832 142.786V141.329C162.832 141.082 162.741 140.92 162.525 140.92C162.309 140.92 162.218 141.071 162.218 141.329Z" fill="#263238"/>
<path d="M152.184 155.011H164.766" stroke="#263238" stroke-miterlimit="10"/>
<path d="M159.953 156.806H164.766" stroke="#263238" stroke-miterlimit="10"/>
<path d="M152.184 156.806H158.398" stroke="#263238" stroke-miterlimit="10"/>
<path d="M152.184 158.6H164.766" stroke="#263238" stroke-miterlimit="10"/>
<path d="M156.378 160.395H164.766" stroke="#263238" stroke-miterlimit="10"/>
<path d="M152.184 160.395H154.982" stroke="#263238" stroke-miterlimit="10"/>
<path d="M108.303 78.8859C108.493 78.8859 108.679 78.8268 108.836 78.716C108.994 78.6052 109.117 78.4478 109.19 78.2635C109.263 78.0793 109.282 77.8765 109.245 77.681C109.208 77.4854 109.116 77.3057 108.982 77.1647C108.848 77.0237 108.677 76.9277 108.49 76.8888C108.304 76.8499 108.111 76.8698 107.936 76.9461C107.761 77.0224 107.611 77.1517 107.505 77.3175C107.4 77.4833 107.343 77.6782 107.343 77.8777C107.343 78.1451 107.445 78.4015 107.625 78.5906C107.805 78.7797 108.049 78.8859 108.303 78.8859Z" fill="#263238"/>
<path d="M110.899 82.7325L109.412 79.6774C109.374 79.6011 109.316 79.5383 109.244 79.497C109.172 79.4557 109.09 79.4378 109.009 79.4455H108.961H107.641H107.598C107.516 79.4375 107.433 79.4552 107.36 79.4965C107.288 79.5377 107.228 79.6007 107.19 79.6774L105.707 82.7325C105.678 82.7829 105.659 82.8391 105.651 82.8976C105.643 82.9561 105.647 83.0156 105.663 83.0724C105.678 83.1292 105.704 83.1821 105.74 83.2277C105.775 83.2734 105.82 83.3108 105.87 83.3376C105.92 83.3644 105.975 83.3801 106.031 83.3836C106.087 83.3871 106.143 83.3784 106.196 83.3581C106.249 83.3377 106.297 83.3061 106.337 83.2652C106.378 83.2244 106.41 83.1752 106.432 83.1207L107.295 81.3461V88.0814C107.295 88.1897 107.336 88.2936 107.409 88.3702C107.482 88.4467 107.581 88.4898 107.684 88.4898C107.787 88.4898 107.886 88.4467 107.959 88.3702C108.032 88.2936 108.073 88.1897 108.073 88.0814V83.4584H108.553V88.0814C108.553 88.1897 108.594 88.2936 108.667 88.3702C108.739 88.4467 108.838 88.4898 108.941 88.4898C109.045 88.4898 109.143 88.4467 109.216 88.3702C109.289 88.2936 109.33 88.1897 109.33 88.0814V81.336L110.194 83.1106C110.218 83.1609 110.251 83.2058 110.292 83.2425C110.332 83.2792 110.379 83.307 110.43 83.3244C110.481 83.3418 110.535 83.3483 110.588 83.3436C110.642 83.3389 110.694 83.3231 110.741 83.2971C110.831 83.2421 110.898 83.1529 110.927 83.0479C110.957 82.9429 110.947 82.83 110.899 82.7325Z" fill="#263238"/>
<path d="M113.803 78.8859C113.992 78.8859 114.178 78.8268 114.336 78.716C114.494 78.6052 114.617 78.4478 114.689 78.2635C114.762 78.0793 114.781 77.8765 114.744 77.681C114.707 77.4854 114.616 77.3057 114.481 77.1647C114.347 77.0237 114.176 76.9277 113.99 76.8888C113.804 76.8499 113.611 76.8698 113.435 76.9461C113.26 77.0224 113.11 77.1517 113.005 77.3175C112.899 77.4833 112.843 77.6782 112.843 77.8777C112.843 78.1451 112.944 78.4015 113.124 78.5906C113.304 78.7797 113.548 78.8859 113.803 78.8859Z" fill="#263238"/>
<path d="M116.399 82.7326L114.911 79.6775C114.874 79.6008 114.816 79.5376 114.744 79.4963C114.672 79.4549 114.59 79.4373 114.508 79.4456H114.46H113.145H113.097C113.016 79.4373 112.934 79.4549 112.862 79.4963C112.79 79.5376 112.731 79.6008 112.694 79.6775L111.207 82.7326C111.177 82.783 111.158 82.8392 111.15 82.8977C111.143 82.9562 111.147 83.0157 111.162 83.0725C111.177 83.1294 111.204 83.1823 111.239 83.2279C111.275 83.2735 111.319 83.3109 111.369 83.3377C111.419 83.3646 111.474 83.3802 111.53 83.3838C111.586 83.3873 111.643 83.3786 111.695 83.3582C111.748 83.3378 111.796 83.3062 111.837 83.2654C111.877 83.2245 111.91 83.1753 111.931 83.1208L112.79 81.3362V88.0715C112.784 88.1286 112.79 88.1864 112.806 88.2411C112.823 88.2958 112.85 88.3462 112.887 88.389C112.923 88.4318 112.968 88.4661 113.018 88.4895C113.068 88.513 113.122 88.5251 113.176 88.5251C113.231 88.5251 113.285 88.513 113.335 88.4895C113.385 88.4661 113.43 88.4318 113.466 88.389C113.503 88.3462 113.53 88.2958 113.547 88.2411C113.563 88.1864 113.569 88.1286 113.563 88.0715V83.4485H114.043V88.0715C114.043 88.1798 114.084 88.2836 114.156 88.3602C114.229 88.4368 114.328 88.4798 114.431 88.4798C114.534 88.4798 114.633 88.4368 114.706 88.3602C114.779 88.2836 114.82 88.1798 114.82 88.0715V81.3362L115.684 83.1107C115.737 83.2029 115.822 83.2704 115.921 83.2997C116.02 83.3291 116.126 83.3182 116.217 83.2691C116.309 83.2201 116.379 83.1365 116.415 83.0352C116.45 82.9339 116.448 82.8222 116.408 82.7225L116.399 82.7326Z" fill="#263238"/>
<path d="M119.307 78.8859C119.834 78.8859 120.262 78.4367 120.262 77.8826C120.262 77.3286 119.834 76.8794 119.307 76.8794C118.78 76.8794 118.352 77.3286 118.352 77.8826C118.352 78.4367 118.78 78.8859 119.307 78.8859Z" fill="#263238"/>
<path d="M121.908 82.7323L120.425 79.6772C120.387 79.6014 120.328 79.539 120.257 79.4978C120.185 79.4566 120.103 79.4383 120.022 79.4453H119.974H118.645H118.597C118.515 79.4377 118.433 79.4556 118.362 79.4969C118.29 79.5382 118.231 79.601 118.194 79.6772L116.706 82.7323C116.657 82.8339 116.648 82.9518 116.682 83.0601C116.716 83.1684 116.789 83.2581 116.886 83.3096C116.983 83.361 117.095 83.37 117.198 83.3346C117.301 83.2991 117.386 83.2221 117.435 83.1205L118.299 81.3459V88.0812C118.299 88.1896 118.34 88.2934 118.413 88.37C118.486 88.4466 118.585 88.4896 118.688 88.4896C118.791 88.4896 118.89 88.4466 118.963 88.37C119.036 88.2934 119.077 88.1896 119.077 88.0812V83.4583H119.533V88.0812C119.533 88.1896 119.573 88.2934 119.646 88.37C119.719 88.4466 119.818 88.4896 119.921 88.4896C120.024 88.4896 120.123 88.4466 120.196 88.37C120.269 88.2934 120.31 88.1896 120.31 88.0812V81.3359L121.174 83.1104C121.227 83.2026 121.312 83.2701 121.411 83.2994C121.51 83.3288 121.616 83.3179 121.707 83.2688C121.799 83.2198 121.869 83.1362 121.905 83.0349C121.94 82.9336 121.938 82.8219 121.898 82.7222L121.908 82.7323Z" fill="#263238"/>
<path d="M108.303 91.9682C108.493 91.9682 108.679 91.9091 108.836 91.7983C108.994 91.6875 109.117 91.53 109.19 91.3458C109.263 91.1615 109.282 90.9588 109.245 90.7632C109.208 90.5676 109.116 90.388 108.982 90.247C108.848 90.106 108.677 90.0099 108.49 89.971C108.304 89.9321 108.111 89.9521 107.936 90.0284C107.761 90.1047 107.611 90.234 107.505 90.3998C107.4 90.5656 107.343 90.7605 107.343 90.9599C107.343 91.2273 107.445 91.4838 107.625 91.6729C107.805 91.862 108.049 91.9682 108.303 91.9682Z" fill="#263238"/>
<path d="M110.899 95.8101L109.412 92.7551C109.374 92.6788 109.316 92.6163 109.244 92.5758C109.172 92.5353 109.09 92.5187 109.009 92.5282H108.961H107.641H107.598C107.516 92.5183 107.433 92.5347 107.36 92.5752C107.287 92.6157 107.228 92.6784 107.19 92.7551L105.707 95.8101C105.681 95.8603 105.665 95.9153 105.659 95.9721C105.654 96.0289 105.659 96.0863 105.675 96.1409C105.691 96.1955 105.717 96.2462 105.752 96.29C105.787 96.3339 105.829 96.37 105.878 96.3962C105.926 96.4224 105.979 96.4382 106.033 96.4426C106.087 96.4471 106.142 96.4402 106.193 96.4222C106.245 96.4042 106.293 96.3756 106.333 96.338C106.374 96.3005 106.408 96.2547 106.432 96.2034L107.295 94.4238V101.164C107.295 101.272 107.336 101.376 107.409 101.453C107.482 101.529 107.581 101.572 107.684 101.572C107.787 101.572 107.886 101.529 107.959 101.453C108.032 101.376 108.073 101.272 108.073 101.164V96.5411H108.553V101.164C108.553 101.272 108.594 101.376 108.667 101.453C108.739 101.529 108.838 101.572 108.941 101.572C109.044 101.572 109.143 101.529 109.216 101.453C109.289 101.376 109.33 101.272 109.33 101.164V94.4439L110.194 96.2235C110.243 96.3242 110.328 96.4004 110.431 96.4353C110.533 96.4703 110.645 96.4612 110.741 96.4101C110.789 96.3823 110.832 96.3445 110.867 96.299C110.901 96.2535 110.926 96.2013 110.941 96.1453C110.956 96.0894 110.96 96.0309 110.953 95.9733C110.945 95.9157 110.927 95.8602 110.899 95.8101Z" fill="#263238"/>
<path d="M113.803 91.9682C113.992 91.9682 114.178 91.9091 114.336 91.7983C114.494 91.6875 114.617 91.53 114.689 91.3458C114.762 91.1615 114.781 90.9588 114.744 90.7632C114.707 90.5676 114.616 90.388 114.481 90.247C114.347 90.106 114.176 90.0099 113.99 89.971C113.804 89.9321 113.611 89.9521 113.435 90.0284C113.26 90.1047 113.11 90.234 113.005 90.3998C112.899 90.5656 112.843 90.7605 112.843 90.9599C112.843 91.2273 112.944 91.4838 113.124 91.6729C113.304 91.862 113.548 91.9682 113.803 91.9682Z" fill="#263238"/>
<path d="M116.399 95.8097L114.911 92.7546C114.874 92.6779 114.816 92.615 114.744 92.5744C114.672 92.5338 114.589 92.5175 114.508 92.5278H114.46H113.145H113.097C113.016 92.5175 112.934 92.5338 112.862 92.5744C112.789 92.615 112.731 92.6779 112.694 92.7546L111.207 95.8097C111.158 95.9115 111.149 96.0294 111.182 96.1379C111.215 96.2464 111.288 96.3368 111.384 96.3895C111.48 96.4406 111.592 96.4497 111.694 96.4148C111.797 96.3798 111.882 96.3037 111.931 96.203L112.79 94.4435V101.184C112.801 101.284 112.846 101.376 112.917 101.443C112.989 101.51 113.081 101.547 113.176 101.547C113.272 101.547 113.364 101.51 113.436 101.443C113.507 101.376 113.552 101.284 113.563 101.184V96.5609H114.043V101.184C114.043 101.292 114.084 101.396 114.156 101.473C114.229 101.549 114.328 101.592 114.431 101.592C114.534 101.592 114.633 101.549 114.706 101.473C114.779 101.396 114.82 101.292 114.82 101.184V94.4435L115.684 96.2231C115.733 96.3238 115.818 96.4 115.921 96.4349C116.023 96.4699 116.135 96.4608 116.231 96.4096C116.28 96.3827 116.324 96.3456 116.359 96.3005C116.395 96.2554 116.421 96.2033 116.437 96.1473C116.452 96.0912 116.457 96.0325 116.45 95.9745C116.444 95.9165 116.426 95.8604 116.399 95.8097Z" fill="#263238"/>
<path d="M119.307 91.9633C119.834 91.9633 120.262 91.5141 120.262 90.96C120.262 90.4059 119.834 89.9568 119.307 89.9568C118.78 89.9568 118.352 90.4059 118.352 90.96C118.352 91.5141 118.78 91.9633 119.307 91.9633Z" fill="#263238"/>
<path d="M121.908 95.81L120.425 92.7549C120.388 92.6786 120.329 92.6161 120.257 92.5756C120.185 92.5351 120.103 92.5185 120.022 92.528H119.974H118.645H118.597C118.516 92.5185 118.434 92.5351 118.362 92.5756C118.29 92.6161 118.231 92.6786 118.194 92.7549L116.706 95.81C116.658 95.9119 116.65 96.0294 116.683 96.1375C116.716 96.2456 116.788 96.3361 116.884 96.3897C116.98 96.4411 117.093 96.4503 117.196 96.4154C117.299 96.3805 117.385 96.3043 117.435 96.2032L118.299 94.4236V101.164C118.299 101.272 118.34 101.376 118.413 101.453C118.486 101.529 118.585 101.572 118.688 101.572C118.791 101.572 118.89 101.529 118.963 101.453C119.036 101.376 119.077 101.272 119.077 101.164V96.541H119.533V101.164C119.533 101.272 119.573 101.376 119.646 101.453C119.719 101.529 119.818 101.572 119.921 101.572C120.024 101.572 120.123 101.529 120.196 101.453C120.269 101.376 120.31 101.272 120.31 101.164V94.4437L121.174 96.2234C121.198 96.2747 121.231 96.3205 121.272 96.358C121.313 96.3956 121.36 96.4242 121.412 96.4422C121.464 96.4601 121.518 96.4671 121.572 96.4626C121.626 96.4581 121.679 96.4423 121.727 96.4161C121.776 96.3899 121.819 96.3539 121.853 96.31C121.888 96.2662 121.914 96.2155 121.93 96.1609C121.946 96.1063 121.952 96.0489 121.946 95.9921C121.941 95.9353 121.924 95.8802 121.898 95.8301L121.908 95.81Z" fill="#263238"/>
<path d="M124.806 91.9633C125.334 91.9633 125.761 91.5141 125.761 90.96C125.761 90.4059 125.334 89.9568 124.806 89.9568C124.279 89.9568 123.851 90.4059 123.851 90.96C123.851 91.5141 124.279 91.9633 124.806 91.9633Z" fill="#263238"/>
<path d="M127.403 95.8097L125.915 92.7546C125.878 92.6779 125.82 92.615 125.747 92.5744C125.675 92.5338 125.593 92.5175 125.512 92.5278H125.464H124.149H124.101C124.02 92.5175 123.937 92.5338 123.865 92.5744C123.793 92.615 123.735 92.6779 123.698 92.7546L122.21 95.8097C122.161 95.9115 122.153 96.0294 122.186 96.1379C122.219 96.2464 122.292 96.3368 122.388 96.3895C122.484 96.4406 122.595 96.4497 122.698 96.4148C122.8 96.3798 122.886 96.3037 122.935 96.203L123.827 94.4435V101.184C123.838 101.284 123.883 101.376 123.955 101.443C124.026 101.51 124.118 101.547 124.214 101.547C124.309 101.547 124.402 101.51 124.473 101.443C124.544 101.376 124.589 101.284 124.6 101.184V96.5609H125.08V101.184C125.091 101.284 125.136 101.376 125.207 101.443C125.278 101.51 125.371 101.547 125.466 101.547C125.562 101.547 125.654 101.51 125.725 101.443C125.797 101.376 125.842 101.284 125.853 101.184V94.4435L126.716 96.2231C126.766 96.3247 126.852 96.4015 126.956 96.4365C127.059 96.4714 127.171 96.4618 127.268 96.4096C127.365 96.3575 127.438 96.2671 127.471 96.1584C127.505 96.0497 127.495 95.9315 127.446 95.8299L127.403 95.8097Z" fill="#263238"/>
<path d="M130.306 91.9682C130.496 91.9682 130.681 91.9091 130.839 91.7983C130.997 91.6875 131.12 91.53 131.193 91.3458C131.265 91.1615 131.284 90.9588 131.247 90.7632C131.21 90.5676 131.119 90.388 130.985 90.247C130.85 90.106 130.679 90.0099 130.493 89.971C130.307 89.9321 130.114 89.9521 129.939 90.0284C129.763 90.1047 129.613 90.234 129.508 90.3998C129.402 90.5656 129.346 90.7605 129.346 90.9599C129.346 91.2273 129.447 91.4838 129.627 91.6729C129.807 91.862 130.051 91.9682 130.306 91.9682Z" fill="#263238"/>
<path d="M132.902 95.8101L131.419 92.7551C131.381 92.6784 131.322 92.6157 131.249 92.5752C131.176 92.5347 131.093 92.5183 131.011 92.5282H130.968H129.648H129.6C129.519 92.5187 129.437 92.5353 129.365 92.5758C129.293 92.6163 129.235 92.6788 129.197 92.7551L127.71 95.8101C127.662 95.9121 127.654 96.0295 127.687 96.1377C127.72 96.2458 127.792 96.3362 127.887 96.3899C127.984 96.4413 128.096 96.4505 128.2 96.4156C128.303 96.3807 128.389 96.3044 128.439 96.2034L129.303 94.4238V101.164C129.303 101.272 129.344 101.376 129.417 101.453C129.49 101.529 129.589 101.572 129.692 101.572C129.795 101.572 129.894 101.529 129.966 101.453C130.039 101.376 130.08 101.272 130.08 101.164V96.5411H130.56V101.164C130.56 101.272 130.601 101.376 130.674 101.453C130.747 101.529 130.846 101.572 130.949 101.572C131.052 101.572 131.151 101.529 131.224 101.453C131.297 101.376 131.338 101.272 131.338 101.164V94.4439L132.201 96.2235C132.225 96.2748 132.259 96.3206 132.3 96.3582C132.34 96.3958 132.388 96.4244 132.44 96.4424C132.491 96.4603 132.546 96.4673 132.6 96.4628C132.654 96.4583 132.707 96.4425 132.755 96.4163C132.803 96.3901 132.846 96.354 132.881 96.3102C132.916 96.2664 132.942 96.2157 132.958 96.1611C132.974 96.1065 132.979 96.0491 132.974 95.9923C132.968 95.9355 132.952 95.8804 132.926 95.8303L132.902 95.8101Z" fill="#263238"/>
<path d="M108.303 104.94C108.493 104.94 108.679 104.881 108.836 104.77C108.994 104.659 109.117 104.502 109.19 104.317C109.263 104.133 109.282 103.93 109.245 103.735C109.208 103.539 109.116 103.36 108.982 103.219C108.848 103.078 108.677 102.982 108.49 102.943C108.304 102.904 108.111 102.924 107.936 103C107.761 103.076 107.611 103.206 107.505 103.371C107.4 103.537 107.343 103.732 107.343 103.932C107.343 104.199 107.445 104.455 107.625 104.645C107.805 104.834 108.049 104.94 108.303 104.94Z" fill="#0E2DD0" stroke="#263238" stroke-miterlimit="10"/>
<path d="M110.899 108.781L109.412 105.731C109.375 105.654 109.317 105.59 109.245 105.548C109.173 105.507 109.09 105.49 109.009 105.499H108.961H107.641H107.598C107.515 105.489 107.432 105.506 107.359 105.548C107.286 105.589 107.227 105.653 107.19 105.731L105.707 108.781C105.681 108.832 105.665 108.887 105.659 108.943C105.654 109 105.659 109.058 105.675 109.112C105.691 109.167 105.717 109.217 105.752 109.261C105.787 109.305 105.829 109.341 105.878 109.367C105.926 109.394 105.979 109.409 106.033 109.414C106.087 109.418 106.142 109.411 106.193 109.393C106.245 109.376 106.293 109.347 106.333 109.309C106.374 109.272 106.408 109.226 106.432 109.175L107.295 107.395V114.135C107.295 114.244 107.336 114.348 107.409 114.424C107.482 114.501 107.581 114.544 107.684 114.544C107.787 114.544 107.886 114.501 107.959 114.424C108.032 114.348 108.073 114.244 108.073 114.135V109.512H108.553V114.135C108.553 114.244 108.594 114.348 108.667 114.424C108.739 114.501 108.838 114.544 108.941 114.544C109.044 114.544 109.143 114.501 109.216 114.424C109.289 114.348 109.33 114.244 109.33 114.135V107.4L110.194 109.175C110.243 109.275 110.328 109.351 110.431 109.386C110.533 109.421 110.645 109.412 110.741 109.361C110.834 109.305 110.902 109.213 110.932 109.105C110.961 108.997 110.95 108.881 110.899 108.781Z" fill="#0E2DD0" stroke="#263238" stroke-miterlimit="10"/>
<path d="M113.803 104.94C113.992 104.94 114.178 104.881 114.336 104.77C114.494 104.659 114.617 104.502 114.689 104.317C114.762 104.133 114.781 103.93 114.744 103.735C114.707 103.539 114.616 103.36 114.481 103.219C114.347 103.078 114.176 102.982 113.99 102.943C113.804 102.904 113.611 102.924 113.435 103C113.26 103.076 113.11 103.206 113.005 103.371C112.899 103.537 112.843 103.732 112.843 103.932C112.843 104.199 112.944 104.455 113.124 104.645C113.304 104.834 113.548 104.94 113.803 104.94Z" fill="#0E2DD0" stroke="#263238" stroke-miterlimit="10"/>
<path d="M116.399 108.781L114.911 105.731C114.876 105.653 114.818 105.589 114.745 105.547C114.673 105.506 114.59 105.489 114.508 105.499H114.46H113.145H113.097C113.015 105.489 112.932 105.506 112.86 105.547C112.788 105.589 112.73 105.653 112.694 105.731L111.207 108.781C111.158 108.883 111.149 109.001 111.182 109.11C111.215 109.218 111.288 109.308 111.384 109.361C111.48 109.412 111.592 109.421 111.694 109.386C111.797 109.351 111.882 109.275 111.931 109.175L112.8 107.395V114.135C112.794 114.192 112.799 114.25 112.816 114.305C112.832 114.36 112.86 114.41 112.896 114.453C112.933 114.496 112.977 114.53 113.027 114.553C113.077 114.577 113.131 114.589 113.186 114.589C113.241 114.589 113.295 114.577 113.345 114.553C113.395 114.53 113.439 114.496 113.476 114.453C113.512 114.41 113.54 114.36 113.556 114.305C113.573 114.25 113.578 114.192 113.572 114.135V109.512H114.052V114.135C114.052 114.244 114.093 114.348 114.166 114.424C114.239 114.501 114.338 114.544 114.441 114.544C114.544 114.544 114.643 114.501 114.716 114.424C114.789 114.348 114.83 114.244 114.83 114.135V107.4L115.693 109.175C115.743 109.275 115.828 109.351 115.93 109.386C116.033 109.421 116.144 109.412 116.24 109.361C116.333 109.305 116.402 109.213 116.431 109.105C116.461 108.997 116.449 108.881 116.399 108.781Z" fill="#0E2DD0" stroke="#263238" stroke-miterlimit="10"/>
<path d="M119.307 104.94C119.497 104.94 119.682 104.881 119.84 104.77C119.998 104.659 120.121 104.502 120.194 104.317C120.266 104.133 120.285 103.93 120.248 103.735C120.211 103.539 120.12 103.36 119.986 103.219C119.851 103.078 119.68 102.982 119.494 102.943C119.308 102.904 119.115 102.924 118.94 103C118.764 103.076 118.614 103.206 118.509 103.371C118.403 103.537 118.347 103.732 118.347 103.932C118.347 104.199 118.448 104.455 118.628 104.645C118.808 104.834 119.052 104.94 119.307 104.94Z" fill="#0E2DD0" stroke="#263238" stroke-miterlimit="10"/>
<path d="M121.908 108.781L120.425 105.731C120.388 105.654 120.33 105.59 120.258 105.549C120.186 105.508 120.104 105.49 120.022 105.499H119.974H118.645H118.597C118.515 105.489 118.432 105.506 118.36 105.548C118.288 105.59 118.23 105.654 118.194 105.731L116.706 108.781C116.658 108.883 116.65 109.001 116.683 109.109C116.716 109.217 116.788 109.307 116.884 109.361C116.98 109.412 117.093 109.422 117.196 109.387C117.299 109.352 117.385 109.276 117.435 109.174L118.299 107.395V114.135C118.299 114.244 118.34 114.347 118.413 114.424C118.486 114.501 118.585 114.544 118.688 114.544C118.791 114.544 118.89 114.501 118.963 114.424C119.036 114.347 119.077 114.244 119.077 114.135V109.512H119.533V114.135C119.533 114.244 119.573 114.347 119.646 114.424C119.719 114.501 119.818 114.544 119.921 114.544C120.024 114.544 120.123 114.501 120.196 114.424C120.269 114.347 120.31 114.244 120.31 114.135V107.4L121.174 109.174C121.198 109.226 121.231 109.272 121.272 109.309C121.313 109.347 121.36 109.375 121.412 109.393C121.464 109.411 121.518 109.418 121.572 109.414C121.626 109.409 121.679 109.393 121.727 109.367C121.776 109.341 121.819 109.305 121.853 109.261C121.888 109.217 121.914 109.167 121.93 109.112C121.946 109.057 121.952 109 121.946 108.943C121.941 108.886 121.924 108.831 121.898 108.781H121.908Z" fill="#0E2DD0" stroke="#263238" stroke-miterlimit="10"/>
<path d="M124.787 104.94C124.977 104.94 125.163 104.881 125.32 104.77C125.478 104.659 125.601 104.502 125.674 104.317C125.747 104.133 125.766 103.93 125.729 103.735C125.691 103.539 125.6 103.36 125.466 103.219C125.332 103.078 125.161 102.982 124.974 102.943C124.788 102.904 124.595 102.924 124.42 103C124.245 103.076 124.095 103.206 123.989 103.371C123.884 103.537 123.827 103.732 123.827 103.932C123.827 104.199 123.929 104.455 124.109 104.645C124.289 104.834 124.533 104.94 124.787 104.94Z" fill="#0E2DD0" stroke="#263238" stroke-miterlimit="10"/>
<path d="M127.403 108.781L125.915 105.731C125.879 105.653 125.821 105.589 125.749 105.547C125.677 105.506 125.594 105.489 125.512 105.499H125.464H124.149H124.101C124.019 105.489 123.936 105.506 123.864 105.547C123.792 105.589 123.733 105.653 123.698 105.731L122.21 108.781C122.161 108.883 122.153 109.001 122.186 109.11C122.219 109.218 122.292 109.308 122.388 109.361C122.484 109.412 122.595 109.421 122.698 109.386C122.8 109.351 122.886 109.275 122.935 109.175L123.803 107.395V114.135C123.797 114.192 123.803 114.25 123.819 114.305C123.836 114.36 123.864 114.41 123.9 114.453C123.937 114.496 123.981 114.53 124.031 114.553C124.081 114.577 124.135 114.589 124.19 114.589C124.244 114.589 124.299 114.577 124.348 114.553C124.398 114.53 124.443 114.496 124.479 114.453C124.516 114.41 124.543 114.36 124.56 114.305C124.577 114.25 124.582 114.192 124.576 114.135V109.512H125.056V114.135C125.05 114.192 125.055 114.25 125.072 114.305C125.089 114.36 125.116 114.41 125.153 114.453C125.189 114.496 125.234 114.53 125.284 114.553C125.334 114.577 125.388 114.589 125.442 114.589C125.497 114.589 125.551 114.577 125.601 114.553C125.651 114.53 125.695 114.496 125.732 114.453C125.768 114.41 125.796 114.36 125.813 114.305C125.829 114.25 125.835 114.192 125.829 114.135V107.4L126.692 109.175C126.742 109.276 126.828 109.353 126.932 109.388C127.035 109.423 127.147 109.413 127.244 109.361C127.341 109.309 127.414 109.219 127.447 109.11C127.481 109.001 127.471 108.883 127.422 108.781H127.403Z" fill="#0E2DD0" stroke="#263238" stroke-miterlimit="10"/>
<path d="M130.306 104.94C130.496 104.94 130.681 104.881 130.839 104.77C130.997 104.659 131.12 104.502 131.193 104.317C131.265 104.133 131.284 103.93 131.247 103.735C131.21 103.539 131.119 103.36 130.985 103.219C130.85 103.078 130.679 102.982 130.493 102.943C130.307 102.904 130.114 102.924 129.939 103C129.763 103.076 129.613 103.206 129.508 103.371C129.402 103.537 129.346 103.732 129.346 103.932C129.346 104.199 129.447 104.455 129.627 104.645C129.807 104.834 130.051 104.94 130.306 104.94Z" fill="#0E2DD0" stroke="#263238" stroke-miterlimit="10"/>
<path d="M132.902 108.781L131.419 105.731C131.382 105.653 131.323 105.589 131.25 105.548C131.177 105.506 131.094 105.489 131.011 105.499H130.968H129.648H129.6C129.519 105.49 129.436 105.507 129.364 105.548C129.292 105.59 129.234 105.654 129.197 105.731L127.71 108.781C127.662 108.883 127.654 109.001 127.687 109.109C127.72 109.217 127.792 109.308 127.887 109.361C127.984 109.413 128.096 109.422 128.2 109.387C128.303 109.352 128.389 109.276 128.439 109.175L129.303 107.395V114.135C129.303 114.244 129.344 114.348 129.417 114.424C129.49 114.501 129.589 114.544 129.692 114.544C129.795 114.544 129.894 114.501 129.966 114.424C130.039 114.348 130.08 114.244 130.08 114.135V109.512H130.56V114.135C130.56 114.244 130.601 114.348 130.674 114.424C130.747 114.501 130.846 114.544 130.949 114.544C131.052 114.544 131.151 114.501 131.224 114.424C131.297 114.348 131.338 114.244 131.338 114.135V107.4L132.201 109.175C132.225 109.226 132.259 109.272 132.3 109.309C132.34 109.347 132.388 109.376 132.44 109.393C132.491 109.411 132.546 109.418 132.6 109.414C132.654 109.409 132.707 109.394 132.755 109.367C132.803 109.341 132.846 109.305 132.881 109.261C132.916 109.217 132.942 109.167 132.958 109.112C132.974 109.058 132.979 109 132.974 108.943C132.968 108.887 132.952 108.832 132.926 108.781H132.902Z" fill="#0E2DD0" stroke="#263238" stroke-miterlimit="10"/>
<path d="M135.748 104.94C135.938 104.94 136.123 104.881 136.281 104.77C136.439 104.659 136.562 104.502 136.635 104.317C136.707 104.133 136.726 103.93 136.689 103.735C136.652 103.539 136.561 103.36 136.426 103.219C136.292 103.078 136.121 102.982 135.935 102.943C135.749 102.904 135.556 102.924 135.381 103C135.205 103.076 135.055 103.206 134.95 103.371C134.844 103.537 134.788 103.732 134.788 103.932C134.788 104.199 134.889 104.455 135.069 104.645C135.249 104.834 135.493 104.94 135.748 104.94Z" fill="#0E2DD0" stroke="#263238" stroke-miterlimit="10"/>
<path d="M138.344 108.781L136.861 105.731C136.824 105.653 136.765 105.589 136.692 105.548C136.619 105.506 136.536 105.489 136.453 105.499H136.41H135.09H135.042C134.961 105.489 134.878 105.506 134.805 105.547C134.733 105.589 134.675 105.653 134.639 105.731L133.152 108.781C133.127 108.832 133.112 108.887 133.108 108.943C133.103 108.999 133.11 109.056 133.126 109.11C133.159 109.219 133.232 109.309 133.329 109.361C133.426 109.413 133.538 109.423 133.642 109.388C133.745 109.353 133.831 109.276 133.881 109.175L134.745 107.395V114.135C134.739 114.192 134.744 114.25 134.761 114.305C134.778 114.36 134.805 114.41 134.841 114.453C134.878 114.496 134.923 114.53 134.972 114.553C135.022 114.577 135.076 114.589 135.131 114.589C135.186 114.589 135.24 114.577 135.29 114.553C135.34 114.53 135.384 114.496 135.421 114.453C135.457 114.41 135.485 114.36 135.501 114.305C135.518 114.25 135.524 114.192 135.517 114.135V109.512H135.997V114.135C135.997 114.244 136.038 114.348 136.111 114.424C136.184 114.501 136.283 114.544 136.386 114.544C136.489 114.544 136.588 114.501 136.661 114.424C136.734 114.348 136.775 114.244 136.775 114.135V107.4L137.639 109.175C137.662 109.226 137.696 109.272 137.737 109.309C137.778 109.347 137.825 109.375 137.877 109.393C137.928 109.411 137.983 109.418 138.037 109.414C138.091 109.409 138.144 109.394 138.192 109.367C138.241 109.341 138.283 109.305 138.318 109.261C138.353 109.217 138.379 109.167 138.395 109.112C138.411 109.058 138.416 109 138.411 108.943C138.405 108.887 138.389 108.832 138.363 108.781H138.344Z" fill="#0E2DD0" stroke="#263238" stroke-miterlimit="10"/>
<path d="M141.252 104.94C141.442 104.94 141.627 104.881 141.785 104.77C141.943 104.659 142.066 104.502 142.139 104.317C142.211 104.133 142.23 103.93 142.193 103.735C142.156 103.539 142.065 103.36 141.931 103.219C141.797 103.078 141.625 102.982 141.439 102.943C141.253 102.904 141.06 102.924 140.885 103C140.709 103.076 140.56 103.206 140.454 103.371C140.349 103.537 140.292 103.732 140.292 103.932C140.292 104.199 140.393 104.455 140.573 104.645C140.753 104.834 140.998 104.94 141.252 104.94Z" fill="#0E2DD0" stroke="#263238" stroke-miterlimit="10"/>
<path d="M143.848 108.781L142.361 105.731C142.325 105.653 142.267 105.589 142.195 105.547C142.122 105.506 142.039 105.489 141.958 105.499H141.91H140.595H140.547C140.464 105.489 140.381 105.506 140.308 105.548C140.235 105.589 140.176 105.653 140.139 105.731L138.656 108.781C138.63 108.832 138.614 108.887 138.608 108.943C138.603 109 138.608 109.058 138.624 109.112C138.64 109.167 138.666 109.217 138.701 109.261C138.736 109.305 138.778 109.341 138.827 109.367C138.875 109.394 138.928 109.409 138.982 109.414C139.036 109.418 139.091 109.411 139.142 109.393C139.194 109.375 139.242 109.347 139.282 109.309C139.323 109.272 139.357 109.226 139.381 109.175L140.244 107.395V114.135C140.244 114.244 140.285 114.348 140.358 114.424C140.431 114.501 140.53 114.544 140.633 114.544C140.736 114.544 140.835 114.501 140.908 114.424C140.981 114.348 141.022 114.244 141.022 114.135V109.512H141.502V114.135C141.496 114.192 141.501 114.25 141.518 114.305C141.534 114.36 141.562 114.41 141.598 114.453C141.635 114.496 141.679 114.53 141.729 114.553C141.779 114.577 141.833 114.589 141.888 114.589C141.943 114.589 141.997 114.577 142.047 114.553C142.097 114.53 142.141 114.496 142.178 114.453C142.214 114.41 142.242 114.36 142.258 114.305C142.275 114.25 142.28 114.192 142.274 114.135V107.4L143.138 109.175C143.188 109.276 143.274 109.353 143.377 109.388C143.481 109.423 143.593 109.413 143.69 109.361C143.787 109.309 143.86 109.219 143.893 109.11C143.926 109.001 143.917 108.883 143.867 108.781H143.848Z" fill="#0E2DD0" stroke="#263238" stroke-miterlimit="10"/>
<path d="M146.752 104.94C146.941 104.94 147.127 104.881 147.285 104.77C147.443 104.659 147.566 104.502 147.638 104.317C147.711 104.133 147.73 103.93 147.693 103.735C147.656 103.539 147.564 103.36 147.43 103.219C147.296 103.078 147.125 102.982 146.939 102.943C146.753 102.904 146.56 102.924 146.384 103C146.209 103.076 146.059 103.206 145.954 103.371C145.848 103.537 145.792 103.732 145.792 103.932C145.792 104.199 145.893 104.455 146.073 104.645C146.253 104.834 146.497 104.94 146.752 104.94Z" fill="#0E2DD0" stroke="#263238" stroke-miterlimit="10"/>
<path d="M149.348 108.781L147.865 105.731C147.828 105.653 147.769 105.589 147.696 105.548C147.623 105.506 147.539 105.489 147.457 105.499H147.414H146.094H146.046C145.964 105.489 145.881 105.506 145.809 105.547C145.737 105.589 145.679 105.653 145.643 105.731L144.155 108.781C144.131 108.832 144.116 108.887 144.111 108.943C144.107 108.999 144.113 109.056 144.13 109.11C144.163 109.219 144.236 109.309 144.333 109.361C144.43 109.413 144.542 109.423 144.646 109.388C144.749 109.353 144.835 109.276 144.885 109.175L145.749 107.395V114.135C145.742 114.192 145.748 114.25 145.765 114.305C145.781 114.36 145.809 114.41 145.845 114.453C145.882 114.496 145.926 114.53 145.976 114.553C146.026 114.577 146.08 114.589 146.135 114.589C146.19 114.589 146.244 114.577 146.294 114.553C146.343 114.53 146.388 114.496 146.425 114.453C146.461 114.41 146.488 114.36 146.505 114.305C146.522 114.25 146.527 114.192 146.521 114.135V109.512H147.001V114.135C147.001 114.244 147.042 114.348 147.115 114.424C147.188 114.501 147.287 114.544 147.39 114.544C147.493 114.544 147.592 114.501 147.665 114.424C147.738 114.348 147.778 114.244 147.778 114.135V107.4L148.642 109.175C148.666 109.226 148.699 109.272 148.74 109.309C148.781 109.347 148.829 109.375 148.881 109.393C148.932 109.411 148.987 109.418 149.041 109.414C149.095 109.409 149.148 109.394 149.196 109.367C149.244 109.341 149.287 109.305 149.322 109.261C149.357 109.217 149.383 109.167 149.399 109.112C149.415 109.058 149.42 109 149.415 108.943C149.409 108.887 149.393 108.832 149.367 108.781H149.348Z" fill="#0E2DD0" stroke="#263238" stroke-miterlimit="10"/>
<path d="M128.564 81.3057V81.462C128.592 81.7252 128.537 81.9908 128.409 82.2189C128.281 82.447 128.086 82.6254 127.854 82.7274C128.088 82.8288 128.284 83.0079 128.412 83.2372C128.54 83.4666 128.594 83.7337 128.564 83.9978V84.4717C128.564 85.4144 128.146 86.0244 127.244 86.0244C126.342 86.0244 125.934 85.4144 125.934 84.4717V84.0533H126.544V84.5171C126.544 85.0716 126.76 85.4043 127.225 85.4043C127.691 85.4043 127.911 85.0767 127.911 84.4566V83.9827C127.911 83.3777 127.671 83.0853 127.177 83.0702H126.827V82.4551H127.211C127.312 82.4562 127.412 82.4343 127.504 82.3909C127.597 82.3475 127.679 82.2836 127.745 82.2036C127.812 82.1236 127.861 82.0294 127.89 81.9275C127.919 81.8256 127.926 81.7184 127.911 81.6132V81.3359C127.911 80.7058 127.705 80.3831 127.225 80.3831C126.745 80.3831 126.544 80.7209 126.544 81.2754V81.593H125.934V81.3107C125.934 80.373 126.352 79.7681 127.244 79.7681C128.137 79.7681 128.564 80.368 128.564 81.3057Z" fill="#263238"/>
<path d="M129.149 81.3057C129.149 80.368 129.591 79.7631 130.483 79.7631C131.376 79.7631 131.827 80.368 131.827 81.3057V84.4717C131.827 85.4145 131.386 86.0245 130.483 86.0245C129.581 86.0245 129.149 85.4145 129.149 84.4717V81.3057ZM129.792 84.5171C129.792 85.0716 130.018 85.4044 130.483 85.4044C130.949 85.4044 131.179 85.0716 131.179 84.5171V81.2704C131.179 80.7108 130.959 80.3781 130.483 80.3781C130.008 80.3781 129.792 80.7108 129.792 81.2704V84.5171Z" fill="#263238"/>
<path d="M134.083 80.7816V82.7175C134.083 83.3174 133.819 83.7258 133.248 83.7258C132.677 83.7258 132.413 83.3325 132.413 82.7175V80.7816C132.413 80.1918 132.681 79.7733 133.248 79.7733C133.814 79.7733 134.083 80.1918 134.083 80.7816ZM132.83 80.7513V82.7679C132.83 83.1006 132.95 83.3225 133.248 83.3225C133.545 83.3225 133.665 83.1006 133.665 82.7679V80.7513C133.665 80.4186 133.54 80.1918 133.248 80.1918C132.955 80.1918 132.83 80.4186 132.83 80.7513ZM136.012 79.8237L133.708 85.9641H133.315L135.618 79.8237H136.012ZM136.972 83.0704V85.0012C136.972 85.5961 136.712 86.0095 136.136 86.0095C135.561 86.0095 135.301 85.6163 135.301 85.0012V83.0704C135.301 82.4805 135.565 82.0873 136.136 82.0873C136.708 82.0873 136.957 82.4805 136.957 83.0704H136.972ZM135.719 83.0452V85.0617C135.719 85.3945 135.844 85.6213 136.136 85.6213C136.429 85.6213 136.554 85.3945 136.554 85.0617V83.0452C136.554 82.7125 136.429 82.4906 136.136 82.4906C135.844 82.4906 135.705 82.7125 135.705 83.0452H135.719Z" fill="#263238"/>
<path d="M138.138 95.6635C138.225 95.5043 138.352 95.3732 138.505 95.2843C138.658 95.1955 138.831 95.1523 139.006 95.1594C139.76 95.1594 140.096 95.7391 140.096 96.6163V97.8162C140.096 98.7589 139.668 99.3689 138.776 99.3689C137.883 99.3689 137.461 98.7589 137.461 97.8162V97.4078H138.075V97.8615C138.075 98.4161 138.291 98.7488 138.757 98.7488C139.222 98.7488 139.443 98.4161 139.443 97.8615V96.6617C139.443 96.1122 139.227 95.7794 138.757 95.7794C138.672 95.7746 138.587 95.788 138.508 95.8188C138.428 95.8496 138.355 95.8971 138.294 95.9585C138.232 96.0198 138.183 96.0937 138.15 96.1756C138.116 96.2575 138.099 96.3457 138.099 96.4348V96.576H137.49L137.648 93.163H139.952V93.778H138.224L138.138 95.6635Z" fill="#263238"/>
<path d="M140.671 94.6454C140.671 93.7077 141.113 93.1028 142.005 93.1028C142.898 93.1028 143.349 93.7077 143.349 94.6454V97.8114C143.349 98.7542 142.908 99.3642 142.005 99.3642C141.103 99.3642 140.671 98.7542 140.671 97.8114V94.6454ZM141.314 97.8568C141.314 98.4114 141.54 98.7441 142.005 98.7441C142.471 98.7441 142.701 98.4114 142.701 97.8568V94.6102C142.701 94.0506 142.481 93.7178 142.005 93.7178C141.53 93.7178 141.314 94.0506 141.314 94.6102V97.8568Z" fill="#263238"/>
<path d="M145.605 94.1209V96.0568C145.605 96.6568 145.341 97.0651 144.77 97.0651C144.199 97.0651 143.935 96.6719 143.935 96.0568V94.1209C143.935 93.5311 144.203 93.1127 144.77 93.1127C145.336 93.1127 145.605 93.5311 145.605 94.1209ZM144.352 94.0957V96.1123C144.352 96.445 144.472 96.6669 144.77 96.6669C145.067 96.6669 145.187 96.445 145.187 96.1123V94.0957C145.187 93.758 145.062 93.5311 144.77 93.5311C144.477 93.5311 144.352 93.758 144.352 94.0957ZM147.534 93.1631L145.23 99.3035H144.837L147.145 93.1631H147.534ZM148.494 96.4097V98.3406C148.494 98.9355 148.234 99.3489 147.659 99.3489C147.083 99.3489 146.824 98.9556 146.824 98.3406V96.4097C146.824 95.8199 147.092 95.4015 147.659 95.4015C148.225 95.4015 148.479 95.8199 148.479 96.4097H148.494ZM147.241 96.3845V98.4011C147.241 98.7338 147.366 98.9607 147.659 98.9607C147.951 98.9607 148.076 98.7338 148.076 98.4011V96.3845C148.076 96.0518 147.951 95.83 147.659 95.83C147.366 95.83 147.227 96.0518 147.227 96.3845H147.241Z" fill="#263238"/>
<path d="M155.217 108.207V108.398C155.25 108.656 155.203 108.919 155.083 109.147C154.963 109.375 154.776 109.556 154.55 109.664C154.778 109.777 154.965 109.964 155.085 110.197C155.205 110.43 155.251 110.697 155.217 110.959V111.418C155.217 112.366 154.737 112.93 153.839 112.93C152.942 112.93 152.462 112.346 152.462 111.418V110.959C152.427 110.696 152.474 110.427 152.596 110.193C152.718 109.96 152.908 109.774 153.139 109.664C152.91 109.559 152.72 109.379 152.598 109.151C152.476 108.922 152.428 108.658 152.462 108.398V108.207C152.462 107.259 152.942 106.694 153.839 106.694C154.737 106.694 155.217 107.259 155.217 108.207ZM153.105 108.207V108.509C153.105 109.104 153.379 109.366 153.839 109.366C154.3 109.366 154.574 109.104 154.574 108.509V108.207C154.574 107.576 154.3 107.289 153.839 107.289C153.379 107.289 153.1 107.592 153.1 108.222L153.105 108.207ZM153.105 110.868V111.373C153.105 112.008 153.374 112.305 153.839 112.305C154.305 112.305 154.569 112.008 154.574 111.373V110.868C154.574 110.269 154.324 109.981 153.839 109.981C153.355 109.981 153.1 110.284 153.1 110.884L153.105 110.868Z" fill="#263238"/>
<path d="M155.764 108.232C155.764 107.294 156.205 106.689 157.098 106.689C157.99 106.689 158.442 107.294 158.442 108.232V111.398C158.442 112.34 158 112.95 157.098 112.95C156.196 112.95 155.764 112.34 155.764 111.398V108.232ZM156.402 111.443C156.402 111.998 156.628 112.33 157.098 112.33C157.568 112.33 157.789 111.998 157.789 111.443V108.196C157.789 107.637 157.573 107.304 157.098 107.304C156.623 107.304 156.402 107.637 156.402 108.196V111.443Z" fill="#263238"/>
<path d="M160.697 107.707V109.643C160.697 110.243 160.428 110.652 159.862 110.652C159.296 110.652 159.027 110.258 159.027 109.643V107.707C159.027 107.118 159.296 106.699 159.862 106.699C160.428 106.699 160.697 107.118 160.697 107.707ZM159.444 107.682V109.699C159.444 110.037 159.56 110.253 159.862 110.253C160.164 110.253 160.279 110.037 160.279 109.699V107.682C160.279 107.344 160.155 107.118 159.862 107.118C159.569 107.118 159.444 107.344 159.444 107.682ZM162.626 106.75L160.323 112.89H159.929L162.233 106.75H162.626ZM163.586 109.996V111.927C163.586 112.522 163.327 112.935 162.751 112.935C162.175 112.935 161.916 112.537 161.916 111.927V109.996C161.916 109.406 162.18 108.988 162.751 108.988C163.322 108.988 163.571 109.406 163.571 109.996H163.586ZM162.333 109.971V111.962C162.333 112.295 162.458 112.522 162.751 112.522C163.044 112.522 163.168 112.295 163.168 111.962V109.971C163.168 109.638 163.044 109.416 162.751 109.416C162.458 109.416 162.319 109.638 162.319 109.971H162.333Z" fill="#263238"/>
<path d="M158.302 74.2629H145.211C144.437 74.2629 143.81 74.922 143.81 75.735V81.8754C143.81 82.6885 144.437 83.3475 145.211 83.3475H158.302C159.076 83.3475 159.704 82.6885 159.704 81.8754V75.735C159.704 74.922 159.076 74.2629 158.302 74.2629Z" stroke="#CCCCCC" stroke-miterlimit="10"/>
<path d="M150.183 77.6205C150.183 77.4507 150.247 77.2879 150.361 77.1678C150.476 77.0477 150.631 76.9803 150.792 76.9803C150.954 76.9803 151.109 77.0477 151.223 77.1678C151.337 77.2879 151.402 77.4507 151.402 77.6205V79.0119C151.402 79.1817 151.337 79.3446 151.223 79.4647C151.109 79.5847 150.954 79.6522 150.792 79.6522C150.631 79.6522 150.476 79.5847 150.361 79.4647C150.247 79.3446 150.183 79.1817 150.183 79.0119V77.6205ZM150.586 79.0422C150.586 79.2287 150.658 79.3094 150.792 79.3094C150.927 79.3094 150.999 79.2287 150.999 79.0422V77.5903C150.999 77.4037 150.917 77.3281 150.792 77.3281C150.667 77.3281 150.586 77.4037 150.586 77.5903V79.0422ZM152.381 76.9752H152.755L151.166 81.21H150.792L152.381 76.9752ZM152.179 79.1682C152.179 78.9984 152.243 78.8356 152.358 78.7155C152.472 78.5954 152.627 78.528 152.789 78.528C152.95 78.528 153.105 78.5954 153.219 78.7155C153.334 78.8356 153.398 78.9984 153.398 79.1682V80.5597C153.398 80.7295 153.334 80.8923 153.219 81.0124C153.105 81.1325 152.95 81.1999 152.789 81.1999C152.627 81.1999 152.472 81.1325 152.358 81.0124C152.243 80.8923 152.179 80.7295 152.179 80.5597V79.1682ZM152.582 80.5899C152.582 80.7815 152.654 80.8571 152.789 80.8571C152.923 80.8571 152.995 80.7815 152.995 80.5899V79.143C152.995 78.9514 152.913 78.8758 152.789 78.8758C152.664 78.8758 152.582 78.9514 152.582 79.143V80.5899Z" fill="#263238"/>
<path d="M34.2378 114.387H96.9731" stroke="#CCCCCC" stroke-miterlimit="10"/>
<path d="M34.2378 106.003H96.9731" stroke="#CCCCCC" stroke-miterlimit="10"/>
<path d="M34.2378 97.6198H96.9731" stroke="#CCCCCC" stroke-miterlimit="10"/>
<path d="M34.2378 89.2358H96.9731" stroke="#CCCCCC" stroke-miterlimit="10"/>
<path d="M49.882 74.2629H36.7908C36.0169 74.2629 35.3895 74.922 35.3895 75.735V81.8754C35.3895 82.6885 36.0169 83.3475 36.7908 83.3475H49.882C50.6559 83.3475 51.2833 82.6885 51.2833 81.8754V75.735C51.2833 74.922 50.6559 74.2629 49.882 74.2629Z" stroke="#CCCCCC" stroke-miterlimit="10"/>
<path d="M69.0438 74.2629H55.9525C55.1786 74.2629 54.5513 74.922 54.5513 75.735V81.8754C54.5513 82.6885 55.1786 83.3475 55.9525 83.3475H69.0438C69.8177 83.3475 70.4451 82.6885 70.4451 81.8754V75.735C70.4451 74.922 69.8177 74.2629 69.0438 74.2629Z" stroke="#CCCCCC" stroke-miterlimit="10"/>
<path d="M39.0942 76.1233V75.6847H39.814V76.1233C40.4379 76.2544 40.7738 76.7585 40.7738 77.5601V77.7416H39.9388V77.4996C39.9388 77.0812 39.7804 76.9198 39.5021 76.9198C39.2238 76.9198 39.0606 77.0812 39.0606 77.4996C39.0606 78.7095 40.7786 78.77 40.7786 80.4488C40.7786 81.2454 40.4523 81.7596 39.8188 81.8957V82.3444H39.099V81.9159C38.4703 81.7797 38.1392 81.2655 38.1392 80.469V80.0657H38.9694V80.5295C38.9694 80.9479 39.147 81.0992 39.4253 81.0992C39.7036 81.0992 39.9052 80.9479 39.9052 80.5295C39.9052 79.3195 38.1872 79.259 38.1872 77.5803C38.168 76.7686 38.4799 76.2645 39.0942 76.1233Z" fill="#263238"/>
<path d="M41.2873 77.4743C41.2873 76.5366 41.7672 75.9972 42.6214 75.9972C43.4756 75.9972 43.9555 76.5366 43.9555 77.4743V80.5344C43.9555 81.4721 43.4756 82.0116 42.6214 82.0116C41.7672 82.0116 41.2873 81.4721 41.2873 80.5344V77.4743ZM42.1655 80.5899C42.1655 81.0134 42.3382 81.1697 42.6454 81.1697C42.9525 81.1697 43.1253 81.0134 43.1253 80.5899V77.4138C43.1253 76.9954 42.9477 76.8341 42.6454 76.8341C42.343 76.8341 42.1655 76.9954 42.1655 77.4138V80.5899Z" fill="#263238"/>
<path d="M45.3711 81.0538V81.9462H44.5217V81.0538H45.3711Z" fill="#263238"/>
<path d="M45.9373 77.4744C45.9373 76.5367 46.4172 75.9973 47.2714 75.9973C47.4572 75.9804 47.6442 76.0076 47.8186 76.0769C47.993 76.1462 48.1503 76.2559 48.2789 76.3977C48.4075 76.5396 48.504 76.71 48.5614 76.8964C48.6188 77.0828 48.6355 77.2803 48.6103 77.4744V80.5346C48.6355 80.7287 48.6188 80.9262 48.5614 81.1126C48.504 81.299 48.4075 81.4694 48.2789 81.6113C48.1503 81.7531 47.993 81.8628 47.8186 81.9321C47.6442 82.0014 47.4572 82.0286 47.2714 82.0117C46.4076 82.0117 45.9373 81.4723 45.9373 80.5346V77.4744ZM46.8155 80.59C46.8155 81.0135 46.9931 81.1698 47.2954 81.1698C47.5977 81.1698 47.7513 81.0135 47.7513 80.59V77.4139C47.7513 76.9955 47.5786 76.8342 47.2954 76.8342C47.0123 76.8342 46.8155 76.9955 46.8155 77.4139V80.59Z" fill="#263238"/>
<path d="M56.9891 77.4743C56.9891 76.5366 57.469 75.9972 58.3232 75.9972C59.1774 75.9972 59.6573 76.5366 59.6573 77.4743V80.5344C59.6573 81.4721 59.1774 82.0116 58.3232 82.0116C57.469 82.0116 56.9891 81.4721 56.9891 80.5344V77.4743ZM57.8673 80.5899C57.8673 81.0134 58.0449 81.1697 58.3232 81.1697C58.6015 81.1697 58.7791 81.0134 58.7791 80.5899V77.4138C58.7791 76.9954 58.6015 76.8341 58.3232 76.8341C58.0449 76.8341 57.8673 76.9954 57.8673 77.4138V80.5899Z" fill="#263238"/>
<path d="M61.0729 81.0538V81.9462H60.2235V81.0538H61.0729Z" fill="#263238"/>
<path d="M61.6392 77.4744C61.6141 77.2803 61.6308 77.0828 61.6882 76.8964C61.7455 76.71 61.8421 76.5396 61.9707 76.3977C62.0992 76.2559 62.2566 76.1462 62.431 76.0769C62.6054 76.0076 62.7924 75.9804 62.9781 75.9973C63.8419 75.9973 64.3122 76.5367 64.3122 77.4744V80.5346C64.3122 81.4723 63.8323 82.0117 62.9781 82.0117C62.7924 82.0286 62.6054 82.0014 62.431 81.9321C62.2566 81.8628 62.0992 81.7531 61.9707 81.6113C61.8421 81.4694 61.7455 81.299 61.6882 81.1126C61.6308 80.9262 61.6141 80.7287 61.6392 80.5346V77.4744ZM62.5222 80.59C62.5222 81.0135 62.695 81.1698 62.9781 81.1698C63.2613 81.1698 63.458 81.0135 63.458 80.59V77.4139C63.458 76.9955 63.2805 76.8342 62.9781 76.8342C62.6758 76.8342 62.5222 76.9955 62.5222 77.4139V80.59Z" fill="#263238"/>
<path d="M64.8304 76.9602C64.8217 76.8377 64.837 76.7147 64.8756 76.5987C64.9142 76.4828 64.9752 76.3764 65.0547 76.2864C65.1342 76.1963 65.2305 76.1245 65.3377 76.0753C65.4448 76.0262 65.5605 76.0009 65.6774 76.0009C65.7943 76.0009 65.91 76.0262 66.0172 76.0753C66.1243 76.1245 66.2207 76.1963 66.3002 76.2864C66.3797 76.3764 66.4407 76.4828 66.4792 76.5987C66.5178 76.7147 66.5332 76.8377 66.5244 76.9602V78.8961C66.5332 79.0186 66.5178 79.1416 66.4792 79.2576C66.4407 79.3735 66.3797 79.4799 66.3002 79.5699C66.2207 79.66 66.1243 79.7318 66.0172 79.781C65.91 79.8301 65.7943 79.8554 65.6774 79.8554C65.5605 79.8554 65.4448 79.8301 65.3377 79.781C65.2305 79.7318 65.1342 79.66 65.0547 79.5699C64.9752 79.4799 64.9142 79.3735 64.8756 79.2576C64.837 79.1416 64.8217 79.0186 64.8304 78.8961V76.9602ZM65.3919 78.9364C65.3919 79.1986 65.4927 79.3045 65.6798 79.3045C65.867 79.3045 65.9678 79.1986 65.9678 78.9364V76.9199C65.9678 76.6577 65.8526 76.5518 65.6798 76.5518C65.5071 76.5518 65.3919 76.6577 65.3919 76.9199V78.9364ZM67.8825 76.0628H68.4056L66.1981 81.9461H65.6798L67.8825 76.0628ZM67.6042 79.1129C67.5954 78.9904 67.6108 78.8673 67.6494 78.7514C67.6879 78.6354 67.7489 78.5291 67.8284 78.439C67.9079 78.349 68.0043 78.2771 68.1114 78.228C68.2186 78.1789 68.3342 78.1535 68.4512 78.1535C68.5681 78.1535 68.6837 78.1789 68.7909 78.228C68.8981 78.2771 68.9944 78.349 69.0739 78.439C69.1534 78.5291 69.2144 78.6354 69.253 78.7514C69.2916 78.8673 69.3069 78.9904 69.2982 79.1129V81.0437C69.3069 81.1662 69.2916 81.2893 69.253 81.4052C69.2144 81.5212 69.1534 81.6275 69.0739 81.7176C68.9944 81.8076 68.8981 81.8795 68.7909 81.9286C68.6837 81.9777 68.5681 82.0031 68.4512 82.0031C68.3342 82.0031 68.2186 81.9777 68.1114 81.9286C68.0043 81.8795 67.9079 81.8076 67.8284 81.7176C67.7489 81.6275 67.6879 81.5212 67.6494 81.4052C67.6108 81.2893 67.5954 81.1662 67.6042 81.0437V79.1129ZM68.1656 81.0891C68.1656 81.3462 68.2664 81.4571 68.4536 81.4571C68.6407 81.4571 68.7415 81.3462 68.7415 81.0891V79.0725C68.7415 78.8104 68.6263 78.6995 68.4536 78.6995C68.2808 78.6995 68.1656 78.8104 68.1656 79.0725V81.0891Z" fill="#263238"/>
<path d="M94.2426 78.76H83.6947V114.388H94.2426V78.76Z" fill="#0E2DD0" stroke="#263238" stroke-miterlimit="10"/>
<path d="M82.5238 85.0465H71.9759V114.387H82.5238V85.0465Z" fill="#263238" stroke="#263238" stroke-miterlimit="10"/>
<path d="M70.805 97.6198H60.2572V114.387H70.805V97.6198Z" fill="#0E2DD0" stroke="#263238" stroke-miterlimit="10"/>
<path d="M47.4202 97.6198H36.8723V114.387H47.4202V97.6198Z" fill="#0E2DD0" stroke="#263238" stroke-miterlimit="10"/>
<path d="M59.0862 103.906H48.5383V114.387H59.0862V103.906Z" fill="#263238" stroke="#263238" stroke-miterlimit="10"/>
<path d="M49.5365 118.461H57.9633" stroke="#CCCCCC" stroke-miterlimit="10"/>
<path d="M38.0193 118.461H46.446" stroke="#CCCCCC" stroke-miterlimit="10"/>
<path d="M61.3849 118.461H69.8117" stroke="#CCCCCC" stroke-miterlimit="10"/>
<path d="M73.2332 118.461H81.66" stroke="#CCCCCC" stroke-miterlimit="10"/>
<path d="M84.2898 118.461H92.7166" stroke="#CCCCCC" stroke-miterlimit="10"/>
<path d="M50.8178 45.2952L75.7622 43.4551L100.467 50.271L125.368 38.6809L150.538 27.5948" stroke="#263238" stroke-width="3" stroke-miterlimit="10"/>
<path d="M100.467 58.0649C104.564 58.0649 107.886 54.5754 107.886 50.2709C107.886 45.9664 104.564 42.4769 100.467 42.4769C96.3693 42.4769 93.0477 45.9664 93.0477 50.2709C93.0477 54.5754 96.3693 58.0649 100.467 58.0649Z" fill="#0E2DD0" stroke="#263238" stroke-miterlimit="10" stroke-linecap="round"/>
<path d="M98.0672 49.9533C98.1166 49.8598 98.1901 49.7828 98.2792 49.731C98.3683 49.6793 98.4695 49.655 98.5711 49.6609C99.003 49.6609 99.1998 49.9936 99.1998 50.5028V51.1985C99.1998 51.743 98.9502 52.1009 98.432 52.1009C97.9137 52.1009 97.6737 51.743 97.6737 51.1985V50.9616H98.0289V51.2237C98.0289 51.5464 98.1536 51.7279 98.4224 51.7279C98.6911 51.7279 98.8207 51.5363 98.8207 51.2237V50.533C98.8207 50.2154 98.6959 50.0289 98.4224 50.0289C98.3733 50.0269 98.3243 50.0353 98.2784 50.0536C98.2324 50.0719 98.1905 50.0998 98.1551 50.1356C98.1197 50.1714 98.0915 50.2143 98.0723 50.2618C98.0531 50.3093 98.0432 50.3604 98.0432 50.412V50.4927H97.6881L97.7793 48.5165H99.1182V48.8694H98.12L98.0672 49.9533Z" fill="white"/>
<path d="M99.5357 49.3636C99.5357 48.8191 99.79 48.4712 100.308 48.4712C100.419 48.464 100.529 48.4828 100.632 48.5261C100.735 48.5695 100.827 48.6363 100.902 48.7218C100.977 48.8073 101.032 48.9092 101.065 49.0203C101.098 49.1313 101.106 49.2486 101.091 49.3636V51.1986C101.091 51.7431 100.831 52.101 100.308 52.101C99.7852 52.101 99.5357 51.7431 99.5357 51.1986V49.3636ZM99.9052 51.2238C99.9052 51.5465 100.04 51.728 100.308 51.728C100.577 51.728 100.711 51.5364 100.711 51.2238V49.3434C100.711 49.0207 100.587 48.8393 100.308 48.8393C100.03 48.8393 99.9052 49.0359 99.9052 49.3434V51.2238Z" fill="#FDFEFF"/>
<path d="M102.396 49.0709V50.1952C102.396 50.538 102.242 50.7699 101.916 50.7699C101.59 50.7699 101.436 50.538 101.436 50.1952V49.0709C101.436 48.7281 101.594 48.4962 101.916 48.4962C102.237 48.4962 102.396 48.718 102.396 49.0709ZM101.671 49.0709V50.2305C101.671 50.422 101.738 50.5481 101.911 50.5481C102.084 50.5481 102.156 50.422 102.156 50.2305V49.0709C102.156 48.8743 102.084 48.7432 101.911 48.7432C101.738 48.7432 101.671 48.8491 101.671 49.0709ZM103.514 48.5315L102.18 52.0907H101.95L103.288 48.5315H103.514ZM104.061 50.4119V51.5311C104.061 51.879 103.912 52.1059 103.581 52.1059C103.25 52.1059 103.101 51.879 103.101 51.5311V50.4119C103.101 50.0691 103.26 49.8423 103.581 49.8423C103.903 49.8423 104.061 50.0439 104.061 50.3867V50.4119ZM103.336 50.4119V51.5664C103.336 51.758 103.408 51.8941 103.576 51.8941C103.744 51.8941 103.821 51.758 103.821 51.5664V50.4119C103.821 50.2204 103.749 50.0893 103.576 50.0893C103.404 50.0893 103.336 50.18 103.336 50.3716V50.4119Z" fill="white"/>
<path d="M56.6434 51.4126C59.8612 48.0322 59.8612 42.5515 56.6434 39.1711C53.4256 35.7907 48.2086 35.7907 44.9908 39.1711C41.773 42.5515 41.773 48.0322 44.9908 51.4126C48.2086 54.793 53.4256 54.793 56.6434 51.4126Z" fill="#0E2DD0" stroke="#263238" stroke-miterlimit="10" stroke-linecap="round"/>
<path d="M48.9654 43.7272H47.6841V43.329H49.3925V43.7121L48.4328 47.2865H48.0057L48.9654 43.7272Z" fill="white"/>
<path d="M49.7812 44.2868C49.7812 43.6819 50.0644 43.2786 50.6402 43.2786C51.2161 43.2786 51.5088 43.6718 51.5088 44.2868V46.3034C51.5088 46.9084 51.2209 47.3117 50.6402 47.3117C50.0596 47.3117 49.7812 46.9185 49.7812 46.3034V44.2868ZM50.1939 46.3538C50.1939 46.7067 50.3427 46.9235 50.6402 46.9235C50.9377 46.9235 51.0865 46.7067 51.0865 46.3538V44.2616C51.0865 43.8987 50.9473 43.6869 50.6402 43.6869C50.3331 43.6869 50.1939 43.8987 50.1939 44.2616V46.3538Z" fill="white"/>
<path d="M52.9581 43.9439V45.1942C52.9581 45.5773 52.7853 45.8345 52.4206 45.8345C52.0559 45.8345 51.8831 45.5773 51.8831 45.1942V43.9439C51.8831 43.5658 52.0559 43.3087 52.4206 43.3087C52.7853 43.3087 52.9581 43.5658 52.9581 43.9439ZM52.1519 43.9439V45.2295C52.1519 45.4463 52.2287 45.5874 52.4206 45.5874C52.6126 45.5874 52.6894 45.4463 52.6894 45.2295V43.9288C52.6894 43.712 52.6078 43.5658 52.4206 43.5658C52.2335 43.5658 52.1519 43.712 52.1519 43.9288V43.9439ZM54.201 43.344L52.7182 47.3015H52.4638L53.9515 43.344H54.201ZM54.8104 45.4362V46.6764C54.8104 47.0595 54.6425 47.3166 54.273 47.3166C53.9035 47.3166 53.7355 47.0595 53.7355 46.6764V45.4362C53.7355 45.0581 53.9083 44.801 54.273 44.801C54.6377 44.801 54.8104 45.0379 54.8104 45.4211V45.4362ZM54.0042 45.4362V46.7217C54.0042 46.9335 54.0858 47.0797 54.273 47.0797C54.4601 47.0797 54.5417 46.9335 54.5417 46.7217V45.4362C54.5417 45.2244 54.4601 45.0833 54.273 45.0833C54.0858 45.0833 54.0042 45.1892 54.0042 45.4009V45.4362Z" fill="white"/>
<path d="M132.24 45.9032C136.035 41.9164 136.035 35.4525 132.24 31.4657C128.445 27.4789 122.292 27.4789 118.497 31.4657C114.702 35.4525 114.702 41.9164 118.497 45.9032C122.292 49.89 128.445 49.89 132.24 45.9032Z" fill="white" stroke="#263238" stroke-miterlimit="10" stroke-linecap="round"/>
<path d="M123.722 37.4758V39.8553C123.722 40.5964 123.405 41.0602 122.695 41.0602C121.985 41.0602 121.692 40.6015 121.692 39.8856V39.7999H122.172V39.9209C122.172 40.3393 122.345 40.5863 122.7 40.5863C123.055 40.5863 123.242 40.3343 123.242 39.8402V38.7966C123.193 38.9518 123.096 39.0854 122.966 39.1766C122.837 39.2678 122.682 39.3115 122.527 39.3008C121.956 39.3008 121.702 38.8773 121.702 38.2018V37.4758C121.702 36.7599 122.033 36.3011 122.719 36.3011C123.405 36.3011 123.722 36.775 123.722 37.4758ZM122.177 37.4506V38.1463C122.177 38.5698 122.349 38.8218 122.705 38.8218C123.06 38.8218 123.228 38.5698 123.228 38.1463V37.4758C123.228 37.0473 123.064 36.8002 122.705 36.8002C122.345 36.8002 122.177 37.0372 122.177 37.4758V37.4506Z" fill="#263238"/>
<path d="M124.163 37.4758C124.163 36.7599 124.499 36.3011 125.176 36.3011C125.853 36.3011 126.198 36.7599 126.198 37.4758V39.8805C126.198 40.5964 125.862 41.0602 125.176 41.0602C124.49 41.0602 124.163 40.5964 124.163 39.8805V37.4758ZM124.643 39.9158C124.643 40.3343 124.816 40.5863 125.171 40.5863C125.526 40.5863 125.699 40.3343 125.699 39.9158V37.4758C125.699 37.0473 125.531 36.7952 125.171 36.7952C124.811 36.7952 124.643 37.0473 124.643 37.4758V39.9158Z" fill="#263238"/>
<path d="M127.911 37.0878V38.565C127.911 39.0187 127.71 39.3161 127.278 39.3161C126.846 39.3161 126.64 39.0187 126.64 38.565V37.0878C126.64 36.6442 126.846 36.3367 127.278 36.3367C127.71 36.3367 127.911 36.6442 127.911 37.0878ZM126.951 37.0878V38.6003C126.951 38.8523 127.038 39.0187 127.268 39.0187C127.499 39.0187 127.585 38.8523 127.585 38.6003V37.0878C127.585 36.8307 127.489 36.6593 127.268 36.6593C127.047 36.6593 126.961 36.8156 126.961 37.0727L126.951 37.0878ZM129.351 36.377L127.599 41.0453H127.302L129.053 36.377H129.351ZM130.071 38.8473V40.3093C130.071 40.763 129.874 41.0655 129.432 41.0655C128.991 41.0655 128.799 40.763 128.799 40.3093V38.8473C128.799 38.3986 129.005 38.0961 129.432 38.0961C129.86 38.0961 130.095 38.3835 130.095 38.8322L130.071 38.8473ZM129.111 38.8473V40.3597C129.111 40.6118 129.207 40.7832 129.428 40.7832C129.648 40.7832 129.749 40.6118 129.749 40.3597V38.8473C129.749 38.5902 129.653 38.4238 129.428 38.4238C129.202 38.4238 129.14 38.5549 129.14 38.812L129.111 38.8473Z" fill="#263238"/>
<path d="M75.7574 53.946C81.2727 53.946 85.7438 49.249 85.7438 43.4549C85.7438 37.6608 81.2727 32.9637 75.7574 32.9637C70.2421 32.9637 65.771 37.6608 65.771 43.4549C65.771 49.249 70.2421 53.946 75.7574 53.946Z" fill="white" stroke="#263238" stroke-miterlimit="10" stroke-linecap="round"/>
<path d="M71.6064 41.6601C71.4148 41.7832 71.1972 41.8542 70.973 41.8668V41.4282C71.1543 41.4331 71.3316 41.3721 71.4751 41.2554C71.6185 41.1387 71.7191 40.9736 71.76 40.788H72.1103V45.5874H71.6304L71.6064 41.6601Z" fill="#263238"/>
<path d="M72.8397 41.9474C72.8397 41.2164 73.1852 40.7426 73.8811 40.7426C74.5769 40.7426 74.932 41.2164 74.932 41.9474V44.4228C74.932 45.1538 74.5865 45.6327 73.8811 45.6327C73.1756 45.6327 72.8397 45.1286 72.8397 44.4228V41.9474ZM73.3436 44.4681C73.3436 44.8967 73.5164 45.1588 73.8811 45.1588C74.2458 45.1588 74.4233 44.8967 74.4233 44.4681V41.9474C74.4233 41.5088 74.2554 41.2467 73.8811 41.2467C73.5068 41.2467 73.3436 41.5088 73.3436 41.9474V44.4681Z" fill="#263238"/>
<path d="M75.3591 41.9474C75.3591 41.2164 75.7094 40.7426 76.4052 40.7426C77.1011 40.7426 77.4562 41.2164 77.4562 41.9474V44.4228C77.4562 45.1538 77.1107 45.6327 76.4052 45.6327C75.6998 45.6327 75.3591 45.1286 75.3591 44.4228V41.9474ZM75.863 44.4681C75.863 44.8967 76.0405 45.1588 76.4052 45.1588C76.77 45.1588 76.9475 44.8967 76.9475 44.4681V41.9474C76.9475 41.5088 76.7748 41.2467 76.4052 41.2467C76.0357 41.2467 75.863 41.5088 75.863 41.9474V44.4681Z" fill="#263238"/>
<path d="M79.2317 41.5392V43.0516C79.2317 43.5154 79.0206 43.828 78.5791 43.828C78.1376 43.828 77.9265 43.5154 77.9265 43.0516V41.5392C77.9265 41.0754 78.1328 40.7628 78.5791 40.7628C79.0254 40.7628 79.2317 41.0754 79.2317 41.5392ZM78.272 41.514V43.0768C78.272 43.339 78.3631 43.5104 78.5983 43.5104C78.8334 43.5104 78.9246 43.339 78.9246 43.0768V41.5089C78.9246 41.2518 78.8238 41.0703 78.5983 41.0703C78.3727 41.0703 78.2384 41.2569 78.2384 41.5089L78.272 41.514ZM80.7578 40.788L78.9534 45.5874H78.6511L80.4506 40.788H80.7578ZM81.492 43.3087V44.8211C81.492 45.29 81.2904 45.5975 80.8393 45.5975C80.3883 45.5975 80.1867 45.29 80.1867 44.8211V43.3087C80.1867 42.85 80.3979 42.5424 80.8393 42.5424C81.2808 42.5424 81.4728 42.8651 81.4728 43.3238L81.492 43.3087ZM80.5322 43.3087V44.8665C80.5322 45.1236 80.633 45.3051 80.8585 45.3051C81.0841 45.3051 81.1849 45.1236 81.1849 44.8665V43.3087C81.1849 43.0516 81.0889 42.8802 80.8585 42.8802C80.6282 42.8802 80.4938 43.0466 80.4938 43.3037L80.5322 43.3087Z" fill="#263238"/>
<path d="M158.765 37.6041C163.559 32.568 163.559 24.4028 158.765 19.3666C153.971 14.3304 146.199 14.3304 141.405 19.3666C136.611 24.4027 136.611 32.568 141.405 37.6041C146.199 42.6403 153.971 42.6403 158.765 37.6041Z" fill="#0E2DD0" stroke="#263238" stroke-miterlimit="10" stroke-linecap="round"/>
<path d="M144.986 26.2839C144.75 26.4339 144.483 26.5205 144.208 26.5359V25.9965C144.429 26.0024 144.646 25.9279 144.821 25.7855C144.995 25.6431 145.118 25.4416 145.168 25.2151H145.6V31.1085H144.986V26.2839Z" fill="white"/>
<path d="M149.069 26.647C149.069 28.4216 147.15 29.0618 147.15 30.418V30.5087H148.993V31.1086H146.531V30.6045C146.531 28.6989 148.45 28.3308 148.45 26.6722C148.45 26.0673 148.258 25.7446 147.793 25.7446C147.327 25.7446 147.135 26.0925 147.135 26.6117V27.1159H146.55V26.6369C146.55 25.7345 146.943 25.1245 147.807 25.1245C148.671 25.1245 149.069 25.7446 149.069 26.647Z" fill="white"/>
<path d="M149.597 26.637C149.597 25.7396 150.024 25.1548 150.883 25.1548C151.742 25.1548 152.169 25.7396 152.169 26.637V29.6618C152.169 30.5642 151.747 31.1742 150.883 31.1742C150.02 31.1742 149.597 30.5844 149.597 29.6618V26.637ZM150.216 29.7172C150.216 30.2516 150.432 30.5692 150.883 30.5692C151.334 30.5692 151.546 30.2516 151.546 29.7172V26.6067C151.546 26.0673 151.339 25.7446 150.883 25.7446C150.427 25.7446 150.216 26.0673 150.216 26.6067V29.7172Z" fill="white"/>
<path d="M154.334 26.1328V27.993C154.334 28.5677 154.079 28.9459 153.532 28.9459C152.985 28.9459 152.731 28.5677 152.731 27.993V26.1328C152.731 25.5681 152.99 25.1799 153.532 25.1799C154.075 25.1799 154.334 25.5681 154.334 26.1328ZM153.134 26.1328V28.0535C153.134 28.3711 153.244 28.5577 153.532 28.5577C153.82 28.5577 153.935 28.3459 153.935 28.0535V26.1328C153.935 25.8151 153.815 25.5933 153.532 25.5933C153.249 25.5933 153.134 25.7899 153.134 26.1075V26.1328ZM156.186 25.2404L153.974 31.1338H153.58L155.788 25.2404H156.186ZM157.093 28.356V30.2062C157.093 30.7809 156.844 31.159 156.292 31.159C155.74 31.159 155.49 30.7809 155.49 30.2062V28.356C155.49 27.7914 155.745 27.4133 156.292 27.4133C156.839 27.4133 157.093 27.7662 157.093 28.3308V28.356ZM155.889 28.356V30.2667C155.889 30.5843 156.009 30.8061 156.292 30.8061C156.575 30.8061 156.69 30.5843 156.69 30.2667V28.356C156.69 28.0334 156.57 27.8519 156.292 27.8519C156.013 27.8519 155.889 27.9829 155.889 28.3056V28.356Z" fill="white"/>
<path d="M44.1522 57.1222H56.7348" stroke="#263238" stroke-miterlimit="10"/>
<path d="M51.9167 58.9169H56.7347" stroke="#263238" stroke-miterlimit="10"/>
<path d="M44.1522 58.9169H50.3667" stroke="#263238" stroke-miterlimit="10"/>
<path d="M44.1522 60.7117H56.7348" stroke="#263238" stroke-miterlimit="10"/>
<path d="M48.3464 62.5065H56.7348" stroke="#263238" stroke-miterlimit="10"/>
<path d="M44.1522 62.5065H46.9499" stroke="#263238" stroke-miterlimit="10"/>
<path d="M69.9316 57.1222H82.5142" stroke="#263238" stroke-miterlimit="10"/>
<path d="M77.7009 58.9169H82.5142" stroke="#263238" stroke-miterlimit="10"/>
<path d="M69.9316 58.9169H76.1461" stroke="#263238" stroke-miterlimit="10"/>
<path d="M69.9316 60.7117H82.5142" stroke="#263238" stroke-miterlimit="10"/>
<path d="M74.1258 62.5065H82.5142" stroke="#263238" stroke-miterlimit="10"/>
<path d="M69.9316 62.5065H72.7293" stroke="#263238" stroke-miterlimit="10"/>
<path d="M93.6955 61.5286H106.278" stroke="#263238" stroke-miterlimit="10"/>
<path d="M101.46 63.3231H106.278" stroke="#263238" stroke-miterlimit="10"/>
<path d="M93.6955 63.3231H99.91" stroke="#263238" stroke-miterlimit="10"/>
<path d="M93.6955 65.1178H106.278" stroke="#263238" stroke-miterlimit="10"/>
<path d="M97.8896 66.9125H106.278" stroke="#263238" stroke-miterlimit="10"/>
<path d="M93.6955 66.9125H96.4932" stroke="#263238" stroke-miterlimit="10"/>
<path d="M119.633 51.4153H132.211" stroke="#263238" stroke-miterlimit="10"/>
<path d="M127.398 53.2102H132.211" stroke="#263238" stroke-miterlimit="10"/>
<path d="M119.633 53.2102H125.843" stroke="#263238" stroke-miterlimit="10"/>
<path d="M119.633 55.0048H132.211" stroke="#263238" stroke-miterlimit="10"/>
<path d="M123.827 56.7996H132.211" stroke="#263238" stroke-miterlimit="10"/>
<path d="M119.633 56.7996H122.426" stroke="#263238" stroke-miterlimit="10"/>
<path d="M143.863 44.0699H156.44" stroke="#263238" stroke-miterlimit="10"/>
<path d="M151.627 45.8647H156.44" stroke="#263238" stroke-miterlimit="10"/>
<path d="M143.863 45.8647H150.072" stroke="#263238" stroke-miterlimit="10"/>
<path d="M143.863 47.6594H156.44" stroke="#263238" stroke-miterlimit="10"/>
<path d="M148.057 49.4542H156.44" stroke="#263238" stroke-miterlimit="10"/>
<path d="M143.863 49.4542H146.656" stroke="#263238" stroke-miterlimit="10"/>
<path d="M39.123 14.2098V13.6653H40.0252V14.2098C40.8074 14.3812 41.2057 15.0113 41.2057 16.0095V16.2414H40.1643V15.939C40.1643 15.4348 39.9628 15.213 39.6125 15.213C39.2622 15.213 39.0606 15.4096 39.0606 15.939C39.0606 17.4514 41.2153 17.527 41.2153 19.6293C41.2153 20.6375 40.8074 21.2727 40.0252 21.4391V21.9785H39.123V21.4391C38.3312 21.2727 37.9281 20.6325 37.9281 19.6293V19.1251H38.9742V19.7049C38.9742 20.209 39.195 20.4208 39.5453 20.4208C39.8956 20.4208 40.1163 20.2292 40.1163 19.7049C40.1163 18.1925 37.9617 18.1168 37.9617 16.0095C37.9617 15.0214 38.3504 14.3912 39.123 14.2098Z" fill="#263238"/>
<path d="M43.5715 15.1072C43.2212 15.1072 43.0004 15.3039 43.0004 15.8332V16.6197H41.9591V15.9038C41.9591 14.7291 42.5205 14.0536 43.6003 14.0536C44.68 14.0536 45.2415 14.7291 45.2415 15.9038C45.2415 18.2228 43.0484 19.0849 43.0484 20.2948C43.0437 20.3468 43.0437 20.3991 43.0484 20.4511H45.1263V21.5048H41.9591V20.5973C41.9591 18.4295 44.1425 18.0766 44.1425 15.9492C44.1665 15.2938 43.9218 15.1072 43.5715 15.1072Z" fill="#263238"/>
<path d="M48.0489 15.9492C48.0489 15.2837 47.8281 15.1073 47.4778 15.1073C47.1275 15.1073 46.9067 15.3039 46.9067 15.8332V16.3021H45.8654V15.8988C45.8654 14.7241 46.4269 14.0486 47.5066 14.0486C48.5863 14.0486 49.1478 14.7241 49.1478 15.8988V16.0903C49.1478 16.8818 48.9079 17.3759 48.38 17.6028C48.9271 17.8548 49.1478 18.3993 49.1478 19.1454V19.7252C49.1478 20.9049 48.5863 21.5804 47.5066 21.5804C46.4269 21.5804 45.8654 20.9049 45.8654 19.7252V19.1253H46.9067V19.8311C46.9067 20.3352 47.1275 20.557 47.4778 20.557C47.8281 20.557 48.0489 20.3755 48.0489 19.7252V19.1253C48.0489 18.4447 47.8281 18.1876 47.3242 18.1876H46.9547V17.139H47.3866C47.7993 17.139 48.0489 16.9474 48.0489 16.3575V15.9492Z" fill="#263238"/>
<path d="M50.9522 20.3906V21.5048H49.8916V20.3906H50.9522Z" fill="#263238"/>
<path d="M51.4944 19.1153L53.4955 14.1394H54.724V19.1153H55.2039V20.1689H54.724V21.5049H53.6395V20.1689H51.5184L51.4944 19.1153ZM53.6155 19.1153V16.3475L52.507 19.1153H53.6155Z" fill="#263238"/>
<path d="M56.7108 19.1253V19.8311C56.7108 20.3353 56.9315 20.547 57.2818 20.547C57.6321 20.547 57.8529 20.3554 57.8529 19.8311V18.1876C57.8529 17.6835 57.6321 17.4617 57.2818 17.4617C56.9315 17.4617 56.7108 17.6633 56.7108 18.1876V18.4095H55.6838L55.8854 14.1394H58.7887V15.1931H56.8691L56.7779 16.9475C56.876 16.7746 57.0174 16.6334 57.1866 16.5391C57.3559 16.4449 57.5465 16.4013 57.7377 16.4131C58.5487 16.4131 58.9614 17.013 58.9614 18.0969V19.7354C58.9614 20.915 58.4 21.5906 57.3202 21.5906C56.2405 21.5906 55.6838 20.915 55.6838 19.7354V19.1253H56.7108Z" fill="#263238"/>
<path d="M59.6189 15.9693C59.6189 14.7291 60.1563 14.0536 61.2985 14.0536C62.4406 14.0536 62.9445 14.7291 62.9445 15.9038V16.0954H61.9223V15.8332C61.9223 15.3291 61.7016 15.1072 61.3513 15.1072C61.0009 15.1072 60.737 15.3039 60.737 16.0096V17.3607C60.8236 17.1552 60.9679 16.9823 61.1505 16.8652C61.3332 16.748 61.5455 16.6923 61.7592 16.7054C62.5702 16.7054 62.9829 17.3053 62.9829 18.3892V19.7352C62.9829 20.9149 62.3926 21.5905 61.3081 21.5905C60.2235 21.5905 59.6381 20.9149 59.6381 19.7352L59.6189 15.9693ZM60.7178 18.49V19.831C60.7178 20.3352 60.9385 20.5469 61.2889 20.5469C61.6392 20.5469 61.8599 20.3553 61.8599 19.831V18.485C61.8599 17.9808 61.6392 17.759 61.2889 17.759C60.9385 17.759 60.7178 17.9556 60.7178 18.485V18.49Z" fill="#263238"/>
<path d="M63.6547 21.5048V20.3906H64.7152V21.3989L64.2354 22.5685H63.7843L64.077 21.5149L63.6547 21.5048Z" fill="#263238"/>
<path d="M68.7511 19.6747C68.7511 20.9149 68.2136 21.5905 67.0715 21.5905C65.9294 21.5905 65.4255 20.9149 65.4255 19.7352V19.5487H66.4669V19.831C66.4669 20.3352 66.6876 20.557 67.0379 20.557C67.3882 20.557 67.6522 20.3553 67.6522 19.6495V18.2833C67.5656 18.4889 67.4213 18.6618 67.2386 18.7789C67.056 18.896 66.8436 18.9518 66.63 18.9387C65.819 18.9387 65.4063 18.3388 65.4063 17.2549V15.9038C65.4063 14.7291 65.9966 14.0536 67.0811 14.0536C68.1657 14.0536 68.7511 14.7291 68.7511 15.9038V19.6747ZM67.6522 17.154V15.8332C67.6522 15.3291 67.4314 15.1173 67.0811 15.1173C66.7308 15.1173 66.51 15.3039 66.51 15.8332V17.1591C66.51 17.6632 66.7308 17.885 67.0811 17.885C67.4314 17.885 67.6522 17.6834 67.6522 17.1591V17.154Z" fill="#263238"/>
<path d="M69.3941 15.9038C69.3941 14.7291 69.9844 14.0536 71.0641 14.0536C72.1439 14.0536 72.7389 14.7291 72.7389 15.9038V19.7352C72.7389 20.9149 72.1487 21.5905 71.0641 21.5905C69.9796 21.5905 69.3941 20.9149 69.3941 19.7352V15.9038ZM70.4979 19.8109C70.4979 20.315 70.7138 20.5368 71.0641 20.5368C71.4144 20.5368 71.6352 20.3352 71.6352 19.8109V15.8332C71.6352 15.3291 71.4192 15.1072 71.0641 15.1072C70.709 15.1072 70.4979 15.3039 70.4979 15.8332V19.8109Z" fill="#263238"/>
<path d="M37.7313 25.4874H73.5115" stroke="#263238" stroke-miterlimit="10"/>
<path d="M59.8156 27.2821H73.5115" stroke="#263238" stroke-miterlimit="10"/>
<path d="M37.7313 27.2821H55.4007" stroke="#263238" stroke-miterlimit="10"/>
<path d="M51.744 29.077H73.5115" stroke="#263238" stroke-miterlimit="10"/>
<path d="M37.7313 29.077H48.7591" stroke="#263238" stroke-miterlimit="10"/>
<path d="M28.5799 13.0353H5.95816V162.876H28.5799V13.0353Z" fill="#263238"/>
<path d="M22.8981 50.5129H19.4142V60.7066H22.8981V50.5129Z" fill="#0E2DD0"/>
<path d="M19.0303 53.4169H15.5463V60.7017H19.0303V53.4169Z" fill="#0E2DD0"/>
<path d="M15.1576 57.5709H11.6736V60.7016H15.1576V57.5709Z" fill="#0E2DD0"/>
<path d="M18.3296 47.9872L19.2606 48.5972L18.1952 50.402L16.1077 49.1316L13.5931 54.1982L11.6592 52.7916L11.64 52.8269V54.5763L11.8943 54.1931L13.9434 55.6803L16.4964 50.5331L18.5215 51.7632L20.0764 49.1265L21.0121 49.7365L21.1129 46.4193L18.3296 47.9872Z" fill="#FCFFFD"/>
<path d="M17.1395 31.3757C21.282 31.3757 24.6401 27.8479 24.6401 23.496C24.6401 19.1442 21.282 15.6163 17.1395 15.6163C12.997 15.6163 9.63892 19.1442 9.63892 23.496C9.63892 27.8479 12.997 31.3757 17.1395 31.3757Z" fill="white" stroke="#263238" stroke-miterlimit="10" stroke-linecap="round"/>
<path d="M11.0546 28.0686C11.7764 29.1354 12.7403 29.996 13.8587 30.5725C14.9772 31.149 16.2149 31.4231 17.4597 31.37C18.7046 31.3169 19.9171 30.9384 20.9874 30.2685C22.0577 29.5987 22.952 28.6589 23.5892 27.5342C22.9568 26.3405 22.0215 25.3545 20.8873 24.6862C19.7532 24.0178 18.4647 23.6932 17.1653 23.7486C15.866 23.804 14.6068 24.2372 13.5279 24.9999C12.449 25.7626 11.5928 26.825 11.0546 28.0686Z" fill="#0E2DD0" stroke="#263238" stroke-miterlimit="10"/>
<path d="M17.1395 22.8408C18.6449 22.8408 19.8653 21.5588 19.8653 19.9773C19.8653 18.3958 18.6449 17.1138 17.1395 17.1138C15.6341 17.1138 14.4138 18.3958 14.4138 19.9773C14.4138 21.5588 15.6341 22.8408 17.1395 22.8408Z" fill="#0E2DD0" stroke="#263238" stroke-miterlimit="10"/>
<path d="M9.85489 40.3898H25.6911" stroke="white" stroke-miterlimit="10" stroke-linecap="round"/>
<path d="M9.85489 67.9512H25.6911" stroke="white" stroke-miterlimit="10" stroke-linecap="round"/>
<path d="M9.85489 95.5125H25.6911" stroke="white" stroke-miterlimit="10" stroke-linecap="round"/>
<path d="M9.85489 123.069H25.6911" stroke="white" stroke-miterlimit="10" stroke-linecap="round"/>
<path d="M18.9631 75.9165H12.024V89.1804H22.1831V79.1984L18.9631 75.9165Z" fill="#5C5C5C"/>
<path d="M13.8907 80.8065H20.206" stroke="#263238" stroke-miterlimit="10"/>
<path d="M13.8907 83.7407H20.206" stroke="#263238" stroke-miterlimit="10"/>
<path d="M13.8907 86.6799H20.206" stroke="#263238" stroke-miterlimit="10"/>
<path d="M18.8622 76.3501V79.3951H21.6552" stroke="#263238" stroke-miterlimit="10"/>
<path d="M17.2979 115.95C20.3139 115.95 22.7589 113.382 22.7589 110.213C22.7589 107.045 20.3139 104.476 17.2979 104.476C14.2818 104.476 11.8368 107.045 11.8368 110.213C11.8368 113.382 14.2818 115.95 17.2979 115.95Z" fill="#5C5C5C"/>
<path d="M17.2979 106.709V110.213H20.9498" stroke="#263238" stroke-miterlimit="10"/>
<path d="M22.1879 131.447H11.8271V143.073H22.1879V131.447Z" fill="#5C5C5C"/>
<path d="M13.9339 137.059H12.4366V135.501H13.9339V137.059ZM16.4341 135.501H14.9368V137.059H16.4197L16.4341 135.501ZM18.9391 135.501H17.437V137.059H18.9247L18.9391 135.501ZM21.4393 135.501H19.9516V137.059H21.4393V135.501ZM13.9339 138.057H12.4366V139.62H13.9339V138.057ZM16.4341 138.057H14.9368V139.62H16.4197L16.4341 138.057ZM18.9391 138.057H17.437V139.62H18.9247L18.9391 138.057ZM21.4393 138.057H19.9516V139.62H21.4393V138.057ZM13.9339 140.613H12.4366V142.176H13.9339V140.613ZM16.4341 140.613H14.9368V142.176H16.4197L16.4341 140.613ZM18.9391 140.613H17.437V142.176H18.9247L18.9391 140.613ZM21.4393 140.613H19.9516V142.176H21.4393V140.613Z" fill="#263238"/>
</svg>
