<svg width="53" height="55" viewBox="0 0 53 55" fill="none" xmlns="http://www.w3.org/2000/svg">
<path d="M26.0571 0C22.6352 0 19.2469 0.71992 16.0855 2.11866C12.9241 3.51739 10.0516 5.56755 7.63195 8.15208C2.74529 13.3718 0 20.4512 0 27.8329C0 40.1351 7.47839 50.5724 17.8231 54.2742C19.1259 54.4969 19.5428 53.6341 19.5428 52.8826V48.1788C12.325 49.8488 10.7876 44.4492 10.7876 44.4492C9.58901 41.2206 7.8953 40.3578 7.8953 40.3578C5.52411 38.6321 8.0777 38.6878 8.0777 38.6878C10.6834 38.8826 12.0644 41.5546 12.0644 41.5546C14.3314 45.7852 18.1618 44.5327 19.6471 43.8647C19.8816 42.0556 20.5591 40.8309 21.2887 40.1351C15.504 39.4393 9.43267 37.0456 9.43267 26.4413C9.43267 23.3518 10.4228 20.8747 12.1166 18.8986C11.856 18.2027 10.944 15.3081 12.3771 11.5507C12.3771 11.5507 14.5659 10.7992 19.5428 14.3896C21.6013 13.7773 23.8422 13.4711 26.0571 13.4711C28.272 13.4711 30.5129 13.7773 32.5714 14.3896C37.5483 10.7992 39.7371 11.5507 39.7371 11.5507C41.1702 15.3081 40.2582 18.2027 39.9977 18.8986C41.6914 20.8747 42.6815 23.3518 42.6815 26.4413C42.6815 37.0735 36.5842 39.4114 30.7734 40.1073C31.7115 40.9701 32.5714 42.6679 32.5714 45.2564V52.8826C32.5714 53.6341 32.9883 54.5247 34.3172 54.2742C44.6619 50.5446 52.1142 40.1351 52.1142 27.8329C52.1142 24.1779 51.4402 20.5586 50.1307 17.1817C48.8212 13.8049 46.9019 10.7366 44.4823 8.15208C42.0626 5.56755 39.1901 3.51739 36.0287 2.11866C32.8673 0.71992 29.479 0 26.0571 0Z" fill="#F8F8F8"/>
</svg>
