<svg width="112" height="126" viewBox="0 0 112 126" fill="none" xmlns="http://www.w3.org/2000/svg">
<path d="M102.16 0.780029H9.8401C4.7601 0.780029 0.600098 4.94003 0.600098 10.02V126H111.4V10.02C111.4 4.94003 107.24 0.780029 102.16 0.780029ZM71.3501 35.3C71.3901 32.71 71.3901 30.13 71.3901 27.54C71.3901 26.09 71.5001 24.64 71.6001 23.2C71.7601 20.63 71.8801 16.23 75.0701 15.86C75.6101 15.8 76.1701 15.87 76.6701 16.06C77.0401 16.19 77.3401 16.43 77.6501 16.67C78.8601 17.58 79.4801 19.69 80.0901 21.07C80.7301 22.53 81.1701 24.08 81.8301 25.53C81.9901 25.9 82.1601 26.26 82.3301 26.63C82.9601 27.99 83.8601 29.18 84.9701 27.52C85.9401 26.06 86.5901 24.41 87.3501 22.82C88.0101 21.41 88.7101 20 89.4001 18.59C89.7201 17.93 90.1701 17.34 90.6901 16.86C91.7901 15.86 93.9001 15.78 94.9701 16.83C95.9201 17.76 96.0501 19.43 96.1701 20.75C96.4201 23.79 96.4601 26.86 96.5301 29.91C96.5601 30.7 96.5601 31.49 96.5701 32.28C96.5701 33.15 96.6401 34.2 96.6501 35.29C96.6501 36.64 96.6101 38.07 96.0901 39.32C95.5401 40.61 94.6001 41.17 93.3201 41.12C92.9301 41.11 92.5601 41.03 92.1801 40.93C91.7901 40.83 91.5201 40.65 91.2201 40.34C90.9201 40.03 90.6101 39.74 90.5101 39.29C90.4101 38.87 90.2401 38.49 90.1301 38.06C89.9101 37.07 89.8601 36.03 89.7701 35.01C89.7201 34.47 89.7601 33.93 89.6001 33.41L89.3201 33.03C89.0201 32.95 88.8401 33.04 88.7101 33.33C88.5201 33.74 88.3401 34.17 88.1701 34.6C87.8901 35.33 87.6101 36.06 87.3001 36.78C86.7001 38.2 86.2401 40.04 84.7601 40.64C84.1801 40.87 83.5301 40.84 82.9601 40.62C81.4901 40.04 80.8601 37.81 80.3701 36.37C80.1301 35.69 79.8001 33.92 79.1701 33.55C78.4301 33.1 78.3401 34.61 78.3201 35.04C78.3001 35.46 78.1801 35.87 78.1501 36.29C78.0201 38.03 77.9101 39.94 76.3501 40.89C75.1901 41.59 72.9301 41.62 72.1001 40.22C71.2501 38.8 71.3301 36.92 71.3501 35.3ZM19.3401 37.63C19.5201 36.66 19.7801 35.69 20.0701 34.73C20.6601 32.79 21.3801 30.85 21.9101 28.9C22.4701 26.86 22.8801 24.79 23.5601 22.77C24.7601 19.16 26.9301 14.39 32.7001 16C35.1801 16.69 35.8701 18.94 36.6701 20.74C37.8301 23.34 38.2901 26.2 39.0201 28.9C39.5501 30.85 40.2801 32.78 40.8601 34.73C41.2101 35.89 41.8601 37.63 41.6801 39.07C41.5401 40.15 40.9301 41.05 39.3501 41.38C38.0101 41.67 35.3301 41.43 34.7201 40.24C33.8501 38.56 34.2601 36.61 31.3601 36.3C30.0001 36.15 28.0301 36.64 27.4701 37.75C26.8801 38.91 27.3301 40.34 25.8301 41.13C24.8201 41.67 23.3701 41.75 22.2001 41.6C19.5701 41.24 18.9501 39.63 19.3401 37.63ZM58.0201 107.52C58.0201 109.15 56.6801 110.48 55.0601 110.48H15.7301C14.1001 110.48 12.7701 109.15 12.7701 107.52V102.74C12.7701 101.11 14.1001 99.78 15.7301 99.78H55.0601C56.6801 99.78 58.0201 101.11 58.0201 102.74V107.52ZM58.0201 85.13C58.0201 87.73 55.8901 89.87 53.2901 89.87H17.5001C14.8901 89.87 12.7701 87.74 12.7701 85.13V57.68C12.7701 55.08 14.9001 52.94 17.5001 52.94H53.2801C55.8801 52.94 58.0101 55.07 58.0101 57.68V85.13H58.0201ZM65.9101 22.7C65.0301 24.3 62.7201 23.75 61.2301 23.8C60.9801 23.81 60.7401 23.82 60.4901 23.87C60.2201 23.92 59.9501 23.87 59.6901 23.95C58.5801 24.29 58.8801 25.63 58.8801 26.52V30.56C58.8801 33.21 59.0601 35.87 58.8801 38.52C58.7901 39.74 58.5001 40.76 57.1401 41.25C56.3201 41.54 55.1101 41.52 54.2001 41.43C49.8501 41.06 50.7701 37.48 50.7401 34.84C50.7101 32.59 50.7101 30.36 50.6201 28.16C50.5901 27.33 50.5701 26.5 50.5701 25.67C50.5701 25.08 50.5801 24.43 50.0001 24.11C49.5801 23.88 49.0501 23.92 48.5901 23.93C47.6801 23.93 46.7601 23.91 45.8501 23.85C44.7001 23.77 43.7401 23.5 43.2701 22.25C43.0001 21.49 43.0301 20.36 43.1001 19.53C43.4601 15.51 46.8401 16.36 49.3201 16.33C51.4401 16.3 53.5401 16.3 55.6101 16.22C57.5201 16.14 59.3601 16.18 61.1701 16.23C61.9501 16.25 62.5901 16.3 63.3601 16.41C64.3301 16.55 65.4501 16.45 66.0801 17.58C66.5901 18.48 66.5701 19.57 66.4101 20.56C66.3101 21.28 66.2701 22.06 65.9101 22.7ZM73.9201 106.32C73.9201 107.39 73.0501 108.27 71.9701 108.27H68.4401C67.9247 108.267 67.4312 108.061 67.0677 107.695C66.7042 107.33 66.5001 106.835 66.5001 106.32V101.87C66.5001 100.8 67.3701 99.92 68.4401 99.92H71.9701C73.0501 99.92 73.9201 100.8 73.9201 101.87V106.32ZM73.9201 92.73C73.9201 93.8 73.0501 94.68 71.9701 94.68H68.4401C67.9247 94.6774 67.4312 94.4708 67.0677 94.1054C66.7042 93.74 66.5001 93.2455 66.5001 92.73V88.28C66.5001 87.21 67.3701 86.33 68.4401 86.33H71.9701C73.0501 86.33 73.9201 87.21 73.9201 88.28V92.73ZM73.9201 79.13C73.9201 80.2 73.0501 81.08 71.9701 81.08H68.4401C67.9247 81.0774 67.4312 80.8708 67.0677 80.5054C66.7042 80.14 66.5001 79.6455 66.5001 79.13V74.68C66.5001 73.61 67.3701 72.73 68.4401 72.73H71.9701C73.0501 72.73 73.9201 73.61 73.9201 74.68V79.13ZM86.6801 106.32C86.6801 107.39 85.8001 108.27 84.7201 108.27H81.2001C80.1301 108.27 79.2501 107.39 79.2501 106.32V101.87C79.2501 100.8 80.1201 99.92 81.2001 99.92H84.7301C85.8001 99.92 86.6901 100.8 86.6901 101.87V106.32H86.6801ZM86.6801 92.73C86.6801 93.8 85.8001 94.68 84.7201 94.68H81.2001C80.1301 94.68 79.2501 93.8 79.2501 92.73V88.28C79.2501 87.21 80.1201 86.33 81.2001 86.33H84.7301C85.8001 86.33 86.6901 87.21 86.6901 88.28V92.73H86.6801ZM86.6801 79.13C86.6801 80.2 85.8001 81.08 84.7201 81.08H81.2001C80.1301 81.08 79.2501 80.2 79.2501 79.13V74.68C79.2501 73.61 80.1201 72.73 81.2001 72.73H84.7301C85.8001 72.73 86.6901 73.61 86.6901 74.68V79.13H86.6801ZM99.4301 106.32C99.4301 107.39 98.5501 108.27 97.4801 108.27H93.9501C92.8801 108.27 91.9901 107.39 91.9901 106.32V101.87C91.9901 100.8 92.8801 99.92 93.9501 99.92H97.4801C98.5501 99.92 99.4301 100.8 99.4301 101.87V106.32ZM99.4301 92.73C99.4301 93.8 98.5501 94.68 97.4801 94.68H93.9501C92.8801 94.68 91.9901 93.8 91.9901 92.73V88.28C91.9901 87.21 92.8801 86.33 93.9501 86.33H97.4801C98.5501 86.33 99.4301 87.21 99.4301 88.28V92.73ZM99.4301 79.13C99.4301 80.2 98.5501 81.08 97.4801 81.08H93.9501C92.8801 81.08 91.9901 80.2 91.9901 79.13V74.68C91.9901 73.61 92.8801 72.73 93.9501 72.73H97.4801C98.5501 72.73 99.4301 73.61 99.4301 74.68V79.13ZM99.4301 61.22C99.4301 62.29 98.5501 63.17 97.4801 63.17H68.4401C67.9247 63.1674 67.4312 62.9608 67.0677 62.5954C66.7042 62.23 66.5001 61.7355 66.5001 61.22V56.99C66.5001 55.92 67.3701 55.04 68.4401 55.04H97.4901C98.5601 55.04 99.4401 55.92 99.4401 56.99V61.22H99.4301Z" fill="#fff"/>
<path d="M29.6102 31.93L30.0802 32.05L30.4102 32.15L30.8602 32.14L30.9302 32.15H31.5402C32.9002 31.82 32.0702 30.44 31.9302 29.65L31.9102 29.57L31.8702 29.44C31.6602 28.7 31.4602 27.96 31.2402 27.23C31.0702 26.97 30.9802 26.62 30.5702 26.7C30.2902 26.76 30.1802 27.05 30.1102 27.21L30.0202 27.29C29.8202 28.31 29.6102 29.33 29.3702 30.35L29.3502 30.45L29.2802 30.7C29.2402 31 29.2102 31.34 29.3102 31.63L29.6102 31.93Z" fill="#1D2123"/>
</svg>
