<svg width="53" height="55" viewBox="0 0 53 55" fill="none" xmlns="http://www.w3.org/2000/svg">
<path d="M46.3237 0C47.8595 0 49.3323 0.635856 50.4182 1.76769C51.5041 2.89952 52.1142 4.43461 52.1142 6.03526V48.2821C52.1142 49.8827 51.5041 51.4178 50.4182 52.5497C49.3323 53.6815 47.8595 54.3173 46.3237 54.3173H5.79047C4.25474 54.3173 2.78191 53.6815 1.69599 52.5497C0.610065 51.4178 0 49.8827 0 48.2821V6.03526C0 4.43461 0.610065 2.89952 1.69599 1.76769C2.78191 0.635856 4.25474 0 5.79047 0H46.3237ZM44.8761 46.7733V30.7798C44.8761 28.1708 43.8817 25.6686 42.1117 23.8237C40.3416 21.9788 37.9409 20.9424 35.4377 20.9424C32.9767 20.9424 30.1104 22.5115 28.7207 24.8653V21.5157H20.643V46.7733H28.7207V31.8963C28.7207 29.5728 30.5158 27.6717 32.7451 27.6717C33.8201 27.6717 34.8511 28.1168 35.6112 28.909C36.3714 29.7013 36.7984 30.7759 36.7984 31.8963V46.7733H44.8761ZM11.2335 16.778C12.5235 16.778 13.7607 16.2439 14.6729 15.2932C15.585 14.3424 16.0975 13.053 16.0975 11.7084C16.0975 8.90201 13.9261 6.60861 11.2335 6.60861C9.93582 6.60861 8.69128 7.14591 7.77367 8.1023C6.85607 9.0587 6.34056 10.3559 6.34056 11.7084C6.34056 14.5148 8.54094 16.778 11.2335 16.778ZM15.2579 46.7733V21.5157H7.23808V46.7733H15.2579Z" fill="white"/>
</svg>
