<svg width="32" height="28" viewBox="0 0 32 28" fill="none" xmlns="http://www.w3.org/2000/svg">
<path d="M9.49282 17.1111C10.5773 17.1111 11.4992 16.733 12.2584 15.9769C13.0175 15.2207 13.3971 14.3025 13.3971 13.2222C13.3971 12.142 13.0175 11.2238 12.2584 10.4676C11.4992 9.71143 10.5773 9.33335 9.49282 9.33335C8.40829 9.33335 7.48644 9.71143 6.72727 10.4676C5.9681 11.2238 5.58851 12.142 5.58851 13.2222C5.58851 14.3025 5.9681 15.2207 6.72727 15.9769C7.48644 16.733 8.40829 17.1111 9.49282 17.1111ZM9.49282 21C7.32376 21 5.48006 20.2438 3.96172 18.7315C2.44337 17.2191 1.6842 15.3827 1.6842 13.2222C1.6842 11.0617 2.44337 9.22532 3.96172 7.71298C5.48006 6.20063 7.32376 5.44446 9.49282 5.44446C11.2498 5.44446 12.7846 5.94137 14.0973 6.9352C15.41 7.92903 16.3262 9.16051 16.8459 10.6296H27.7454L30.3158 13.1898L25.7608 18.375L22.5072 15.8148L19.9043 18.4074L17.3014 15.8148H16.8459C16.3037 17.3704 15.3601 18.6235 14.0153 19.5741C12.6705 20.5247 11.163 21 9.49282 21Z" fill="#FCFCFC"/>
</svg>
