<svg width="450" height="440" viewBox="0 0 450 440" fill="none" xmlns="http://www.w3.org/2000/svg">
<path d="M427.084 204.898C427.084 204.898 427.084 204.811 427.084 204.665V204.024C427.084 203.441 427.084 202.615 427.084 201.565C427.084 199.408 427.084 196.308 427.006 192.391L427.152 192.537L380.037 192.634L380.279 192.391V195.569C380.279 196.628 380.279 197.678 380.279 198.727V204.879L380.047 204.646L413.623 204.753L423.53 204.821H426.212H426.91H427.161H426.948H426.27H423.646L413.787 204.889L380.047 204.996H379.814V204.762C379.814 202.754 379.814 200.703 379.814 198.611V192.274L380.056 192.031L427.171 192.129H427.316V192.274C427.316 196.22 427.258 199.359 427.239 201.536C427.239 202.576 427.239 203.382 427.239 203.965V204.578C427.211 204.695 427.158 204.804 427.084 204.898Z" fill="#FAFAFA"/>
<path d="M433.476 192.391C433.468 192.31 433.468 192.229 433.476 192.148C433.476 191.973 433.476 191.749 433.476 191.487C433.476 190.875 433.476 190.039 433.476 188.98C433.476 186.783 433.418 183.693 433.379 179.883L433.553 180.058L405.245 180.117L405.478 179.883V186.307C405.478 188.397 405.478 190.428 405.478 192.371L405.255 192.138L425.505 192.245L431.403 192.313H432.991H433.563C433.392 192.327 433.22 192.327 433.05 192.313H431.5L425.689 192.371L405.284 192.478H405.052V192.245C405.052 190.301 405.052 188.27 405.052 186.181V179.757L405.294 179.514L433.602 179.582H433.776V179.757C433.776 183.644 433.698 186.744 433.679 188.96C433.679 190 433.679 190.826 433.679 191.429C433.679 192.031 433.485 192.4 433.476 192.391Z" fill="#FAFAFA"/>
<path d="M74.8898 72.031H27.775V84.5383H74.8898V72.031Z" fill="#EBEBEB"/>
<path d="M54.9689 97.716C54.9604 97.6417 54.9604 97.5667 54.9689 97.4925V96.8511C54.9689 96.2583 54.9689 95.4419 54.9689 94.3924C54.9689 92.2252 54.9689 89.1251 54.8915 85.2087L55.0367 85.3545L7.92192 85.4517C8.02845 85.3448 7.67981 85.6946 8.15435 85.2087V97.6966L7.92192 97.4633L41.4979 97.5702L51.4051 97.6383H54.0877H54.7849H55.0367H54.814H54.1458H51.5213L41.6431 97.8521L7.90255 97.959H7.66044V85.2281C8.14466 84.752 7.79602 85.0921 7.90255 84.9852L55.0174 85.0824H55.1626V85.2281C55.1626 89.1834 55.1045 92.3127 55.0851 94.4993C55.0851 95.5294 55.0851 96.3457 55.0851 96.9191C55.0851 97.1718 55.0851 97.3759 55.0851 97.5411C55.0516 97.6027 55.0127 97.6612 54.9689 97.716Z" fill="#FAFAFA"/>
<path d="M108.534 255.646H61.4188V268.154H108.534V255.646Z" fill="#EBEBEB"/>
<path d="M88.6127 281.331C88.6054 281.257 88.6054 281.182 88.6127 281.108V280.466C88.6127 279.874 88.6127 279.057 88.6127 277.998C88.6127 275.841 88.5643 272.741 88.5352 268.824L88.6805 268.97L41.5657 269.067C41.6722 268.96 41.3236 269.3 41.7981 268.824V281.312L41.556 281.079L75.1416 281.186L85.0488 281.254H87.7314H88.4287H88.6805H88.4577H87.7895H85.1553L75.2966 281.322L41.556 281.429H41.2558V268.844L41.4979 268.601L88.6127 268.698H88.7579V268.844C88.7579 272.789 88.6902 275.928 88.6708 278.105C88.6708 279.145 88.6708 279.951 88.6708 280.535C88.6708 280.787 88.6708 280.991 88.6708 281.156C88.6554 281.216 88.636 281.274 88.6127 281.331Z" fill="#FAFAFA"/>
<path d="M423.888 324.179H376.773V336.686H423.888V324.179Z" fill="#EBEBEB"/>
<path d="M403.967 349.864C403.963 349.789 403.963 349.715 403.967 349.64V348.999C403.967 348.406 403.967 347.59 403.967 346.54C403.967 344.373 403.919 341.273 403.88 337.357L404.025 337.502L356.91 337.6L357.153 337.357V343.693C357.153 345.782 357.153 347.833 357.153 349.844L356.92 349.611L390.496 349.718L400.413 349.786H403.086H403.793H404.035C404.035 349.786 403.967 349.786 403.822 349.786H403.144H400.52L390.661 349.844L356.92 349.961H356.688V349.718C356.688 347.703 356.688 345.653 356.688 343.567V337.23L356.93 336.987L404.045 337.084H404.2V337.23C404.2 341.186 404.141 344.315 404.122 346.501C404.122 347.532 404.122 348.348 404.122 348.921C404.122 349.174 404.122 349.378 404.122 349.543C404.122 349.708 403.977 349.874 403.967 349.864Z" fill="#FAFAFA"/>
<path d="M222.2 25.2479C222.191 25.1736 222.191 25.0986 222.2 25.0244V24.383C222.2 23.7902 222.2 22.9738 222.2 21.9243C222.2 19.7668 222.151 16.657 222.122 12.7406L222.268 12.8864L175.153 12.9836L175.395 12.7406V25.2479L175.163 25.0147L208.738 25.1216L218.646 25.1896H221.328H222.026H222.277C222.277 25.1896 222.21 25.1896 222.055 25.1896H221.386H218.762L208.903 25.2576L175.163 25.3645H174.92V12.7503L175.163 12.5171L222.277 12.6046H222.423V12.7503C222.423 16.7056 222.364 19.8349 222.345 22.0215C222.345 23.0613 222.345 23.8679 222.345 24.451V25.0633C222.303 25.1294 222.254 25.1913 222.2 25.2479Z" fill="#FAFAFA"/>
<path d="M228.553 12.7405C228.539 12.6634 228.539 12.5844 228.553 12.5073C228.553 12.3226 228.553 12.1088 228.553 11.8465C228.553 11.2245 228.553 10.3887 228.504 9.33916C228.504 7.14286 228.456 4.04276 228.417 0.233236L228.553 0.388727L200.245 0.456753C200.023 0.670553 200.536 0.165208 200.478 0.213799V6.64723C200.478 8.74636 200.478 10.7677 200.478 12.7114L200.245 12.4879L220.505 12.5948L226.403 12.6531H227.991H228.563C228.392 12.6663 228.22 12.6663 228.049 12.6531H226.5L220.689 12.7211L200.274 13.0224H200.052V12.7891C200.052 10.8455 200.052 8.8241 200.052 6.72498V0.242954L200.294 0L228.601 0.0680269H228.776V0.242954C228.776 4.13022 228.708 7.23032 228.688 9.44606C228.688 10.4859 228.688 11.312 228.64 11.9145C228.625 12.1911 228.596 12.4668 228.553 12.7405Z" fill="#FAFAFA"/>
<path d="M51.8215 385.16C51.8174 385.086 51.8174 385.011 51.8215 384.937V384.295C51.8215 383.703 51.8215 382.886 51.8215 381.827C51.8215 379.669 51.8215 376.569 51.7343 372.653L51.8796 372.799L4.76479 372.896L5.0069 372.653V378.989C5.0069 381.075 5.0069 383.126 5.0069 385.141L4.77448 384.908L38.3504 385.014L48.2673 385.083H50.9402H51.6472H51.8893C51.8893 385.083 51.8215 385.083 51.6762 385.083H50.9402H48.306L38.4473 385.151L4.70668 385.257H4.47426V379.009C4.47426 377.969 4.47426 376.91 4.47426 375.85V372.672L4.71637 372.429L51.8312 372.527H51.9861V372.672C51.9861 376.628 51.9183 379.757 51.899 381.934C51.899 382.974 51.899 383.79 51.899 384.363V384.985C51.8312 385.102 51.8312 385.17 51.8215 385.16Z" fill="#FAFAFA"/>
<path d="M58.2132 372.653C58.2132 372.653 58.2132 372.566 58.2132 372.42C58.2132 372.274 58.2132 372.021 58.2132 371.749C58.2132 371.137 58.2132 370.301 58.2132 369.242C58.2132 367.055 58.1551 363.955 58.1164 360.146L58.2907 360.321L29.9831 360.389L30.2252 360.146V363.382C30.2252 364.461 30.2252 365.52 30.2252 366.569C30.2252 368.659 30.2252 370.69 30.2252 372.634L30.0024 372.4L50.2526 372.517L56.1504 372.575H57.7387H58.3101C58.1392 372.589 57.9676 372.589 57.7968 372.575H56.257L50.4463 372.634L30.0412 372.75H29.8088V372.517C29.8088 370.573 29.8088 368.542 29.8088 366.453V360.029L30.0509 359.786L58.3585 359.854H58.5328V360.029C58.5328 363.916 58.465 367.016 58.436 369.232C58.436 370.272 58.436 371.098 58.436 371.701C58.3858 372.023 58.3113 372.342 58.2132 372.653Z" fill="#FAFAFA"/>
<path d="M410.03 25.2671H362.915V37.7744H410.03V25.2671Z" fill="#EBEBEB"/>
<path d="M390.109 50.9233C390.1 50.8491 390.1 50.7741 390.109 50.6998V50.0584C390.109 49.4656 390.109 48.6493 390.109 47.59C390.109 45.4326 390.06 42.3325 390.031 38.416L390.177 38.5618L343.062 38.659C343.168 38.5521 342.82 38.8922 343.294 38.416V50.9233L343.062 50.6901L376.638 50.797L386.545 50.865H389.227H389.925H390.177C390.103 50.8742 390.028 50.8742 389.954 50.865H389.286H386.651L376.725 51.0788L342.984 51.1857H342.742V38.4646L342.984 38.2217L390.099 38.3189H390.283V38.4646C390.283 42.4102 390.215 45.5492 390.206 47.7261C390.206 48.7659 390.206 49.5725 390.206 50.1556C390.206 50.4083 390.206 50.6124 390.206 50.7776C390.177 50.8285 390.145 50.8772 390.109 50.9233Z" fill="#FAFAFA"/>
<path d="M441.611 439.466C441.611 439.612 342.742 439.728 220.805 439.728C98.8685 439.728 0 439.65 0 439.466C0 439.281 98.8394 439.213 220.805 439.213C342.771 439.213 441.611 439.33 441.611 439.466Z" fill="#060606"/>
<path d="M208.186 47.0261L162.873 215.889V439.465H366.537V47.9882L208.186 47.0261Z" fill="#FAFAFA"/>
<path d="M169.749 219.951L204.623 84.1399L223.914 109.456L198.686 208.844L169.749 219.951Z" fill="#FAFAFA"/>
<path d="M204.623 84.1399H300.663L296.034 109.349L223.914 109.456L204.623 84.1399Z" fill="#FAFAFA"/>
<g opacity="0.3">
<path d="M169.749 219.951L204.623 84.1399L223.914 109.456L198.686 208.844L169.749 219.951Z" fill="#060606"/>
</g>
<g opacity="0.3">
<path d="M204.623 84.1399H300.663L296.034 109.349L223.914 109.456L204.623 84.1399Z" fill="#060606"/>
</g>
<path d="M198.686 208.843H278.186L296.034 109.349L223.914 109.456L198.686 208.843Z" fill="#FAFAFA"/>
<path d="M169.749 219.951H278.234V208.844H198.686L169.749 219.951Z" fill="#FAFAFA"/>
<path d="M177.981 418.183H179.705H184.702L203.809 418.134L273.431 418.027L273.237 418.222C273.237 374.587 273.237 317.901 273.179 256.152L273.431 256.404H177.981L178.213 256.171C178.165 303.674 178.126 344.169 178.097 372.789C178.097 387.114 178.048 398.465 178.039 406.249C178.039 410.136 178.039 413.129 178.039 415.16C178.039 416.132 178.039 416.939 178.039 417.464C178.039 417.988 178.039 418.251 178.039 418.251C178.039 418.251 178.039 417.998 178.039 417.493C178.039 416.988 178.039 416.21 178.039 415.219C178.039 413.197 178.039 410.214 178.039 406.356C178.039 398.581 178.039 387.25 177.981 372.945C177.981 344.286 177.913 303.742 177.864 256.171V255.928H273.682V256.181C273.682 317.93 273.682 374.616 273.624 418.251V418.455H273.431L203.703 418.348L184.624 418.27H179.656L177.981 418.183Z" fill="#060606"/>
<g opacity="0.3">
<path d="M287.947 439.465V208.843L317.098 47.687L366.537 47.9883V439.465H287.947Z" fill="#060606"/>
</g>
<path d="M211.992 75.9476L216.341 59.4558H304.469L300.227 75.9476H211.992Z" fill="#222222"/>
<path d="M169.749 219.951C169.749 219.951 169.923 219.864 170.262 219.728L171.763 219.116L177.574 216.842L198.657 208.659L198.541 208.795C201.988 195.277 206.453 177.823 211.315 158.814C216.05 140.457 220.408 123.547 223.837 110.224V110.389L209.842 91.2925C208.196 89.0282 206.937 87.2498 205.969 86.0253C205.552 85.4325 205.223 84.966 205 84.6356C204.778 84.3051 204.681 84.1497 204.681 84.1497C204.681 84.1497 204.816 84.2954 205.049 84.5967C205.281 84.898 205.649 85.3741 206.085 85.9572L209.959 91.1565L224.156 110.204L224.214 110.272V110.369C220.815 123.683 216.467 140.603 211.789 158.96C206.889 177.959 202.395 195.403 198.909 208.912V209.009H198.812L177.613 217.104L171.802 219.271L170.282 219.825C169.933 219.903 169.749 219.951 169.749 219.951Z" fill="#060606"/>
<path d="M222.142 142.789C221.851 143.81 216.738 163.314 216.738 163.314H228.708L234.015 142.789H222.142Z" fill="#637779"/>
<path d="M235.07 140.564H222.151L222.887 138.037H235.806L235.07 140.564Z" fill="#637779"/>
<path d="M235.535 139.232C233.392 139.483 231.232 139.567 229.076 139.485C226.919 139.567 224.76 139.482 222.616 139.232C224.76 138.983 226.919 138.898 229.076 138.98C231.232 138.898 233.392 138.982 235.535 139.232Z" fill="#060606"/>
<path d="M226.287 171.662H213.368L214.094 169.135H227.013L226.287 171.662Z" fill="#637779"/>
<path d="M226.752 170.33C224.608 170.586 222.448 170.67 220.292 170.583C218.136 170.671 215.976 170.586 213.832 170.33C215.976 170.08 218.136 169.996 220.292 170.078C222.448 169.996 224.608 170.081 226.752 170.33Z" fill="#060606"/>
<path d="M245.365 201.759H208.186L209.349 195.471H246.537L245.365 201.759Z" fill="#637779"/>
<path d="M244.116 198.639C244.116 198.775 236.61 198.892 227.362 198.892C218.113 198.892 210.598 198.775 210.598 198.639C210.598 198.503 218.103 198.387 227.362 198.387C236.62 198.387 244.116 198.474 244.116 198.639Z" fill="#060606"/>
<path d="M222.616 150.535H229.744L227.149 146.365L222.616 150.535Z" fill="#060606"/>
<path d="M223.914 150.534L221.338 159.776H226.354L228.427 150.534H223.914Z" fill="#060606"/>
<path d="M244.445 121.963L230.528 179.115H283.522L294.029 122.216L244.445 121.963Z" fill="#060606"/>
<path d="M250.401 127.619L239.632 172.906L284.655 172.983L293.061 127.434L250.401 127.619Z" fill="#637779"/>
<path d="M244.561 122.313C245.697 123.02 246.738 123.869 247.66 124.84C248.695 125.693 249.618 126.672 250.411 127.755C249.278 127.044 248.237 126.196 247.312 125.228C246.281 124.372 245.357 123.393 244.561 122.313Z" fill="#637779"/>
<path d="M239.37 172.604C238.188 174.065 236.805 175.351 235.264 176.424C233.816 177.619 232.205 178.601 230.48 179.339C230.403 179.213 232.514 177.872 234.954 176.006C237.395 174.14 239.264 172.497 239.37 172.604Z" fill="#637779"/>
<g opacity="0.1">
<path d="M169.749 219.951H278.234V208.844H198.686L169.749 219.951Z" fill="#060606"/>
</g>
<path d="M259.775 147.045C260.165 147.209 260.566 147.343 260.976 147.444C261.483 147.561 261.982 147.714 262.468 147.901C262.861 148.061 263.21 148.315 263.485 148.639C263.775 149.002 263.926 149.457 263.911 149.922C263.922 150.34 263.841 150.756 263.674 151.139C263.506 151.522 263.256 151.863 262.942 152.138C262.185 152.764 261.249 153.135 260.269 153.197L259.979 154.645H258.391L258.681 153.197C258.086 153.153 257.497 153.039 256.928 152.857C256.449 152.719 255.995 152.506 255.582 152.225L256.628 150.282C257.087 150.584 257.59 150.814 258.119 150.962C258.635 151.116 259.17 151.195 259.708 151.195C260.113 151.217 260.517 151.144 260.889 150.981C261.009 150.931 261.111 150.848 261.185 150.741C261.259 150.634 261.301 150.509 261.306 150.379C261.301 150.264 261.263 150.152 261.196 150.059C261.129 149.966 261.036 149.894 260.928 149.854C260.544 149.685 260.145 149.552 259.737 149.456C259.229 149.328 258.731 149.166 258.245 148.97C257.85 148.799 257.499 148.539 257.219 148.212C256.916 147.84 256.761 147.369 256.783 146.89C256.771 146.459 256.858 146.031 257.036 145.639C257.214 145.247 257.478 144.9 257.81 144.626C258.604 143.99 259.583 143.628 260.599 143.596L260.88 142.157H262.448L262.158 143.625C263.01 143.681 263.837 143.941 264.569 144.383L263.601 146.326C263.234 146.095 262.836 145.919 262.419 145.802C261.98 145.685 261.528 145.626 261.073 145.627C260.648 145.602 260.224 145.689 259.843 145.879C259.716 145.937 259.607 146.027 259.526 146.142C259.446 146.257 259.399 146.391 259.388 146.53C259.395 146.645 259.435 146.755 259.504 146.847C259.573 146.938 259.668 147.007 259.775 147.045Z" fill="white"/>
<path d="M268.356 147.045C268.749 147.209 269.153 147.342 269.566 147.444C270.073 147.563 270.571 147.715 271.058 147.901C271.433 148.069 271.764 148.322 272.026 148.639C272.325 148.997 272.477 149.456 272.452 149.922C272.458 150.339 272.375 150.753 272.208 151.135C272.041 151.518 271.794 151.86 271.484 152.138C270.724 152.761 269.79 153.131 268.811 153.197L268.511 154.645H266.923L267.213 153.197C266.618 153.152 266.03 153.038 265.46 152.857C264.983 152.715 264.529 152.502 264.114 152.225L265.16 150.282C266.083 150.872 267.154 151.189 268.249 151.195C268.651 151.216 269.052 151.143 269.421 150.981C269.542 150.933 269.646 150.851 269.72 150.743C269.794 150.636 269.835 150.509 269.838 150.379C269.833 150.264 269.795 150.152 269.728 150.059C269.661 149.966 269.567 149.894 269.46 149.854C269.079 149.685 268.684 149.552 268.278 149.456C267.768 149.328 267.266 149.166 266.777 148.97C266.383 148.796 266.033 148.537 265.751 148.212C265.451 147.839 265.3 147.368 265.325 146.89C265.313 146.46 265.399 146.033 265.575 145.641C265.751 145.249 266.013 144.902 266.342 144.626C267.14 143.989 268.121 143.628 269.14 143.596L269.421 142.157H271.009L270.719 143.625C271.571 143.681 272.398 143.941 273.13 144.383L272.162 146.326C271.791 146.097 271.39 145.921 270.971 145.802C270.532 145.684 270.079 145.625 269.625 145.627C269.203 145.602 268.782 145.689 268.404 145.879C268.276 145.935 268.165 146.025 268.085 146.14C268.004 146.255 267.957 146.39 267.949 146.53C267.957 146.647 268.001 146.759 268.073 146.851C268.146 146.943 268.244 147.011 268.356 147.045Z" fill="white"/>
<path d="M276.975 147.045C277.364 147.209 277.766 147.343 278.176 147.444C278.683 147.561 279.181 147.714 279.667 147.901C280.06 148.061 280.409 148.315 280.684 148.639C280.975 149.002 281.126 149.457 281.11 149.922C281.116 150.339 281.033 150.753 280.866 151.135C280.699 151.518 280.452 151.86 280.142 152.138C279.379 152.763 278.442 153.133 277.459 153.197L277.169 154.645H275.58L275.871 153.197C275.275 153.153 274.687 153.039 274.118 152.857C273.64 152.717 273.186 152.504 272.772 152.225L273.818 150.282C274.278 150.582 274.781 150.812 275.309 150.962C275.828 151.117 276.366 151.195 276.907 151.195C277.309 151.216 277.71 151.143 278.079 150.981C278.2 150.933 278.304 150.851 278.378 150.743C278.452 150.636 278.493 150.509 278.496 150.379C278.491 150.264 278.453 150.152 278.386 150.059C278.319 149.966 278.225 149.894 278.118 149.854C277.734 149.685 277.335 149.552 276.927 149.456C276.419 149.328 275.921 149.166 275.435 148.97C275.041 148.796 274.691 148.537 274.409 148.212C274.106 147.84 273.951 147.369 273.973 146.89C273.961 146.459 274.048 146.031 274.226 145.639C274.404 145.247 274.668 144.9 274.999 144.626C275.794 143.99 276.772 143.628 277.789 143.596L278.069 142.157H279.658L279.367 143.625C280.22 143.68 281.047 143.94 281.779 144.383L280.81 146.326C280.443 146.095 280.045 145.919 279.629 145.802C279.189 145.685 278.737 145.626 278.282 145.627C277.858 145.602 277.434 145.689 277.053 145.879C276.925 145.937 276.816 146.027 276.736 146.142C276.656 146.257 276.608 146.391 276.597 146.53C276.603 146.644 276.642 146.753 276.71 146.845C276.777 146.936 276.869 147.006 276.975 147.045Z" fill="white"/>
<path d="M247.854 71.1468H243.903L242.837 72.9543H240.068L245.985 63.6541H248.571L250.827 72.9543H248.222L247.854 71.1468ZM247.457 69.2031L246.837 66.1808L245.016 69.2129L247.457 69.2031Z" fill="white"/>
<path d="M254.536 65.7337H251.689L252.105 63.6541H260.415L259.989 65.7337H257.161L255.718 72.9543H253.093L254.536 65.7337Z" fill="white"/>
<path d="M272.133 63.6541L270.302 72.9543H267.872L268.84 68.0953L265.751 72.0797H264.598L262.913 68.0953L261.945 72.9543H259.543L261.402 63.6541H263.533L265.702 69.0379L269.915 63.6541H272.133Z" fill="white"/>
<g opacity="0.3">
<path d="M263.601 327.444C263.601 328.33 263.339 329.196 262.848 329.933C262.358 330.67 261.661 331.244 260.845 331.583C260.029 331.922 259.131 332.011 258.265 331.838C257.399 331.665 256.604 331.239 255.979 330.612C255.355 329.986 254.93 329.187 254.758 328.318C254.585 327.449 254.674 326.548 255.012 325.73C255.35 324.911 255.922 324.211 256.656 323.719C257.39 323.227 258.253 322.964 259.136 322.964C259.723 322.963 260.304 323.078 260.846 323.303C261.389 323.527 261.881 323.857 262.296 324.273C262.711 324.69 263.04 325.184 263.264 325.728C263.487 326.272 263.602 326.856 263.601 327.444Z" fill="#060606"/>
</g>
<path d="M278.186 208.843C278.186 208.98 260.424 209.096 238.479 209.096C216.534 209.096 198.773 208.98 198.773 208.843C198.773 208.707 216.534 208.591 238.479 208.591C260.424 208.591 278.186 208.707 278.186 208.843Z" fill="#060606"/>
<path d="M296.944 109.368C296.944 109.504 280.597 109.621 260.424 109.621C240.252 109.621 223.895 109.504 223.895 109.368C223.895 109.232 240.242 109.116 260.424 109.116C280.607 109.116 296.944 109.232 296.944 109.368Z" fill="#060606"/>
<path d="M204.167 237.104C204.156 236.893 204.156 236.682 204.167 236.472C204.167 236.025 204.167 235.432 204.167 234.684C204.167 233.11 204.119 230.874 204.09 228.076L204.235 228.231C196.643 228.289 184.566 228.328 170.989 228.328C171.095 228.221 170.727 228.581 171.231 228.076V237.084L170.979 236.841L194.657 236.948L201.659 237.026H203.596H204.274C204.071 237.038 203.867 237.038 203.664 237.026H201.814L194.87 237.094L171.018 237.211H170.775V232.653C170.775 231.895 170.775 231.137 170.775 230.369V228.076C171.279 227.57 170.921 227.939 171.037 227.823C184.595 227.823 196.691 227.823 204.284 227.92H204.342V228.066C204.342 230.903 204.284 233.168 204.264 234.771C204.264 235.5 204.264 236.083 204.264 236.521C204.258 236.718 204.226 236.915 204.167 237.104Z" fill="#060606"/>
<path d="M201.804 232.323C201.804 232.459 195.577 232.575 187.888 232.575C180.198 232.575 173.981 232.459 173.981 232.323C173.981 232.187 180.208 232.07 187.888 232.07C195.568 232.07 201.804 232.177 201.804 232.323Z" fill="#060606"/>
<path d="M165.236 82.9249C159.367 83.2651 155.406 82.1766 149.964 79.3681L140.763 82.4973L143.417 73.1679C140.105 69.1834 139.233 64.9657 138.914 59.3875C138.631 54.4484 139.814 49.5361 142.313 45.2716C144.812 41.0072 148.515 37.5821 152.954 35.4294C157.393 33.2768 162.368 32.4933 167.25 33.178C172.133 33.8627 176.704 35.9849 180.384 39.2762C184.065 42.5675 186.691 46.8801 187.929 51.6687C189.167 56.4573 188.963 61.5068 187.341 66.1788C185.72 70.8508 182.754 74.9354 178.82 77.9162C174.885 80.897 170.158 82.64 165.236 82.9249Z" fill="white"/>
<path d="M165.236 82.9249C165.378 82.8845 165.524 82.8585 165.672 82.8472L166.921 82.682C167.202 82.682 167.512 82.6237 167.889 82.5653L168.984 82.3224L170.272 82.0308L171.686 81.5644C172.797 81.191 173.882 80.7396 174.93 80.2136L176.673 79.2417C177.274 78.8822 177.845 78.4351 178.465 78.0172C181.493 75.7762 183.971 72.8708 185.71 69.5226C187.448 66.1744 188.402 62.4719 188.498 58.6975C188.527 57.5714 188.478 56.4447 188.353 55.3253C188.266 54.7519 188.256 54.1786 188.12 53.6052C187.985 53.0318 187.878 52.4682 187.762 51.8851C187.153 49.5472 186.214 47.3088 184.973 45.2378C183.646 43.071 182.015 41.1072 180.131 39.4069C178.129 37.66 175.868 36.237 173.429 35.1893C168.254 32.9935 162.489 32.6302 157.082 34.1591C154.945 34.7732 152.897 35.6652 150.99 36.8122C149.135 37.9491 147.435 39.3245 145.935 40.9035L145.373 41.4866L144.87 42.1086L143.901 43.3525L143.02 44.6742L142.594 45.3253L142.226 46.025C141.974 46.4818 141.732 46.9482 141.49 47.405C141.248 47.8617 141.093 48.3768 140.899 48.8336C140.511 49.7823 140.187 50.7563 139.93 51.749C139.02 55.5703 138.885 59.5362 139.533 63.4108C139.771 65.2215 140.236 66.9946 140.918 68.6878C141.584 70.2845 142.485 71.7718 143.591 73.0998L143.669 73.1873V73.2845C142.7 76.6275 141.819 79.7276 140.986 82.6139L140.754 82.3904L149.964 79.3H150.022H150.08C152.052 80.362 154.117 81.2403 156.249 81.924C157.824 82.4173 159.447 82.7431 161.091 82.8958C162.447 83.0124 163.483 83.0027 164.19 83.0027H164.984C165.074 82.9917 165.165 82.9917 165.255 83.0027C163.867 83.1319 162.47 83.1319 161.081 83.0027C159.411 82.8899 157.758 82.5934 156.152 82.1183C153.999 81.4489 151.911 80.5837 149.915 79.5333H150.031L140.841 82.682L140.521 82.7986L140.608 82.4584C141.422 79.5819 142.3 76.472 143.243 73.129V73.3136C142.104 71.955 141.171 70.4357 140.473 68.8044C139.776 67.0799 139.298 65.2744 139.049 63.4303C138.396 59.4937 138.534 55.4659 139.456 51.5838C139.719 50.593 140.042 49.6194 140.424 48.6684C140.628 48.1824 140.831 47.6965 141.025 47.2009C141.219 46.7053 141.528 46.2291 141.771 45.7918L142.148 45.0823L142.594 44.4118C142.884 43.9648 143.184 43.5177 143.475 43.061L144.502 41.7976L145.015 41.1562L145.586 40.5731C147.114 38.946 148.846 37.525 150.738 36.3457C152.684 35.1794 154.77 34.2681 156.946 33.6343C162.468 32.0761 168.355 32.4566 173.632 34.7131C176.119 35.7807 178.423 37.2334 180.46 39.0182C182.382 40.761 184.042 42.7742 185.389 44.9949C186.643 47.1155 187.586 49.4067 188.188 51.7976C188.314 52.3904 188.43 52.9735 188.556 53.5469C188.682 54.1203 188.701 54.7228 188.779 55.2962C189.248 59.6797 188.553 64.1098 186.763 68.1364C184.974 72.163 182.154 75.6424 178.591 78.2213C177.961 78.6392 177.38 79.0862 176.77 79.4361L174.998 80.4079C173.931 80.919 172.831 81.3573 171.705 81.7199L170.272 82.1669L168.984 82.439L167.87 82.6625C167.531 82.6625 167.212 82.7306 166.902 82.7597L165.633 82.8666C165.502 82.8971 165.37 82.9166 165.236 82.9249Z" fill="#060606"/>
<path d="M168.141 62.3032C167.253 63.1285 166.121 63.6403 164.916 63.7609V65.8406H162.699V63.8289C161.799 63.774 160.908 63.6142 160.045 63.3527C159.305 63.1389 158.603 62.8111 157.963 62.3809L159.154 59.6695C159.78 60.0934 160.465 60.421 161.188 60.6414C161.928 60.8723 162.698 60.9934 163.473 61.0009C164.897 61.0009 165.604 60.6414 165.604 59.9319C165.604 59.7456 165.545 59.564 165.435 59.4137C165.326 59.2633 165.171 59.1521 164.994 59.0962C164.369 58.8416 163.72 58.6496 163.057 58.5228C162.219 58.3498 161.394 58.1192 160.587 57.8328C159.928 57.5952 159.34 57.19 158.883 56.6569C158.381 56.047 158.125 55.2701 158.166 54.48C158.161 53.9632 158.261 53.4507 158.461 52.9743C158.661 52.498 158.956 52.0678 159.328 51.7104C160.255 50.8578 161.444 50.3472 162.699 50.2624V48.1924H164.945V50.2235C165.637 50.28 166.321 50.4037 166.989 50.5928C167.601 50.7665 168.19 51.0145 168.742 51.3313L167.541 54.0913C166.435 53.4505 165.186 53.0995 163.909 53.0709C163.353 53.0336 162.798 53.1478 162.302 53.4013C162.149 53.4852 162.021 53.609 161.933 53.7595C161.844 53.91 161.797 54.0817 161.798 54.2565C161.803 54.4345 161.863 54.6063 161.971 54.7477C162.079 54.889 162.228 54.9926 162.398 55.0437C163.025 55.2874 163.674 55.4697 164.335 55.5879C165.177 55.7598 166.005 55.9904 166.814 56.2779C167.462 56.5244 168.043 56.9206 168.509 57.4344C169.011 58.0443 169.267 58.8212 169.226 59.6112C169.235 60.1101 169.143 60.6055 168.957 61.068C168.77 61.5305 168.493 61.9506 168.141 62.3032Z" fill="#060606"/>
<path d="M399.289 381.72C400.61 382.351 401.789 383.243 402.756 384.344C403.723 385.445 404.458 386.731 404.916 388.124C405.825 390.918 406.083 393.883 405.672 396.793C405.032 402.42 401.846 408.095 398.418 412.595C393.692 408.464 392.607 401.244 392.288 397.551C391.774 391.72 394.389 380.845 399.289 381.72Z" fill="#1890FF"/>
<path d="M403.909 421.885C403.587 420.277 403.695 418.612 404.22 417.059C404.746 415.507 405.671 414.12 406.902 413.041C408.151 411.985 409.598 411.189 411.158 410.7C412.717 410.211 414.359 410.039 415.986 410.194C416.739 410.184 417.486 410.34 418.174 410.651C418.862 410.962 419.473 411.419 419.966 411.992C420.334 412.597 420.534 413.291 420.544 414C420.554 414.71 420.375 415.409 420.024 416.025C419.307 417.243 418.281 418.249 417.051 418.94C412.964 421.516 408.528 423.255 403.909 421.856" fill="#1890FF"/>
<path d="M397.846 439.135C397.87 438.745 397.929 438.358 398.021 437.978C398.166 437.172 398.36 436.122 398.592 434.859C399.119 431.379 400.205 428.009 401.807 424.878C403.47 421.747 405.933 419.117 408.945 417.259C409.859 416.716 410.835 416.282 411.85 415.967C412.209 415.85 412.499 415.802 412.693 415.753C412.792 415.737 412.894 415.737 412.993 415.753C411.642 416.214 410.344 416.817 409.119 417.551C406.211 419.446 403.826 422.047 402.185 425.112C400.614 428.213 399.507 431.53 398.902 434.956C398.612 436.268 398.379 437.327 398.205 438.056C398.121 438.427 398.001 438.788 397.846 439.135Z" fill="#060606"/>
<path d="M398.031 390.165C398.062 390.332 398.081 390.501 398.089 390.67C398.089 391.049 398.137 391.526 398.166 392.128C398.234 393.382 398.311 395.209 398.379 397.463C398.534 401.973 398.641 408.202 398.612 415.082C398.583 421.963 398.418 428.202 398.234 432.711C398.137 434.966 398.05 436.793 397.972 438.046C397.972 438.639 397.895 439.125 397.876 439.494C397.875 439.665 397.852 439.835 397.808 440C397.793 439.832 397.793 439.663 397.808 439.494C397.808 439.115 397.808 438.639 397.808 438.037C397.808 436.725 397.876 434.917 397.934 432.702C398.04 428.192 398.166 421.963 398.195 415.082C398.224 408.202 398.195 401.982 398.089 397.473C398.089 395.257 398.021 393.44 398.001 392.128C398.001 391.535 398.001 391.049 398.001 390.68C397.986 390.508 397.996 390.334 398.031 390.165Z" fill="#060606"/>
<path d="M395.735 425.306C395.165 421.896 393.793 418.672 391.733 415.9C389.674 413.129 386.985 410.889 383.891 409.368C382.313 408.61 380.25 408.114 378.962 409.29C377.674 410.466 377.945 412.585 378.584 414.227C379.971 417.624 382.328 420.534 385.36 422.588C388.391 424.643 391.961 425.751 395.619 425.772" fill="#1890FF"/>
<path d="M384.656 414.703C384.99 414.825 385.313 414.971 385.625 415.141C386.014 415.322 386.393 415.526 386.758 415.753C387.174 416.015 387.726 416.278 388.191 416.657C388.768 417.037 389.321 417.452 389.847 417.901C390.46 418.402 391.046 418.938 391.6 419.504C392.869 420.805 393.986 422.246 394.931 423.8C395.856 425.369 396.594 427.043 397.13 428.785C397.361 429.544 397.545 430.316 397.682 431.098C397.819 431.775 397.916 432.46 397.972 433.148C398.029 433.717 398.055 434.288 398.05 434.859C398.077 435.286 398.077 435.715 398.05 436.142C398.048 436.511 398.006 436.879 397.924 437.24C397.837 437.24 397.992 435.675 397.721 433.187C397.65 432.508 397.541 431.833 397.391 431.166C397.241 430.401 397.047 429.645 396.81 428.902C395.732 425.472 393.868 422.343 391.368 419.767C390.827 419.204 390.258 418.669 389.663 418.163C389.121 417.667 388.569 417.269 388.065 416.89C386.041 415.432 384.618 414.781 384.656 414.703Z" fill="#060606"/>
<path d="M86.0559 381.565L60.2856 405.209L89.4455 437.532C92.3508 434.548 83.4411 412.216 83.4411 412.216L99.5367 396.589L86.0559 381.565Z" fill="#637779"/>
<path d="M75.8195 400.952C75.4436 400.729 74.9992 400.653 74.5708 400.737C74.1423 400.821 73.7596 401.06 73.4952 401.409C73.258 401.776 73.1699 402.22 73.2492 402.651C73.3285 403.081 73.569 403.464 73.9213 403.722C74.319 403.962 74.7919 404.045 75.2471 403.953C75.7023 403.861 76.1068 403.602 76.3812 403.226C76.5899 402.819 76.6328 402.346 76.5009 401.907C76.3691 401.468 76.0727 401.098 75.6742 400.874" fill="white"/>
<path d="M60.2856 405.209L62.9489 402.721L89.8038 434.878C89.8038 434.878 90.4624 436.89 89.3002 437.638L60.2856 405.209Z" fill="#060606"/>
<path d="M84.0803 412.595C83.9157 412.731 83.1119 412.002 81.9304 411.691C80.7489 411.38 79.6836 411.555 79.6158 411.361C79.548 411.166 80.6714 410.564 82.1241 410.972C83.5767 411.38 84.2546 412.498 84.0803 412.595Z" fill="white"/>
<path d="M85.7364 417.298C85.6202 417.473 84.7679 417.036 83.5864 417.104C82.4049 417.172 81.5914 417.658 81.4559 417.493C81.3203 417.327 82.0466 416.424 83.4799 416.375C84.9132 416.326 85.8816 417.114 85.7364 417.298Z" fill="white"/>
<path d="M83.4314 422.848C83.2378 422.712 83.7026 421.876 85.0875 421.429C86.3077 421.04 87.3246 421.477 87.2471 421.662C87.1696 421.847 86.2787 421.808 85.3102 422.138C84.3418 422.469 83.5864 422.993 83.4314 422.848Z" fill="white"/>
<path d="M87.6151 408.863C87.4118 408.921 86.976 407.998 86.114 407.162C85.2521 406.326 84.3418 405.889 84.3999 405.685C84.458 405.481 85.6201 405.636 86.6273 406.657C87.6345 407.677 87.8088 408.824 87.6151 408.863Z" fill="white"/>
<path d="M90.7432 404.665C90.6851 404.723 90.0169 404.189 89.2906 403.042C88.8834 402.36 88.5583 401.633 88.3221 400.875C88.1718 400.424 88.0553 399.963 87.9735 399.495C87.9119 399.224 87.8923 398.945 87.9154 398.669C87.9303 398.463 88.014 398.269 88.1529 398.117C88.2918 397.965 88.4777 397.865 88.6804 397.833C88.8593 397.815 89.0399 397.839 89.2079 397.903C89.376 397.967 89.5269 398.07 89.6489 398.202C89.837 398.404 89.9937 398.633 90.1137 398.882C90.3415 399.304 90.5296 399.747 90.6754 400.204C90.9258 400.969 91.0501 401.77 91.0434 402.575C91.1158 403.32 90.9604 404.069 90.598 404.723C90.4817 404.723 90.598 403.887 90.5205 402.604C90.4499 401.858 90.2872 401.124 90.0363 400.418C89.8825 400.009 89.698 399.613 89.4842 399.232C89.2615 398.814 89 398.513 88.7676 398.562C88.5352 398.61 88.6514 398.562 88.6223 398.766C88.6075 398.971 88.6238 399.178 88.6707 399.378C88.7361 399.815 88.8299 400.246 88.9516 400.671C89.1559 401.398 89.4282 402.104 89.7651 402.779C90.1356 403.384 90.4625 404.014 90.7432 404.665Z" fill="white"/>
<path d="M90.3365 404.665C90.259 404.665 90.5398 403.81 91.5083 402.818C92.072 402.252 92.7268 401.786 93.4452 401.438C93.8762 401.233 94.3274 401.074 94.7913 400.962C95.0841 400.857 95.3987 400.829 95.7054 400.88C96.012 400.931 96.3007 401.06 96.5442 401.254C96.6765 401.398 96.7621 401.58 96.7898 401.774C96.8175 401.968 96.7859 402.166 96.6991 402.342C96.5873 402.597 96.4371 402.833 96.2537 403.042C95.8393 403.552 95.328 403.975 94.7494 404.285C94.1709 404.596 93.5366 404.787 92.8835 404.849C92.1399 404.997 91.3684 404.847 90.7335 404.432C91.4256 404.436 92.1174 404.404 92.806 404.334C93.9514 404.124 94.9828 403.506 95.7113 402.595C96.0019 402.235 96.1665 401.856 96.0115 401.759C95.8559 401.669 95.6823 401.614 95.5032 401.599C95.324 401.584 95.1438 401.609 94.9753 401.672C94.5524 401.767 94.1378 401.897 93.7357 402.06C93.0406 402.351 92.3888 402.737 91.7988 403.207C90.8691 403.975 90.4333 404.665 90.3365 404.665Z" fill="white"/>
<path d="M79.8288 404.354L80.1581 439.397L123.603 439.213C123.331 435.044 100.825 426.783 100.825 426.783L101.532 404.324L79.8288 404.354Z" fill="#637779"/>
<path d="M87.373 424.947C86.9555 425.083 86.6034 425.371 86.3851 425.753C86.1668 426.136 86.0978 426.586 86.1915 427.017C86.3015 427.44 86.5709 427.804 86.9429 428.033C87.3149 428.261 87.7607 428.336 88.1865 428.241C88.6301 428.107 89.0075 427.811 89.2442 427.412C89.4809 427.013 89.5596 426.539 89.4649 426.084C89.3033 425.654 88.9816 425.304 88.5677 425.108C88.1538 424.913 87.6802 424.886 87.2471 425.034" fill="white"/>
<path d="M80.1581 439.465L80.1 435.714L121.888 437.143C121.888 437.143 123.825 437.988 123.603 439.358L80.1581 439.465Z" fill="#060606"/>
<path d="M101.522 426.56C101.522 426.773 100.457 426.871 99.4205 427.531C98.3842 428.192 97.8225 429.115 97.6288 429.038C97.4352 428.96 97.7451 427.716 99.0137 426.909C100.282 426.103 101.57 426.365 101.522 426.56Z" fill="#060606"/>
<path d="M106.093 428.426C106.093 428.64 105.221 428.999 104.505 429.903C103.788 430.807 103.585 431.759 103.372 431.749C103.159 431.74 103.023 430.544 103.933 429.436C104.844 428.329 106.083 428.222 106.093 428.426Z" fill="#060606"/>
<path d="M108.698 433.887C108.504 433.936 108.204 432.916 108.698 431.711C109.192 430.505 110.228 430.068 110.315 430.243C110.403 430.418 109.802 431.05 109.347 432.012C108.892 432.974 108.911 433.868 108.698 433.887Z" fill="#060606"/>
<path d="M101.115 421.419C101.028 421.613 100.06 421.322 98.8588 421.419C97.6579 421.516 96.7282 421.895 96.612 421.71C96.4958 421.526 97.3964 420.739 98.8103 420.68C100.224 420.622 101.222 421.254 101.115 421.419Z" fill="#060606"/>
<path d="M78.812 204.47C78.812 204.47 76.0422 214.247 75.7227 214.946C72.8754 221.283 65.3506 236.948 65.3506 236.948C65.3506 236.948 59.6271 257.357 60.9055 266.958C62.1838 276.56 70.7448 342.332 70.7448 342.332C70.7448 342.332 69.0598 394.461 76.3812 417.658L77.737 423.809L102.229 419.446L107.662 290.398L122.605 205.082L78.812 204.47Z" fill="#060606"/>
<path d="M139.94 216.132C139.94 216.132 150.709 304.004 152.046 318.057C153.382 332.109 102.519 407.027 102.519 407.027L81.0781 381.604L113.792 320.583L102.771 259.796L117.298 204.957L137.916 205.199L139.94 216.132Z" fill="#060606"/>
<path d="M72.6333 397.91C72.6581 398.509 72.7163 399.106 72.8076 399.699C72.9626 400.874 73.2434 402.614 73.6502 404.83C74.4637 409.281 75.7904 415.734 77.524 423.8V423.965H77.6886L102.19 419.66H102.384V419.475C103.072 402.604 103.885 382.439 104.757 360.816C105.657 337.551 106.5 315.976 107.187 298.28C109.018 284.062 110.538 272.303 111.604 264.072C112.117 259.99 112.514 256.783 112.795 254.567C112.921 253.489 113.017 252.624 113.095 252.07C113.172 251.516 113.172 251.215 113.172 251.215C113.172 251.215 113.105 251.496 113.017 252.06C112.93 252.624 112.814 253.479 112.659 254.548C112.349 256.754 111.913 259.961 111.342 264.043C110.238 272.264 108.65 284.013 106.732 298.221C106.016 315.918 105.144 337.493 104.205 360.758C103.362 382.381 102.578 402.546 101.919 419.417L102.113 419.193L77.6305 423.615L77.8339 423.751C76.0132 415.695 74.638 409.252 73.7664 404.82C73.3306 402.595 73.011 400.884 72.7979 399.718C72.7011 399.135 72.643 398.688 72.6043 398.396C72.6228 398.235 72.6325 398.073 72.6333 397.91Z" fill="#637779"/>
<path d="M93.7744 52.4002C93.7472 50.6085 93.1233 48.8775 92.0022 47.4828C90.826 45.8886 89.2342 44.6511 87.4021 43.9065C85.7045 43.2432 83.8532 43.081 82.0668 43.439C80.2803 43.7971 78.6332 44.6605 77.3198 45.9274C76.0064 47.1943 75.0816 48.8117 74.6544 50.5889C74.2273 52.366 74.3157 54.2287 74.9092 55.9571C76.0907 59.3973 80.4099 62.8958 84.0125 63.2554L89.4552 59.1058C91.7213 57.5703 93.7163 55.1796 93.7744 52.4002Z" fill="#060606"/>
<path d="M79.1413 44.9269C79.1413 44.9269 79.335 44.7326 79.7804 44.5479C80.4266 44.2903 81.1194 44.1711 81.8142 44.1981C82.8345 44.2366 83.8307 44.5199 84.7195 45.0241C85.8176 45.6669 86.7342 46.58 87.3827 47.6772C88.5131 49.6668 89.0098 51.9558 88.8063 54.2369C88.7886 55.1711 88.6219 56.0963 88.3124 56.9775C88.2156 56.9775 88.3802 55.9085 88.3996 54.2272C88.4976 52.0591 87.9948 49.9062 86.9469 48.0076C86.3481 46.9881 85.5104 46.1308 84.5064 45.51C83.6799 45.0153 82.7532 44.7131 81.7948 44.6257C80.8999 44.5824 80.0039 44.6841 79.1413 44.9269Z" fill="#637779"/>
<path d="M76.0132 57.8718C75.7591 57.1285 75.7355 56.3255 75.9454 55.5685C76.372 53.7097 77.4429 52.0633 78.9669 50.9233C80.4808 49.828 82.2169 49.0814 84.0513 48.7367C84.7876 48.5286 85.5543 48.4497 86.3174 48.5034C85.6092 48.7701 84.8805 48.9781 84.1384 49.1254C82.3983 49.5671 80.7559 50.3318 79.2962 51.38C77.8705 52.4473 76.8248 53.9465 76.3134 55.656C76.1686 56.3878 76.0683 57.1277 76.0132 57.8718Z" fill="#637779"/>
<path d="M102.868 53.3914C97.4836 52.5751 92.7963 54.7325 88.3415 57.8521C83.881 61.0661 80.5028 65.5681 78.657 70.7578C76.6029 76.1903 76.365 82.1457 77.9791 87.7258C78.8061 90.4928 80.1832 93.063 82.0275 95.2811C83.8717 97.4993 86.1448 99.3193 88.7095 100.631C95.7598 104.062 104.679 102.653 110.838 97.8035C116.998 92.9541 120.436 85.0338 120.6 77.1718C120.781 71.7092 119.246 66.3277 116.213 61.7879C114.683 59.5459 112.709 57.6436 110.415 56.1992C108.121 54.7547 105.555 53.799 102.878 53.3914" fill="#060606"/>
<path d="M87.925 72.0021C88.6707 69.9224 88.3318 67.629 88.603 65.4326C89.1937 60.5736 92.99 56.6863 97.4255 54.7427C101.551 52.9254 106.645 53.2072 111.681 54.7427C115.178 55.7366 118.32 57.7124 120.736 60.4375C122.277 62.2876 123.356 64.4806 123.881 66.8337C124.407 69.1868 124.365 71.6319 123.757 73.9652L99.1493 70.8262C96.9873 72.8956 94.5049 74.599 91.7988 75.87C91.0002 76.2413 90.1194 76.3987 89.2421 76.3267C88.8063 76.2806 88.3926 76.1107 88.0495 75.8371C87.7065 75.5634 87.4483 75.1972 87.3052 74.7815C87.0631 73.8292 87.6055 72.9059 87.925 72.0021Z" fill="#060606"/>
<path d="M112.34 61.5161L91.0338 66.4724C90.0352 66.5574 89.1046 67.0146 88.4252 67.7539C87.7459 68.4932 87.367 69.4609 87.3633 70.4666L88.419 117.007C88.4888 120.194 89.6055 123.268 91.5955 125.753L93.6873 128.358C98.4617 134.305 107.885 133.528 111.323 126.715C111.534 126.331 111.69 125.919 111.788 125.491C111.871 125.145 111.933 124.795 111.972 124.441C112.303 122.105 112.388 119.74 112.223 117.386C112.349 113.236 112.388 111.555 112.388 111.555C112.388 111.555 121.104 110.282 123.176 98.9214C124.193 93.2654 124.145 83.9554 123.777 76.3363C123.486 69.3878 119.119 60.933 112.34 61.5161Z" fill="#B5675E"/>
<path d="M120.678 84.9365C120.673 85.319 120.519 85.6844 120.25 85.9549C119.98 86.2253 119.616 86.3795 119.235 86.3845C119.049 86.3964 118.863 86.3705 118.687 86.3084C118.511 86.2463 118.35 86.1493 118.213 86.0232C118.075 85.8971 117.965 85.7444 117.887 85.5744C117.81 85.4044 117.768 85.2205 117.763 85.0337C117.768 84.6529 117.92 84.2889 118.188 84.0187C118.455 83.7485 118.817 83.5932 119.196 83.5857C119.382 83.5752 119.568 83.602 119.744 83.6645C119.92 83.727 120.081 83.8239 120.219 83.9496C120.357 84.0754 120.468 84.2274 120.547 84.3968C120.626 84.5662 120.67 84.7497 120.678 84.9365Z" fill="#060606"/>
<path d="M121.666 81.0495C121.482 81.2342 120.397 80.3887 118.828 80.3596C117.259 80.3304 116.087 81.0981 115.923 80.9038C115.758 80.7094 116.029 80.4762 116.543 80.1166C117.232 79.6618 118.042 79.4279 118.867 79.446C119.683 79.4633 120.473 79.7388 121.123 80.2332C121.598 80.6511 121.762 81.0495 121.666 81.0495Z" fill="#060606"/>
<path d="M106.645 84.9365C106.643 85.3181 106.491 85.6835 106.223 85.9542C105.955 86.225 105.592 86.3795 105.212 86.3845C105.026 86.395 104.84 86.3682 104.664 86.3057C104.488 86.2432 104.327 86.1463 104.189 86.0206C104.051 85.8949 103.939 85.7429 103.861 85.5734C103.782 85.404 103.737 85.2205 103.73 85.0337C103.737 84.652 103.892 84.288 104.161 84.0181C104.43 83.7481 104.793 83.5932 105.173 83.5857C105.359 83.5752 105.544 83.6021 105.719 83.6647C105.894 83.7273 106.055 83.8244 106.192 83.9502C106.33 84.076 106.44 84.2281 106.518 84.3975C106.596 84.5669 106.639 84.7501 106.645 84.9365Z" fill="#060606"/>
<path d="M106.761 80.972C106.577 81.1566 105.493 80.3208 103.924 80.2917C102.355 80.2625 101.183 81.0205 101.018 80.8262C100.854 80.6318 101.125 80.3986 101.638 80.0487C102.323 79.5851 103.137 79.3504 103.962 79.3782C104.778 79.3873 105.57 79.6599 106.219 80.1556C106.693 80.5444 106.858 80.8942 106.761 80.972Z" fill="#060606"/>
<path d="M111.691 92.8572C112.523 92.6179 113.382 92.4809 114.247 92.4491C114.644 92.4491 115.032 92.3422 115.1 92.0701C115.144 91.6561 115.059 91.2384 114.857 90.8747C114.499 89.9029 114.131 88.8631 113.734 87.7843C112.185 83.3917 111.061 79.7863 111.235 79.7183C111.41 79.6502 112.824 83.1682 114.383 87.5705L115.448 90.6706C115.694 91.1605 115.756 91.7228 115.623 92.2547C115.564 92.3964 115.473 92.5222 115.357 92.6219C115.241 92.7215 115.103 92.7922 114.954 92.8281C114.733 92.8864 114.505 92.9158 114.276 92.9155C113.416 93.0122 112.546 92.9926 111.691 92.8572Z" fill="#060606"/>
<path d="M112.388 111.526C107.031 111.499 101.787 109.978 97.2415 107.133C97.2415 107.133 100.902 115.112 112.31 114.286L112.388 111.526Z" fill="#894943"/>
<path d="M110.945 96.6474C110.654 96.2623 110.271 95.9583 109.83 95.7644C109.389 95.5705 108.906 95.493 108.427 95.5395C108.076 95.5689 107.736 95.6704 107.426 95.8376C107.116 96.0047 106.844 96.2341 106.626 96.5113C106.411 96.7699 106.28 97.0881 106.251 97.4233C106.222 97.7584 106.295 98.0946 106.461 98.3869C106.711 98.6718 107.039 98.8769 107.404 98.9771C107.768 99.0773 108.154 99.068 108.514 98.9506C109.262 98.6991 109.953 98.3029 110.548 97.7844C110.727 97.6627 110.882 97.5077 111.003 97.3276C111.059 97.2409 111.089 97.1396 111.089 97.0361C111.089 96.9326 111.059 96.8313 111.003 96.7445" fill="#894943"/>
<path d="M107.042 93.8581C107.304 93.8581 107.265 95.5587 108.698 96.7735C110.131 97.9883 111.952 97.8619 111.962 98.1049C111.972 98.3479 111.555 98.4256 110.78 98.4353C109.789 98.4368 108.827 98.0933 108.059 97.4635C107.327 96.8407 106.868 95.9542 106.781 94.9951C106.732 94.2662 106.926 93.8386 107.042 93.8581Z" fill="#060606"/>
<path d="M106.587 76.2973C106.432 76.7249 104.863 76.4917 103.023 76.6763C101.183 76.861 99.6723 77.3372 99.4301 76.9485C99.3333 76.7541 99.5948 76.3654 100.205 75.9766C101.017 75.4856 101.931 75.1866 102.875 75.1025C103.82 75.0183 104.771 75.151 105.657 75.4907C106.325 75.7531 106.664 76.103 106.587 76.2973Z" fill="#060606"/>
<path d="M121.356 74.1883C121.075 74.5381 120 74.1883 118.693 74.1008C117.385 74.0133 116.291 74.2952 116.049 73.9162C115.932 73.7315 116.116 73.3719 116.61 73.0415C117.261 72.6427 118.019 72.456 118.78 72.507C119.543 72.5293 120.279 72.7948 120.881 73.265C121.336 73.6441 121.482 74.0133 121.356 74.1883Z" fill="#060606"/>
<path d="M83.9351 68.756C86.0366 62.1671 95.5564 53.0709 102.452 53.5568L113.424 60.1943C113.064 62.073 112.204 63.819 110.935 65.2475C109.667 66.6759 108.037 67.7338 106.219 68.309C104.282 68.9018 101.938 69.0573 100.786 70.7385C99.6335 72.4197 100.282 74.9367 99.1881 76.6957C97.6579 79.1447 93.5033 79.0184 92.4089 81.6617C91.9054 82.8182 92.1668 84.1982 91.6439 85.3449C90.9466 86.8707 87.0922 88.8046 85.4943 88.2604C83.8963 87.7161 83.906 85.0339 83.383 83.6054C82.7345 81.9894 82.6559 80.1995 83.1603 78.5325C83.8188 75.3352 82.9376 71.895 83.9351 68.756Z" fill="#060606"/>
<path d="M90.1525 89.6501C90.1525 88.7949 89.184 86.7347 88.3899 86.6278C86.1625 86.2294 82.1338 86.3265 81.9788 92.0214C81.7657 99.7959 89.6005 98.4062 89.6198 98.1827C89.6392 97.9592 90.0653 92.585 90.1525 89.6501Z" fill="#B5675E"/>
<path d="M87.3343 95.1699C87.3343 95.1699 87.189 95.267 86.9566 95.3642C86.6453 95.4867 86.2994 95.4867 85.9882 95.3642C85.1747 95.0435 84.5258 93.7218 84.5258 92.3127C84.5234 91.6412 84.6689 90.9776 84.9519 90.3691C85.0388 90.1365 85.1785 89.9275 85.3601 89.7588C85.5417 89.5901 85.7601 89.4663 85.9978 89.3973C86.1544 89.3613 86.3185 89.3815 86.4618 89.4542C86.6051 89.527 86.7185 89.6478 86.7823 89.7957C86.8888 90.0095 86.8307 90.165 86.8694 90.1844C86.9082 90.2039 87.0438 90.0581 86.9857 89.7374C86.9465 89.5416 86.8444 89.3641 86.6951 89.2321C86.4826 89.0684 86.216 88.992 85.9494 89.0183C85.631 89.0762 85.332 89.2133 85.08 89.417C84.8279 89.6207 84.6307 89.8846 84.5064 90.1844C84.1623 90.8511 83.983 91.5911 83.9835 92.3419C83.9835 93.9162 84.7485 95.4031 85.8623 95.7529C86.0679 95.8212 86.2863 95.8418 86.501 95.8132C86.7157 95.7845 86.9211 95.7075 87.1019 95.5877C87.3149 95.3642 87.3537 95.1893 87.3343 95.1699Z" fill="#894943"/>
<path d="M111.129 57.8815C111.904 61.0302 116.765 65.005 118.877 67.4345C122.983 72.0603 123.806 73.6055 123.951 84.1206C125.782 80.4569 127.166 76.8708 126.953 72.7795C126.787 68.6382 125.116 64.7011 122.256 61.7105C120.821 60.2436 119.064 59.1335 117.125 58.4688C115.187 57.804 113.12 57.6029 111.09 57.8815" fill="#060606"/>
<path d="M77.2431 79.9321C77.8218 80.0226 78.3943 80.1491 78.9572 80.3111C80.4785 80.7269 82.0485 80.9361 83.6251 80.9331C84.7039 80.9119 85.7676 80.674 86.7532 80.2334C87.9415 79.7325 88.9533 78.8864 89.6585 77.8038C90.4236 76.6571 90.627 75.073 91.3049 73.557C91.6237 72.8045 92.1 72.1295 92.7016 71.5778C93.3031 71.0262 94.0158 70.6108 94.7913 70.3597C96.3602 69.9418 97.9 70.3597 99.1977 69.8447C100.495 69.3296 101.212 67.901 101.793 66.6279C102.294 65.3277 103.026 64.1293 103.953 63.0905C104.758 62.2705 105.711 61.611 106.761 61.1469C108.235 60.4558 109.886 60.2386 111.487 60.5249C111.923 60.5999 112.348 60.7238 112.756 60.8942C112.904 60.9408 113.045 61.0096 113.172 61.0983C113.172 61.1566 112.572 60.8942 111.468 60.7484C109.901 60.552 108.312 60.8224 106.897 61.5259C105.899 62.0008 104.998 62.6601 104.243 63.4695C103.367 64.482 102.678 65.6439 102.21 66.9001C101.918 67.6026 101.561 68.2761 101.144 68.9117C100.71 69.5638 100.088 70.0686 99.3624 70.3597C97.8806 70.9039 96.3311 70.5055 94.9172 70.9039C94.2033 71.1282 93.5463 71.5049 92.9912 72.0081C92.4362 72.5114 91.9964 73.1293 91.702 73.8194C91.0725 75.2091 90.8304 76.8515 89.9878 78.1148C89.2405 79.258 88.1673 80.1486 86.9082 80.6707C85.8724 81.1105 84.7595 81.3384 83.6348 81.3413C82.0288 81.3042 80.4367 81.0325 78.9088 80.5346C78.3665 80.3694 77.9404 80.2237 77.6595 80.1168C77.3787 80.0099 77.2334 79.9516 77.2431 79.9321Z" fill="#637779"/>
<path d="M81.9594 65.559C82.1613 64.7972 82.4886 64.0746 82.9279 63.421C84.8974 60.1226 87.9166 57.5858 91.4986 56.2199C92.2152 55.8985 92.982 55.7045 93.7647 55.6465C91.3211 56.5885 89.0351 57.8994 86.9856 59.5338C83.567 62.284 82.1144 65.6562 81.9594 65.559Z" fill="#FF725E"/>
<path d="M165.217 164.023L133.297 177.036L134.517 192.605L167.26 178.319L170.107 170.165L165.217 164.023Z" fill="#B5675E"/>
<path d="M157.091 165.899L159.474 185.675L139.427 198.095L137.635 172.264L157.091 165.899Z" fill="#637779"/>
<path d="M120.223 125.87C120.901 127.221 136.134 148.533 137.703 158.484C138.759 165.18 140.473 188.192 141.286 203.265C141.393 205.209 143.078 207.279 142.749 208.824C141.557 214.373 138.681 213.839 134.953 213.518L93.3096 212.332L74.8026 214.383L84.0706 186.647C84.0706 186.647 76.0713 150.185 74.8026 149.057C73.534 147.93 80.1194 117.979 80.1194 117.979L87.6345 117.289C87.6345 117.289 101.57 124.14 108.669 123.042C109.704 122.891 110.662 122.408 111.4 121.665C112.139 120.922 112.618 119.96 112.766 118.921L120.223 125.87Z" fill="#637779"/>
<path d="M183.104 165.433V164.023H202.366V165.433" fill="#060606"/>
<path d="M165.217 164.023L176.838 160.272L189.147 161.798C189.147 161.798 189.486 163.567 187.21 164.023C184.934 164.48 179.695 164.023 179.695 164.023C179.695 164.023 179.588 170.01 172.49 171.701L167.88 172.264L165.217 164.023Z" fill="#B5675E"/>
<path d="M183.801 164.218C183.801 164.218 184.324 164.14 184.673 165.627C184.819 166.853 184.669 168.096 184.237 169.252C184.237 169.252 184.837 171.467 183.801 172.264L182.774 173.061C182.774 173.061 182.707 176.424 181.68 177.327C180.654 178.231 172.141 181.215 172.141 181.215L165.701 178.571L168.151 171.39L178.329 165.053L179.734 164.033L183.801 164.218Z" fill="#B5675E"/>
<path d="M182.716 172.264C182.277 172.052 181.867 171.784 181.496 171.467C180.76 170.923 179.714 170.126 178.494 169.174H178.736C178.487 169.299 178.271 169.479 178.103 169.702C177.935 169.924 177.82 170.182 177.768 170.457C177.709 171.099 177.851 171.745 178.174 172.303C178.369 172.678 178.596 173.036 178.852 173.372L179.472 174.149L178.562 173.761C178.034 173.54 177.463 173.447 176.893 173.487C176.323 173.528 175.77 173.701 175.279 173.994L175.046 174.14L174.959 173.877C174.805 173.408 174.552 172.976 174.218 172.613C173.884 172.249 173.476 171.961 173.022 171.769C172.364 171.477 171.938 171.487 171.938 171.428C172.333 171.339 172.746 171.377 173.119 171.535C173.632 171.712 174.098 172.004 174.482 172.387C174.866 172.771 175.158 173.237 175.337 173.751L175.017 173.634C175.564 173.282 176.188 173.068 176.835 173.008C177.482 172.949 178.134 173.047 178.736 173.294L178.445 173.693C178.157 173.335 177.907 172.947 177.7 172.536C177.324 171.88 177.167 171.121 177.254 170.369C177.324 170.02 177.477 169.693 177.699 169.415C177.922 169.138 178.208 168.918 178.533 168.775L178.668 168.707L178.775 168.795C179.976 169.767 180.973 170.622 181.68 171.234C182.069 171.53 182.418 171.876 182.716 172.264Z" fill="#894943"/>
<path d="M178.63 168.989C178.213 168.631 177.915 168.152 177.777 167.619C177.67 167.319 177.63 167 177.658 166.683C177.687 166.365 177.783 166.058 177.942 165.782C178.382 165.134 179.043 164.671 179.801 164.48H179.927L180.034 164.577L180.266 164.791C181.754 166.015 183.131 167.367 184.382 168.834C182.794 167.742 181.303 166.512 179.927 165.16L179.695 164.956L179.927 165.015C179.289 165.168 178.725 165.539 178.329 166.064C178.195 166.288 178.106 166.537 178.07 166.796C178.033 167.054 178.049 167.318 178.116 167.571C178.339 168.436 178.717 168.951 178.63 168.989Z" fill="#894943"/>
<path d="M47.7152 139.844C48.5481 140.816 109.289 185.112 109.289 185.112L78.9573 245.015C78.9573 245.015 58.1066 235.296 40.8393 225.5C23.5719 215.705 5.9753 191.331 5.9753 191.331L47.7152 139.844Z" fill="#222222"/>
<path d="M79.4124 118.406C78.7732 118.319 68.0526 117.182 61.593 131.603C58.1648 139.261 47.6668 163.178 45.604 168.989C44.2288 172.876 39.9483 188.231 43.948 194.694C47.599 200.593 51.6278 201.623 60.0823 199.786C68.8757 197.842 89.8135 185.325 89.8135 185.325L80.6617 166.501L74.6283 168.61L79.9257 155.636C83.3443 145.918 85.4458 133.081 85.5717 132.945C85.6976 132.808 90.5302 119.922 79.4124 118.406Z" fill="#637779"/>
<path d="M74.3475 193.868C74.3475 193.868 74.4346 193.79 74.6186 193.673L75.4418 193.188L78.5796 191.38L89.7167 185.121L89.6198 185.423L83.538 172.974L80.4487 166.569L80.7392 166.706C74.0472 168.775 68.2559 170.729 64.1594 172.187C62.1063 172.915 60.4793 173.547 59.3172 173.965L58.0389 174.461C57.8919 174.523 57.7396 174.572 57.5837 174.606C57.5837 174.606 57.7193 174.509 58.0001 174.373L59.2494 173.809C60.3534 173.333 61.9611 172.663 64.0045 171.866C68.0913 170.311 73.8632 168.299 80.5552 166.2L80.7586 166.142L80.8457 166.326C81.8142 168.358 82.8794 170.486 83.9447 172.682L90.0653 185.219L90.1621 185.423L89.9685 185.52L78.7442 191.613L75.5483 193.314L74.6961 193.741C74.5878 193.803 74.4699 193.846 74.3475 193.868Z" fill="#060606"/>
<path d="M119.119 155.219L124.929 145.384C125.388 144.605 126.124 144.03 126.988 143.774C127.852 143.518 128.781 143.6 129.588 144.004L143.979 152.08C144.499 152.299 144.961 152.637 145.328 153.067C145.694 153.497 145.955 154.008 146.09 154.558C146.225 155.108 146.229 155.681 146.103 156.233C145.977 156.785 145.723 157.3 145.363 157.736L127.079 186.511C126.591 187.282 125.827 187.836 124.944 188.059C124.061 188.281 123.127 188.155 122.334 187.707L108.311 179.796C107.893 179.559 107.527 179.24 107.235 178.858C106.943 178.475 106.731 178.038 106.612 177.572C106.492 177.105 106.468 176.619 106.54 176.143C106.613 175.667 106.78 175.21 107.032 174.801L119.119 155.219Z" fill="#060606"/>
<path d="M77.8145 118.348L79.887 117.609C81.3484 117.065 82.9475 117.017 84.4386 117.473C85.5583 117.829 86.5619 118.48 87.344 119.359C92.9416 125.695 93.0191 143.878 93.1546 148.251C93.2902 152.624 95.169 177.784 95.169 177.784H87.7895C87.7895 177.784 88.603 143.12 88.6901 137.94C88.971 121.322 77.8145 118.348 77.8145 118.348Z" fill="#222222"/>
<path d="M84.1869 147.133C83.9197 148.21 83.5567 149.261 83.1022 150.272C82.3662 152.216 81.2622 154.782 79.9451 157.609C78.628 160.437 77.3303 162.964 76.3521 164.752C75.8631 165.728 75.293 166.661 74.6477 167.541C75.0448 166.509 75.5074 165.502 76.0326 164.529C76.9332 162.702 78.1728 160.165 79.4899 157.337C80.807 154.509 81.9498 151.944 82.7729 150.078C83.18 149.067 83.6524 148.083 84.1869 147.133Z" fill="#060606"/>
<path d="M180.063 165.024C180.014 165.024 179.646 164.616 179.53 163.722C179.463 163.199 179.513 162.668 179.675 162.167C179.732 161.99 179.832 161.83 179.966 161.701C180.057 161.627 180.166 161.579 180.281 161.56C180.397 161.542 180.515 161.553 180.624 161.594C180.932 161.735 181.219 161.918 181.477 162.138C182.793 163.013 183.909 164.159 184.75 165.5C184.634 165.598 183.23 164.062 181.176 162.585C180.955 162.399 180.715 162.236 180.46 162.099C180.363 162.099 180.324 162.099 180.276 162.099C180.205 162.171 180.149 162.257 180.111 162.352C179.952 162.791 179.874 163.255 179.879 163.722C179.908 164.509 180.131 164.995 180.063 165.024Z" fill="#894943"/>
<path d="M179.995 163.839C179.995 163.839 179.859 164.014 179.52 163.985C179.182 163.955 178.765 163.79 178.552 164.227C178.021 165.542 177.264 166.753 176.315 167.804C175.353 168.863 174.195 169.724 172.906 170.34C172.391 170.635 171.82 170.817 171.231 170.875C172.976 170.001 174.569 168.849 175.947 167.464C176.864 166.428 177.639 165.275 178.252 164.033C178.331 163.907 178.443 163.804 178.577 163.738C178.71 163.671 178.859 163.642 179.007 163.654C179.195 163.683 179.379 163.729 179.559 163.79C179.83 163.868 179.976 163.8 179.995 163.839Z" fill="#894943"/>
<path d="M140.918 204.597C140.796 204.165 140.722 203.722 140.696 203.275C140.579 202.429 140.444 201.195 140.279 199.669C139.969 196.608 139.601 192.381 139.311 187.706C139.02 183.032 138.846 178.795 138.768 175.724C138.768 174.188 138.71 172.954 138.72 172.089C138.697 171.645 138.713 171.199 138.768 170.758C138.865 171.195 138.914 171.641 138.914 172.089C138.972 173.061 139.04 174.256 139.127 175.714C139.311 178.872 139.553 183.051 139.814 187.677C140.076 192.303 140.424 196.472 140.647 199.631C140.744 201.088 140.831 202.303 140.899 203.255C140.944 203.701 140.95 204.15 140.918 204.597Z" fill="#060606"/>
<path d="M98.5101 178.941C98.42 179.155 98.3097 179.36 98.1808 179.553L97.2124 181.264L93.4161 187.512L80.8651 208.105C76.0132 216.132 71.6649 223.431 68.4206 228.766L64.6339 235.015C64.2078 235.714 63.8592 236.278 63.588 236.706C63.4764 236.911 63.3433 237.103 63.191 237.279C63.279 237.064 63.3826 236.857 63.5009 236.657C63.743 236.21 64.0723 235.637 64.4693 234.918C65.3603 233.372 66.5999 231.225 68.1107 228.581C71.2194 223.256 75.558 215.948 80.4293 207.852C85.3005 199.757 89.7844 192.546 93.0772 187.328L96.9509 181.166C97.4061 180.486 97.7741 179.932 98.0453 179.505C98.1807 179.301 98.3364 179.112 98.5101 178.941Z" fill="#060606"/>
<path d="M107.865 176.715C107.936 176.521 108.027 176.336 108.136 176.161C108.35 175.763 108.64 175.257 108.979 174.635L112.194 169.057C114.974 164.324 118.751 157.881 122.934 150.768L124.503 148.124C124.954 147.202 125.575 146.374 126.334 145.685C126.744 145.355 127.23 145.131 127.747 145.034C128.268 144.952 128.801 145.041 129.268 145.286C130.12 145.714 130.914 146.161 131.708 146.598C134.836 148.348 137.616 149.99 139.94 151.389C141.102 152.089 142.148 152.74 143.049 153.333C143.491 153.605 143.898 153.932 144.259 154.305C144.556 154.633 144.757 155.036 144.84 155.471C144.94 156.063 144.876 156.672 144.656 157.23C144.598 157.429 144.499 157.615 144.366 157.774C144.366 157.774 144.443 157.58 144.56 157.201C144.725 156.653 144.758 156.073 144.656 155.51C144.56 155.117 144.359 154.758 144.075 154.47C143.717 154.136 143.32 153.846 142.894 153.605C141.984 153.042 140.957 152.42 139.756 151.739C137.422 150.379 134.623 148.766 131.486 147.045C130.701 146.618 129.888 146.171 129.065 145.763C128.672 145.572 128.232 145.504 127.801 145.567C127.369 145.629 126.966 145.819 126.643 146.113C125.937 146.766 125.358 147.548 124.939 148.416L123.37 151.02L112.494 169.242L109.153 174.733L108.185 176.21C108.097 176.39 107.99 176.559 107.865 176.715Z" fill="#FAFAFA"/>
<path d="M80.9135 167.007C80.9135 167.007 96.8831 159.232 101.512 158.465C106.141 157.697 120.988 157.736 120.988 157.736C120.988 157.736 129.491 161.118 130.788 164.023C132.086 166.929 130.788 168.018 130.788 168.018C131.047 168.986 130.968 170.015 130.566 170.933C130.198 171.662 128.551 171.953 128.551 171.953L128.716 172.663C128.716 172.663 128.716 173.256 127.341 173.79C126.94 173.953 126.502 174.001 126.075 173.927C125.649 173.853 125.252 173.661 124.929 173.372L120.533 171.429L115.1 170.777L119.709 172.43C119.709 172.43 123.719 173.897 124.213 175.073C124.3 175.279 124.327 175.506 124.29 175.727C124.253 175.948 124.154 176.154 124.005 176.321C123.855 176.487 123.661 176.607 123.446 176.667C123.23 176.726 123.002 176.723 122.789 176.657C121.501 176.443 104.495 173.411 104.495 173.411L101.696 172.634C101.696 172.634 88.3221 181.856 88.3318 181.905C88.3415 181.953 80.9135 167.007 80.9135 167.007Z" fill="#B5675E"/>
<path d="M115.129 166.21C115.836 165.915 116.6 165.782 117.366 165.821C119.217 165.823 121.047 166.224 122.731 166.997C124.423 167.736 125.954 168.802 127.234 170.136C127.791 170.662 128.238 171.293 128.551 171.992C128.483 171.992 127.98 171.331 126.982 170.389C125.667 169.178 124.162 168.193 122.528 167.473C120.894 166.741 119.142 166.31 117.356 166.2C115.991 166.113 115.148 166.297 115.129 166.21Z" fill="#894943"/>
<path d="M130.856 168.27C130.798 168.328 130.13 167.735 128.919 166.948C127.709 166.161 126.014 165.073 124.174 163.829C123.345 163.22 122.475 162.671 121.569 162.186C120.8 161.886 119.99 161.703 119.167 161.642C117.734 161.525 116.843 161.642 116.833 161.642C117.582 161.352 118.388 161.243 119.186 161.321C120.063 161.324 120.931 161.482 121.753 161.788C122.698 162.261 123.602 162.814 124.455 163.44C126.295 164.684 127.951 165.811 129.123 166.686C129.791 167.104 130.379 167.641 130.856 168.27Z" fill="#894943"/>
</svg>
