<svg width="124" height="93" viewBox="0 0 124 93" fill="none" xmlns="http://www.w3.org/2000/svg">
<path d="M120.215 37.2832L86.8291 3.79087C85.6311 2.58902 84.2088 1.63565 82.6435 0.98521C81.0782 0.334773 79.4005 0 77.7062 0C76.0119 0 74.3343 0.334773 72.769 0.98521C71.2037 1.63565 69.7814 2.58902 68.5833 3.79087C67.3853 4.99272 66.435 6.41953 65.7866 7.98982C65.1383 9.56012 64.8045 11.2431 64.8045 12.9428C64.8045 14.6425 65.1383 16.3255 65.7866 17.8958C66.435 19.4661 67.3853 20.8929 68.5833 22.0948L79.8414 33.5185H12.9403C5.82311 33.5185 0 39.3602 0 46.5C0 53.6398 5.82311 59.4815 12.9403 59.4815H79.8414L68.5833 70.9052C66.1638 73.3325 64.8045 76.6245 64.8045 80.0572C64.8045 83.4898 66.1638 86.7819 68.5833 89.2092C71.0029 91.6364 74.2845 93 77.7062 93C81.128 93 84.4096 91.6364 86.8291 89.2092L120.215 55.7169C125.262 50.5243 125.262 42.3459 120.215 37.2832Z" fill="black"/>
</svg>
