<svg width="22" height="29" viewBox="0 0 22 29" fill="none" xmlns="http://www.w3.org/2000/svg">
<path d="M2.99992 0.75H18.9999C19.7072 0.75 20.3854 1.03973 20.8855 1.55546C21.3856 2.07118 21.6666 2.77065 21.6666 3.5V25.5C21.6666 26.2293 21.3856 26.9288 20.8855 27.4445C20.3854 27.9603 19.7072 28.25 18.9999 28.25H2.99992C2.29267 28.25 1.6144 27.9603 1.1143 27.4445C0.614203 26.9288 0.333252 26.2293 0.333252 25.5V3.5C0.333252 2.77065 0.614203 2.07118 1.1143 1.55546C1.6144 1.03973 2.29267 0.75 2.99992 0.75ZM10.9999 3.5C8.87819 3.5 6.84336 4.36919 5.34306 5.91637C3.84277 7.46354 2.99992 9.56196 2.99992 11.75C2.99992 16.3012 6.58659 20 11.1333 20L9.95992 16.9338C9.78545 16.6159 9.73939 16.24 9.83173 15.8875C9.92406 15.5349 10.1474 15.234 10.4533 15.05L11.5999 14.3625C11.9081 14.1826 12.2726 14.1351 12.6145 14.2303C12.9564 14.3255 13.2481 14.5558 13.4266 14.8713L15.9866 18.1987C16.928 17.4278 17.688 16.4473 18.2099 15.3305C18.7317 14.2137 19.0018 12.9897 18.9999 11.75C18.9999 9.56196 18.1571 7.46354 16.6568 5.91637C15.1565 4.36919 13.1217 3.5 10.9999 3.5ZM10.9999 10.375C11.3535 10.375 11.6927 10.5199 11.9427 10.7777C12.1928 11.0356 12.3333 11.3853 12.3333 11.75C12.3333 12.1147 12.1928 12.4644 11.9427 12.7223C11.6927 12.9801 11.3535 13.125 10.9999 13.125C10.6463 13.125 10.3072 12.9801 10.0571 12.7223C9.80706 12.4644 9.66659 12.1147 9.66659 11.75C9.66659 11.3853 9.80706 11.0356 10.0571 10.7777C10.3072 10.5199 10.6463 10.375 10.9999 10.375ZM4.33325 22.75C3.97963 22.75 3.64049 22.8949 3.39044 23.1527C3.14039 23.4106 2.99992 23.7603 2.99992 24.125C2.99992 24.4897 3.14039 24.8394 3.39044 25.0973C3.64049 25.3551 3.97963 25.5 4.33325 25.5C4.68687 25.5 5.02601 25.3551 5.27606 25.0973C5.52611 24.8394 5.66659 24.4897 5.66659 24.125C5.66659 23.7603 5.52611 23.4106 5.27606 23.1527C5.02601 22.8949 4.68687 22.75 4.33325 22.75ZM11.1199 16.2463L14.4399 24.9225L17.8933 22.86L12.2666 15.5588L11.1199 16.2463Z" fill="white"/>
</svg>
