<svg width="32" height="15" viewBox="0 0 32 15" fill="none" xmlns="http://www.w3.org/2000/svg">
<path fill-rule="evenodd" clip-rule="evenodd" d="M0 3.875C0 2.91359 0.421427 1.99156 1.17157 1.31174C1.92172 0.631919 2.93913 0.25 4 0.25H28C29.0609 0.25 30.0783 0.631919 30.8284 1.31174C31.5786 1.99156 32 2.91359 32 3.875V11.125C32 12.0864 31.5786 13.0084 30.8284 13.6883C30.0783 14.3681 29.0609 14.75 28 14.75H4C2.93913 14.75 1.92172 14.3681 1.17157 13.6883C0.421427 13.0084 0 12.0864 0 11.125L0 3.875ZM4 2.66667H28C28.3536 2.66667 28.6928 2.79397 28.9428 3.02058C29.1929 3.24719 29.3333 3.55453 29.3333 3.875V11.125C29.3333 11.4455 29.1929 11.7528 28.9428 11.9794C28.6928 12.206 28.3536 12.3333 28 12.3333H4C3.64638 12.3333 3.30724 12.206 3.05719 11.9794C2.80714 11.7528 2.66667 11.4455 2.66667 11.125V3.875C2.66667 3.55453 2.80714 3.24719 3.05719 3.02058C3.30724 2.79397 3.64638 2.66667 4 2.66667Z" fill="white"/>
</svg>
