<svg width="32" height="29" viewBox="0 0 32 29" fill="none" xmlns="http://www.w3.org/2000/svg">
<path fill-rule="evenodd" clip-rule="evenodd" d="M16 0C16.616 0 17.1168 0.4524 17.1168 1.0121V5.0576C17.9328 5.0605 18.6752 5.06485 19.3488 5.08225V1.0121C19.3597 0.750493 19.4821 0.502903 19.6902 0.321323C19.8983 0.139743 20.1759 0.0383016 20.4648 0.0383016C20.7537 0.0383016 21.0313 0.139743 21.2394 0.321323C21.4475 0.502903 21.5699 0.750493 21.5808 1.0121V5.0576C21.581 5.11002 21.5767 5.16238 21.568 5.2142C23.0656 5.38095 24.104 5.72605 24.8928 6.4409C25.6816 7.15575 26.0624 8.0968 26.2464 9.454C26.3036 9.44611 26.3614 9.44223 26.4192 9.4424H30.8832C31.1719 9.45231 31.4451 9.5632 31.6454 9.75178C31.8458 9.94037 31.9577 10.192 31.9577 10.4538C31.9577 10.7156 31.8458 10.9672 31.6454 11.1558C31.4451 11.3444 31.1719 11.4552 30.8832 11.4651H26.392C26.4112 12.0756 26.4176 12.7484 26.4192 13.4879H30.8832C31.1794 13.4879 31.4635 13.5945 31.6729 13.7843C31.8823 13.9741 32 14.2316 32 14.5C32 14.7684 31.8823 15.0259 31.6729 15.2157C31.4635 15.4055 31.1794 15.5121 30.8832 15.5121H26.4192C26.416 16.2516 26.4112 16.9244 26.392 17.5349H30.8832C31.1719 17.5448 31.4451 17.6556 31.6454 17.8442C31.8458 18.0328 31.9577 18.2844 31.9577 18.5462C31.9577 18.808 31.8458 19.0596 31.6454 19.2482C31.4451 19.4368 31.1719 19.5477 30.8832 19.5576H26.4192C26.3614 19.5578 26.3036 19.5539 26.2464 19.546C26.0624 20.9032 25.6816 21.8443 24.8928 22.5591C24.104 23.274 23.0656 23.619 21.568 23.7858C21.5771 23.8376 21.5814 23.89 21.5808 23.9424V27.9879C21.5699 28.2495 21.4475 28.4971 21.2394 28.6787C21.0313 28.8603 20.7537 28.9617 20.4648 28.9617C20.1759 28.9617 19.8983 28.8603 19.6902 28.6787C19.4821 28.4971 19.3597 28.2495 19.3488 27.9879V23.9178C18.605 23.9347 17.8609 23.943 17.1168 23.9424V27.9879C17.1168 28.2563 16.9991 28.5138 16.7897 28.7036C16.5803 28.8934 16.2962 29 16 29C15.7038 29 15.4197 28.8934 15.2103 28.7036C15.0009 28.5138 14.8832 28.2563 14.8832 27.9879V23.9424C14.1391 23.9426 13.3951 23.9343 12.6512 23.9178V27.9879C12.6403 28.2495 12.5179 28.4971 12.3098 28.6787C12.1017 28.8603 11.8241 28.9617 11.5352 28.9617C11.2463 28.9617 10.9687 28.8603 10.7606 28.6787C10.5525 28.4971 10.4301 28.2495 10.4192 27.9879V23.9424C10.4192 23.8887 10.4224 23.8365 10.432 23.7858C8.9344 23.619 7.896 23.274 7.1072 22.5591C6.3184 21.8443 5.9376 20.9032 5.7536 19.546C5.69642 19.5539 5.63864 19.5578 5.5808 19.5576H1.1168C0.828131 19.5477 0.554927 19.4368 0.354563 19.2482C0.154199 19.0596 0.0422638 18.808 0.0422638 18.5462C0.0422638 18.2844 0.154199 18.0328 0.354563 17.8442C0.554927 17.6556 0.828131 17.5448 1.1168 17.5349H5.608C5.5897 16.8607 5.58064 16.1864 5.5808 15.5121H1.1168C0.820606 15.5121 0.536544 15.4055 0.327103 15.2157C0.117662 15.0259 0 14.7684 0 14.5C0 14.2316 0.117662 13.9741 0.327103 13.7843C0.536544 13.5945 0.820606 13.4879 1.1168 13.4879H5.5808C5.584 12.7484 5.5888 12.0756 5.608 11.4651H1.1168C0.828131 11.4552 0.554927 11.3444 0.354563 11.1558C0.154199 10.9672 0.0422638 10.7156 0.0422638 10.4538C0.0422638 10.192 0.154199 9.94037 0.354563 9.75178C0.554927 9.5632 0.828131 9.45231 1.1168 9.4424H5.5808C5.64 9.4424 5.6976 9.4453 5.7536 9.454C5.9376 8.0968 6.3184 7.15575 7.1072 6.4409C7.896 5.72605 8.9344 5.38095 10.432 5.2142C10.4233 5.16238 10.419 5.11002 10.4192 5.0576V1.0121C10.4301 0.750493 10.5525 0.502903 10.7606 0.321323C10.9687 0.139743 11.2463 0.0383016 11.5352 0.0383016C11.8241 0.0383016 12.1017 0.139743 12.3098 0.321323C12.5179 0.502903 12.6403 0.750493 12.6512 1.0121V5.08225C13.395 5.06525 14.1391 5.05704 14.8832 5.0576V1.0121C14.8832 0.4524 15.384 0 16 0ZM14.4384 8.09245C13.448 8.09245 12.5952 8.09245 11.9136 8.17655C11.1808 8.265 10.48 8.46655 9.9104 8.9813C9.3424 9.4975 9.12 10.1326 9.0224 10.7967C8.9296 11.4159 8.9296 12.1887 8.9296 13.0848V15.9152C8.9296 16.8128 8.9296 17.5842 9.0224 18.2033C9.12 18.8674 9.3424 19.5025 9.9104 20.0187C10.48 20.5335 11.1808 20.735 11.9136 20.8235C12.5952 20.9076 13.4496 20.9076 14.4384 20.9076H17.5616C18.552 20.9076 19.4032 20.9076 20.0864 20.8235C20.8192 20.735 21.52 20.5335 22.0896 20.0187C22.6576 19.5025 22.88 18.8674 22.9776 18.2033C23.0704 17.5842 23.0704 16.8113 23.0704 15.9152V13.0848C23.0704 12.1873 23.0704 11.4159 22.9776 10.7967C22.88 10.1326 22.6576 9.4975 22.0896 8.9813C21.52 8.46655 20.8192 8.265 20.0864 8.17655C19.4032 8.09245 18.5504 8.09245 17.5616 8.09245H14.4384Z" fill="white"/>
</svg>
