<svg width="25" height="17" viewBox="0 0 25 17" fill="none" xmlns="http://www.w3.org/2000/svg">
<path d="M3.223 1.9271L4.6817 0.314697C4.8267 0.445197 4.98475 0.575698 5.15295 0.701848C6.9959 2.08225 9.93795 2.93485 13.1497 2.93485C15.8916 2.93485 18.4451 2.3157 20.2996 1.25575C20.7462 1.00055 21.1435 0.723597 21.4872 0.429247L22.8995 2.0837C22.4277 2.4839 21.9188 2.83833 21.3799 3.1422C19.1817 4.4008 16.2556 5.1084 13.1497 5.1084C9.4928 5.1084 6.09545 4.1253 3.84795 2.44185C3.63184 2.27995 3.4233 2.10819 3.223 1.9271ZM3.223 15.096L4.6817 16.7084C4.8267 16.5764 4.98475 16.4474 5.15295 16.3212C6.9959 14.9408 9.93795 14.0882 13.1497 14.0882C15.8916 14.0882 18.4451 14.7074 20.2996 15.7673C20.7462 16.0225 21.1435 16.2995 21.4872 16.5938L22.8995 14.9394C22.4271 14.5399 21.9183 14.1856 21.3799 13.8809C19.1817 12.6223 16.2556 11.9147 13.1497 11.9147C9.4928 11.9147 6.09545 12.8978 3.84795 14.5812C3.63183 14.7431 3.42329 14.9149 3.223 15.096ZM0.537598 9.58745V7.41245H24.4626V9.58745H0.537598Z" fill="white"/>
</svg>
