<svg width="348" height="465" viewBox="0 0 348 465" fill="none" xmlns="http://www.w3.org/2000/svg">
<path d="M126.828 207.549C139.39 219.329 156.364 225.896 174 225.896C182.739 225.896 191.399 224.282 199.489 221.14C207.579 217.998 214.949 213.385 221.172 207.549C227.396 201.713 232.351 194.767 235.739 187.099C239.126 179.43 240.875 171.197 240.875 162.875C240.875 146.053 233.746 129.991 221.172 118.201C208.61 106.421 191.636 99.8542 174 99.8542C156.364 99.8542 139.39 106.421 126.828 118.201C114.254 129.991 107.125 146.053 107.125 162.875C107.125 179.697 114.254 195.759 126.828 207.549ZM174 457.298C172.953 456.176 171.692 454.817 170.238 453.234C165.53 448.11 158.795 440.645 150.71 431.304C134.536 412.615 112.979 386.445 91.4336 356.5C69.8772 326.541 48.4013 292.899 32.3319 259.264C16.2278 225.557 5.75 192.257 5.75 162.875C5.75 121.222 23.3928 81.2046 54.9139 51.6469C86.4458 22.0791 129.277 5.41667 174 5.41667C218.723 5.41667 261.554 22.0791 293.086 51.6469C324.607 81.2046 342.25 121.222 342.25 162.875C342.25 192.257 331.772 225.557 315.668 259.264C299.599 292.899 278.123 326.541 256.566 356.5C235.021 386.445 213.464 412.615 197.29 431.304C189.205 440.645 182.47 448.11 177.762 453.234C176.308 454.817 175.047 456.176 174 457.298Z" fill="#FFC700" stroke="black" stroke-width="10"/>
</svg>
