<svg width="854" height="683" viewBox="0 0 854 683" fill="none" xmlns="http://www.w3.org/2000/svg">
<path d="M839.449 587.859L839.449 587.86C851.303 606.333 851.294 629.014 839.439 647.49C827.535 666.043 805.34 677.689 781.059 677.68H781.057H72.2775H72.2736C48.0072 677.699 25.8119 666.045 13.8957 647.49C2.04048 629.014 2.03239 606.333 13.8857 587.86L13.8863 587.859L368.276 35.2793L368.279 35.2744C380.166 16.6922 402.371 5 426.668 5C450.965 5 473.169 16.6831 485.055 35.2734L485.059 35.2793L839.449 587.859ZM469.337 602.33H474.337V597.33V512V507H469.337H384.008H379.008V512V597.33V602.33H384.008H469.337ZM474.337 170.66V165.661L469.338 165.66L384.008 165.65L379.008 165.649V170.65V469.32V474.32H384.008H469.337H474.337V469.32V170.66Z" fill="#FFC700" stroke="black" stroke-width="10"/>
</svg>
